STARTFONT 2.1
COMMENT Font grabbed from the X server.
FONT -Yanc-YancFontDZ-Medium-R-Normal--12-80-100-100-C-60-ISO10646-1
SIZE 8 100 100
FONTBOUNDINGBOX 6 12 0 -2
STARTPROPERTIES 34
FOUNDRY "Yanc"
FAMILY_NAME "YancFontDZ"
WEIGHT_NAME "Medium"
SLANT "R"
SETWIDTH_NAME "Normal"
ADD_STYLE_NAME ""
PIXEL_SIZE 12
POINT_SIZE 80
RESOLUTION_X 100
RESOLUTION_Y 100
SPACING "C"
AVERAGE_WIDTH 60
CHARSET_REGISTRY "ISO10646"
CHARSET_ENCODING "1"
FONTNAME_REGISTRY ""
FONT_NAME "YancFont"
FACE_NAME "YancFont"
FONT_VERSION "001.000"
UNDERLINE_POSITION -1
UNDERLINE_THICKNESS 1
X_HEIGHT 5
CAP_HEIGHT 8
RAW_ASCENT 818
RAW_DESCENT 182
NORM_SPACE 6
FIGURE_WIDTH 6
AVG_LOWERCASE_WIDTH 60
AVG_UPPERCASE_WIDTH "60"
WEIGHT 10
RESOLUTION 138
QUAD_WIDTH 6
FONT_ASCENT 10
FONT_DESCENT 2
_GBDFED_INFO "Edited with gbdfed 1.6."
ENDPROPERTIES
CHARS 1598
STARTCHAR char0
ENCODING 0
SWIDTH 540 0
DWIDTH 6 0
BBX 6 12 0 -2
BITMAP
00
A8
00
88
00
88
00
88
00
A8
00
00
ENDCHAR
STARTCHAR char32
ENCODING 32
SWIDTH 540 0
DWIDTH 6 0
BBX 6 12 0 -2
BITMAP
00
00
00
00
00
00
00
00
00
00
00
00
ENDCHAR
STARTCHAR char33
ENCODING 33
SWIDTH 540 0
DWIDTH 6 0
BBX 6 12 0 -2
BITMAP
00
20
20
20
20
20
20
20
00
20
00
00
ENDCHAR
STARTCHAR char34
ENCODING 34
SWIDTH 540 0
DWIDTH 6 0
BBX 6 12 0 -2
BITMAP
00
50
50
50
50
00
00
00
00
00
00
00
ENDCHAR
STARTCHAR char35
ENCODING 35
SWIDTH 540 0
DWIDTH 6 0
BBX 6 12 0 -2
BITMAP
00
00
50
50
F8
50
50
F8
50
50
00
00
ENDCHAR
STARTCHAR char36
ENCODING 36
SWIDTH 540 0
DWIDTH 6 0
BBX 6 12 0 -2
BITMAP
00
20
70
A8
A0
70
28
A8
A8
70
20
00
ENDCHAR
STARTCHAR char37
ENCODING 37
SWIDTH 540 0
DWIDTH 6 0
BBX 6 12 0 -2
BITMAP
00
48
A8
50
10
20
40
50
A8
90
00
00
ENDCHAR
STARTCHAR char38
ENCODING 38
SWIDTH 540 0
DWIDTH 6 0
BBX 6 12 0 -2
BITMAP
00
00
60
90
A0
40
A8
98
90
68
00
00
ENDCHAR
STARTCHAR char39
ENCODING 39
SWIDTH 540 0
DWIDTH 6 0
BBX 6 12 0 -2
BITMAP
00
20
20
20
20
00
00
00
00
00
00
00
ENDCHAR
STARTCHAR char40
ENCODING 40
SWIDTH 540 0
DWIDTH 6 0
BBX 6 12 0 -2
BITMAP
00
18
20
40
40
40
40
40
40
20
18
00
ENDCHAR
STARTCHAR char41
ENCODING 41
SWIDTH 540 0
DWIDTH 6 0
BBX 6 12 0 -2
BITMAP
00
C0
20
10
10
10
10
10
10
20
C0
00
ENDCHAR
STARTCHAR char42
ENCODING 42
SWIDTH 540 0
DWIDTH 6 0
BBX 6 12 0 -2
BITMAP
00
00
00
20
A8
70
A8
20
00
00
00
00
ENDCHAR
STARTCHAR char43
ENCODING 43
SWIDTH 540 0
DWIDTH 6 0
BBX 6 12 0 -2
BITMAP
00
00
00
20
20
F8
20
20
00
00
00
00
ENDCHAR
STARTCHAR char44
ENCODING 44
SWIDTH 540 0
DWIDTH 6 0
BBX 6 12 0 -2
BITMAP
00
00
00
00
00
00
00
00
60
60
20
40
ENDCHAR
STARTCHAR char45
ENCODING 45
SWIDTH 540 0
DWIDTH 6 0
BBX 6 12 0 -2
BITMAP
00
00
00
00
00
F8
00
00
00
00
00
00
ENDCHAR
STARTCHAR char46
ENCODING 46
SWIDTH 540 0
DWIDTH 6 0
BBX 6 12 0 -2
BITMAP
00
00
00
00
00
00
00
00
60
60
00
00
ENDCHAR
STARTCHAR char47
ENCODING 47
SWIDTH 540 0
DWIDTH 6 0
BBX 6 12 0 -2
BITMAP
00
08
08
10
10
20
20
20
40
40
80
80
ENDCHAR
STARTCHAR char48
ENCODING 48
SWIDTH 540 0
DWIDTH 6 0
BBX 6 12 0 -2
BITMAP
00
70
88
88
88
A8
88
88
88
70
00
00
ENDCHAR
STARTCHAR char49
ENCODING 49
SWIDTH 540 0
DWIDTH 6 0
BBX 6 12 0 -2
BITMAP
00
20
60
A0
20
20
20
20
20
20
00
00
ENDCHAR
STARTCHAR char50
ENCODING 50
SWIDTH 540 0
DWIDTH 6 0
BBX 6 12 0 -2
BITMAP
00
70
88
08
08
10
20
40
80
F8
00
00
ENDCHAR
STARTCHAR char51
ENCODING 51
SWIDTH 540 0
DWIDTH 6 0
BBX 6 12 0 -2
BITMAP
00
70
88
08
08
30
08
08
88
70
00
00
ENDCHAR
STARTCHAR char52
ENCODING 52
SWIDTH 540 0
DWIDTH 6 0
BBX 6 12 0 -2
BITMAP
00
10
30
50
50
90
F8
10
10
10
00
00
ENDCHAR
STARTCHAR char53
ENCODING 53
SWIDTH 540 0
DWIDTH 6 0
BBX 6 12 0 -2
BITMAP
00
F8
80
80
80
F0
08
08
88
70
00
00
ENDCHAR
STARTCHAR char54
ENCODING 54
SWIDTH 540 0
DWIDTH 6 0
BBX 6 12 0 -2
BITMAP
00
70
88
80
80
F0
88
88
88
70
00
00
ENDCHAR
STARTCHAR char55
ENCODING 55
SWIDTH 540 0
DWIDTH 6 0
BBX 6 12 0 -2
BITMAP
00
F8
08
08
10
10
10
20
20
20
00
00
ENDCHAR
STARTCHAR char56
ENCODING 56
SWIDTH 540 0
DWIDTH 6 0
BBX 6 12 0 -2
BITMAP
00
70
88
88
88
70
88
88
88
70
00
00
ENDCHAR
STARTCHAR char57
ENCODING 57
SWIDTH 540 0
DWIDTH 6 0
BBX 6 12 0 -2
BITMAP
00
70
88
88
88
78
08
08
88
70
00
00
ENDCHAR
STARTCHAR char58
ENCODING 58
SWIDTH 540 0
DWIDTH 6 0
BBX 6 12 0 -2
BITMAP
00
00
00
00
60
60
00
00
60
60
00
00
ENDCHAR
STARTCHAR char59
ENCODING 59
SWIDTH 540 0
DWIDTH 6 0
BBX 6 12 0 -2
BITMAP
00
00
00
00
60
60
00
00
60
60
20
40
ENDCHAR
STARTCHAR char60
ENCODING 60
SWIDTH 540 0
DWIDTH 6 0
BBX 6 12 0 -2
BITMAP
00
08
10
20
40
80
40
20
10
08
00
00
ENDCHAR
STARTCHAR char61
ENCODING 61
SWIDTH 540 0
DWIDTH 6 0
BBX 6 12 0 -2
BITMAP
00
00
00
00
F8
00
00
F8
00
00
00
00
ENDCHAR
STARTCHAR char62
ENCODING 62
SWIDTH 540 0
DWIDTH 6 0
BBX 6 12 0 -2
BITMAP
00
40
20
10
08
04
08
10
20
40
00
00
ENDCHAR
STARTCHAR char63
ENCODING 63
SWIDTH 540 0
DWIDTH 6 0
BBX 6 12 0 -2
BITMAP
00
70
88
88
08
10
20
20
00
20
00
00
ENDCHAR
STARTCHAR char64
ENCODING 64
SWIDTH 540 0
DWIDTH 6 0
BBX 6 12 0 -2
BITMAP
00
00
70
88
B8
A8
A8
B8
80
78
00
00
ENDCHAR
STARTCHAR char65
ENCODING 65
SWIDTH 540 0
DWIDTH 6 0
BBX 6 12 0 -2
BITMAP
00
70
88
88
88
F8
88
88
88
88
00
00
ENDCHAR
STARTCHAR char66
ENCODING 66
SWIDTH 540 0
DWIDTH 6 0
BBX 6 12 0 -2
BITMAP
00
F0
88
88
88
F0
88
88
88
F0
00
00
ENDCHAR
STARTCHAR char67
ENCODING 67
SWIDTH 540 0
DWIDTH 6 0
BBX 6 12 0 -2
BITMAP
00
70
88
80
80
80
80
80
88
70
00
00
ENDCHAR
STARTCHAR char68
ENCODING 68
SWIDTH 540 0
DWIDTH 6 0
BBX 6 12 0 -2
BITMAP
00
F0
88
88
88
88
88
88
88
F0
00
00
ENDCHAR
STARTCHAR char69
ENCODING 69
SWIDTH 540 0
DWIDTH 6 0
BBX 6 12 0 -2
BITMAP
00
F8
80
80
80
F0
80
80
80
F8
00
00
ENDCHAR
STARTCHAR char70
ENCODING 70
SWIDTH 540 0
DWIDTH 6 0
BBX 6 12 0 -2
BITMAP
00
F8
80
80
80
F0
80
80
80
80
00
00
ENDCHAR
STARTCHAR char71
ENCODING 71
SWIDTH 540 0
DWIDTH 6 0
BBX 6 12 0 -2
BITMAP
00
70
88
80
80
B8
88
88
88
70
00
00
ENDCHAR
STARTCHAR char72
ENCODING 72
SWIDTH 540 0
DWIDTH 6 0
BBX 6 12 0 -2
BITMAP
00
88
88
88
88
F8
88
88
88
88
00
00
ENDCHAR
STARTCHAR char73
ENCODING 73
SWIDTH 540 0
DWIDTH 6 0
BBX 6 12 0 -2
BITMAP
00
70
20
20
20
20
20
20
20
70
00
00
ENDCHAR
STARTCHAR char74
ENCODING 74
SWIDTH 540 0
DWIDTH 6 0
BBX 6 12 0 -2
BITMAP
00
08
08
08
08
08
88
88
88
70
00
00
ENDCHAR
STARTCHAR char75
ENCODING 75
SWIDTH 540 0
DWIDTH 6 0
BBX 6 12 0 -2
BITMAP
00
88
88
90
A0
C0
A0
90
88
88
00
00
ENDCHAR
STARTCHAR char76
ENCODING 76
SWIDTH 540 0
DWIDTH 6 0
BBX 6 12 0 -2
BITMAP
00
80
80
80
80
80
80
80
80
F8
00
00
ENDCHAR
STARTCHAR char77
ENCODING 77
SWIDTH 540 0
DWIDTH 6 0
BBX 6 12 0 -2
BITMAP
00
88
88
D8
A8
A8
88
88
88
88
00
00
ENDCHAR
STARTCHAR char78
ENCODING 78
SWIDTH 540 0
DWIDTH 6 0
BBX 6 12 0 -2
BITMAP
00
88
C8
C8
A8
A8
A8
98
98
88
00
00
ENDCHAR
STARTCHAR char79
ENCODING 79
SWIDTH 540 0
DWIDTH 6 0
BBX 6 12 0 -2
BITMAP
00
70
88
88
88
88
88
88
88
70
00
00
ENDCHAR
STARTCHAR char80
ENCODING 80
SWIDTH 540 0
DWIDTH 6 0
BBX 6 12 0 -2
BITMAP
00
F0
88
88
88
F0
80
80
80
80
00
00
ENDCHAR
STARTCHAR char81
ENCODING 81
SWIDTH 540 0
DWIDTH 6 0
BBX 6 12 0 -2
BITMAP
00
70
88
88
88
88
A8
98
88
74
00
00
ENDCHAR
STARTCHAR char82
ENCODING 82
SWIDTH 540 0
DWIDTH 6 0
BBX 6 12 0 -2
BITMAP
00
F0
88
88
88
F0
90
88
88
88
00
00
ENDCHAR
STARTCHAR char83
ENCODING 83
SWIDTH 540 0
DWIDTH 6 0
BBX 6 12 0 -2
BITMAP
00
70
88
80
80
70
08
88
88
70
00
00
ENDCHAR
STARTCHAR char84
ENCODING 84
SWIDTH 540 0
DWIDTH 6 0
BBX 6 12 0 -2
BITMAP
00
F8
20
20
20
20
20
20
20
20
00
00
ENDCHAR
STARTCHAR char85
ENCODING 85
SWIDTH 540 0
DWIDTH 6 0
BBX 6 12 0 -2
BITMAP
00
88
88
88
88
88
88
88
88
70
00
00
ENDCHAR
STARTCHAR char86
ENCODING 86
SWIDTH 540 0
DWIDTH 6 0
BBX 6 12 0 -2
BITMAP
00
88
88
88
88
50
50
50
20
20
00
00
ENDCHAR
STARTCHAR char87
ENCODING 87
SWIDTH 540 0
DWIDTH 6 0
BBX 6 12 0 -2
BITMAP
00
88
88
88
88
A8
A8
A8
50
50
00
00
ENDCHAR
STARTCHAR char88
ENCODING 88
SWIDTH 540 0
DWIDTH 6 0
BBX 6 12 0 -2
BITMAP
00
88
88
88
50
20
50
88
88
88
00
00
ENDCHAR
STARTCHAR char89
ENCODING 89
SWIDTH 540 0
DWIDTH 6 0
BBX 6 12 0 -2
BITMAP
00
88
88
50
50
20
20
20
20
20
00
00
ENDCHAR
STARTCHAR char90
ENCODING 90
SWIDTH 540 0
DWIDTH 6 0
BBX 6 12 0 -2
BITMAP
00
F8
08
10
20
20
40
40
80
F8
00
00
ENDCHAR
STARTCHAR char91
ENCODING 91
SWIDTH 540 0
DWIDTH 6 0
BBX 6 12 0 -2
BITMAP
00
78
40
40
40
40
40
40
40
40
78
00
ENDCHAR
STARTCHAR char92
ENCODING 92
SWIDTH 540 0
DWIDTH 6 0
BBX 6 12 0 -2
BITMAP
00
40
40
20
20
10
10
10
08
08
04
04
ENDCHAR
STARTCHAR char93
ENCODING 93
SWIDTH 540 0
DWIDTH 6 0
BBX 6 12 0 -2
BITMAP
00
F0
10
10
10
10
10
10
10
10
F0
00
ENDCHAR
STARTCHAR char94
ENCODING 94
SWIDTH 540 0
DWIDTH 6 0
BBX 6 12 0 -2
BITMAP
00
00
20
50
50
88
00
00
00
00
00
00
ENDCHAR
STARTCHAR char95
ENCODING 95
SWIDTH 540 0
DWIDTH 6 0
BBX 6 12 0 -2
BITMAP
00
00
00
00
00
00
00
00
00
F8
00
00
ENDCHAR
STARTCHAR char96
ENCODING 96
SWIDTH 540 0
DWIDTH 6 0
BBX 6 12 0 -2
BITMAP
00
40
20
20
10
00
00
00
00
00
00
00
ENDCHAR
STARTCHAR char97
ENCODING 97
SWIDTH 540 0
DWIDTH 6 0
BBX 6 12 0 -2
BITMAP
00
00
00
00
70
08
78
88
88
78
00
00
ENDCHAR
STARTCHAR char98
ENCODING 98
SWIDTH 540 0
DWIDTH 6 0
BBX 6 12 0 -2
BITMAP
00
80
80
80
F0
88
88
88
88
F0
00
00
ENDCHAR
STARTCHAR char99
ENCODING 99
SWIDTH 540 0
DWIDTH 6 0
BBX 6 12 0 -2
BITMAP
00
00
00
00
78
80
80
80
80
78
00
00
ENDCHAR
STARTCHAR char100
ENCODING 100
SWIDTH 540 0
DWIDTH 6 0
BBX 6 12 0 -2
BITMAP
00
08
08
08
78
88
88
88
88
78
00
00
ENDCHAR
STARTCHAR char101
ENCODING 101
SWIDTH 540 0
DWIDTH 6 0
BBX 6 12 0 -2
BITMAP
00
00
00
00
70
88
F8
80
80
78
00
00
ENDCHAR
STARTCHAR char102
ENCODING 102
SWIDTH 540 0
DWIDTH 6 0
BBX 6 12 0 -2
BITMAP
00
30
40
40
F0
40
40
40
40
40
00
00
ENDCHAR
STARTCHAR char103
ENCODING 103
SWIDTH 540 0
DWIDTH 6 0
BBX 6 12 0 -2
BITMAP
00
00
00
00
78
88
88
88
78
08
08
70
ENDCHAR
STARTCHAR char104
ENCODING 104
SWIDTH 540 0
DWIDTH 6 0
BBX 6 12 0 -2
BITMAP
00
80
80
80
F0
88
88
88
88
88
00
00
ENDCHAR
STARTCHAR char105
ENCODING 105
SWIDTH 540 0
DWIDTH 6 0
BBX 6 12 0 -2
BITMAP
00
00
20
00
60
20
20
20
20
30
00
00
ENDCHAR
STARTCHAR char106
ENCODING 106
SWIDTH 540 0
DWIDTH 6 0
BBX 6 12 0 -2
BITMAP
00
00
20
00
20
20
20
20
20
20
20
C0
ENDCHAR
STARTCHAR char107
ENCODING 107
SWIDTH 540 0
DWIDTH 6 0
BBX 6 12 0 -2
BITMAP
00
80
80
80
88
90
A0
D0
88
88
00
00
ENDCHAR
STARTCHAR char108
ENCODING 108
SWIDTH 540 0
DWIDTH 6 0
BBX 6 12 0 -2
BITMAP
00
20
20
20
20
20
20
20
20
18
00
00
ENDCHAR
STARTCHAR char109
ENCODING 109
SWIDTH 540 0
DWIDTH 6 0
BBX 6 12 0 -2
BITMAP
00
00
00
00
F0
A8
A8
A8
A8
A8
00
00
ENDCHAR
STARTCHAR char110
ENCODING 110
SWIDTH 540 0
DWIDTH 6 0
BBX 6 12 0 -2
BITMAP
00
00
00
00
B0
C8
88
88
88
88
00
00
ENDCHAR
STARTCHAR char111
ENCODING 111
SWIDTH 540 0
DWIDTH 6 0
BBX 6 12 0 -2
BITMAP
00
00
00
00
70
88
88
88
88
70
00
00
ENDCHAR
STARTCHAR char112
ENCODING 112
SWIDTH 540 0
DWIDTH 6 0
BBX 6 12 0 -2
BITMAP
00
00
00
00
F0
88
88
88
88
F0
80
80
ENDCHAR
STARTCHAR char113
ENCODING 113
SWIDTH 540 0
DWIDTH 6 0
BBX 6 12 0 -2
BITMAP
00
00
00
00
78
88
88
88
88
78
08
08
ENDCHAR
STARTCHAR char114
ENCODING 114
SWIDTH 540 0
DWIDTH 6 0
BBX 6 12 0 -2
BITMAP
00
00
00
00
B0
C8
80
80
80
80
00
00
ENDCHAR
STARTCHAR char115
ENCODING 115
SWIDTH 540 0
DWIDTH 6 0
BBX 6 12 0 -2
BITMAP
00
00
00
00
70
80
70
08
88
70
00
00
ENDCHAR
STARTCHAR char116
ENCODING 116
SWIDTH 540 0
DWIDTH 6 0
BBX 6 12 0 -2
BITMAP
00
40
40
40
F0
40
40
40
40
30
00
00
ENDCHAR
STARTCHAR char117
ENCODING 117
SWIDTH 540 0
DWIDTH 6 0
BBX 6 12 0 -2
BITMAP
00
00
00
00
88
88
88
88
88
78
00
00
ENDCHAR
STARTCHAR char118
ENCODING 118
SWIDTH 540 0
DWIDTH 6 0
BBX 6 12 0 -2
BITMAP
00
00
00
00
88
88
50
50
20
20
00
00
ENDCHAR
STARTCHAR char119
ENCODING 119
SWIDTH 540 0
DWIDTH 6 0
BBX 6 12 0 -2
BITMAP
00
00
00
00
88
88
A8
A8
A8
50
00
00
ENDCHAR
STARTCHAR char120
ENCODING 120
SWIDTH 540 0
DWIDTH 6 0
BBX 6 12 0 -2
BITMAP
00
00
00
00
88
50
20
20
50
88
00
00
ENDCHAR
STARTCHAR char121
ENCODING 121
SWIDTH 540 0
DWIDTH 6 0
BBX 6 12 0 -2
BITMAP
00
00
00
00
88
88
88
88
78
08
88
70
ENDCHAR
STARTCHAR char122
ENCODING 122
SWIDTH 540 0
DWIDTH 6 0
BBX 6 12 0 -2
BITMAP
00
00
00
00
F8
10
20
20
40
F8
00
00
ENDCHAR
STARTCHAR char123
ENCODING 123
SWIDTH 540 0
DWIDTH 6 0
BBX 6 12 0 -2
BITMAP
00
18
20
20
20
C0
20
20
20
20
18
00
ENDCHAR
STARTCHAR char124
ENCODING 124
SWIDTH 540 0
DWIDTH 6 0
BBX 6 12 0 -2
BITMAP
00
20
20
20
20
20
20
20
20
20
20
00
ENDCHAR
STARTCHAR char125
ENCODING 125
SWIDTH 540 0
DWIDTH 6 0
BBX 6 12 0 -2
BITMAP
00
60
10
10
10
0C
10
10
10
10
60
00
ENDCHAR
STARTCHAR char126
ENCODING 126
SWIDTH 540 0
DWIDTH 6 0
BBX 6 12 0 -2
BITMAP
00
00
00
00
48
A8
90
00
00
00
00
00
ENDCHAR
STARTCHAR char160
ENCODING 160
SWIDTH 540 0
DWIDTH 6 0
BBX 6 12 0 -2
BITMAP
00
00
00
00
00
00
00
00
00
00
00
00
ENDCHAR
STARTCHAR char161
ENCODING 161
SWIDTH 540 0
DWIDTH 6 0
BBX 6 12 0 -2
BITMAP
00
20
00
20
20
20
20
20
20
20
00
00
ENDCHAR
STARTCHAR char162
ENCODING 162
SWIDTH 540 0
DWIDTH 6 0
BBX 6 12 0 -2
BITMAP
00
00
00
20
78
A0
A0
A0
A0
78
20
00
ENDCHAR
STARTCHAR char163
ENCODING 163
SWIDTH 540 0
DWIDTH 6 0
BBX 6 12 0 -2
BITMAP
00
30
48
40
40
E0
40
40
48
B0
00
00
ENDCHAR
STARTCHAR char164
ENCODING 164
SWIDTH 540 0
DWIDTH 6 0
BBX 6 12 0 -2
BITMAP
00
00
00
00
88
70
50
50
70
88
00
00
ENDCHAR
STARTCHAR char165
ENCODING 165
SWIDTH 540 0
DWIDTH 6 0
BBX 6 12 0 -2
BITMAP
00
88
88
50
50
20
F8
20
F8
20
20
00
ENDCHAR
STARTCHAR char166
ENCODING 166
SWIDTH 540 0
DWIDTH 6 0
BBX 6 12 0 -2
BITMAP
00
20
20
20
20
00
00
20
20
20
20
00
ENDCHAR
STARTCHAR char167
ENCODING 167
SWIDTH 540 0
DWIDTH 6 0
BBX 6 12 0 -2
BITMAP
00
30
48
40
30
48
48
30
08
08
70
00
ENDCHAR
STARTCHAR char168
ENCODING 168
SWIDTH 540 0
DWIDTH 6 0
BBX 6 12 0 -2
BITMAP
00
50
00
00
00
00
00
00
00
00
00
00
ENDCHAR
STARTCHAR char169
ENCODING 169
SWIDTH 540 0
DWIDTH 6 0
BBX 6 12 0 -2
BITMAP
00
00
70
88
A8
C8
C8
A8
88
70
00
00
ENDCHAR
STARTCHAR char170
ENCODING 170
SWIDTH 540 0
DWIDTH 6 0
BBX 6 12 0 -2
BITMAP
00
00
38
48
48
58
28
00
78
00
00
00
ENDCHAR
STARTCHAR char171
ENCODING 171
SWIDTH 540 0
DWIDTH 6 0
BBX 6 12 0 -2
BITMAP
00
00
14
28
50
A0
50
28
14
00
00
00
ENDCHAR
STARTCHAR char172
ENCODING 172
SWIDTH 540 0
DWIDTH 6 0
BBX 6 12 0 -2
BITMAP
00
00
00
00
00
78
08
08
00
00
00
00
ENDCHAR
STARTCHAR char173
ENCODING 173
SWIDTH 540 0
DWIDTH 6 0
BBX 6 12 0 -2
BITMAP
00
00
00
00
00
78
00
00
00
00
00
00
ENDCHAR
STARTCHAR char174
ENCODING 174
SWIDTH 540 0
DWIDTH 6 0
BBX 6 12 0 -2
BITMAP
00
00
70
88
88
E8
C8
C8
88
70
00
00
ENDCHAR
STARTCHAR char175
ENCODING 175
SWIDTH 540 0
DWIDTH 6 0
BBX 6 12 0 -2
BITMAP
00
F8
00
00
00
00
00
00
00
00
00
00
ENDCHAR
STARTCHAR char176
ENCODING 176
SWIDTH 540 0
DWIDTH 6 0
BBX 6 12 0 -2
BITMAP
00
20
50
50
20
00
00
00
00
00
00
00
ENDCHAR
STARTCHAR char177
ENCODING 177
SWIDTH 540 0
DWIDTH 6 0
BBX 6 12 0 -2
BITMAP
00
00
00
20
20
F8
20
20
F8
00
00
00
ENDCHAR
STARTCHAR char178
ENCODING 178
SWIDTH 540 0
DWIDTH 6 0
BBX 6 12 0 -2
BITMAP
00
30
48
10
20
78
00
00
00
00
00
00
ENDCHAR
STARTCHAR char179
ENCODING 179
SWIDTH 540 0
DWIDTH 6 0
BBX 6 12 0 -2
BITMAP
00
70
08
30
08
70
00
00
00
00
00
00
ENDCHAR
STARTCHAR char180
ENCODING 180
SWIDTH 540 0
DWIDTH 6 0
BBX 6 12 0 -2
BITMAP
00
10
20
00
00
00
00
00
00
00
00
00
ENDCHAR
STARTCHAR char181
ENCODING 181
SWIDTH 540 0
DWIDTH 6 0
BBX 6 12 0 -2
BITMAP
00
00
00
00
88
88
88
88
C8
B0
80
00
ENDCHAR
STARTCHAR char182
ENCODING 182
SWIDTH 540 0
DWIDTH 6 0
BBX 6 12 0 -2
BITMAP
00
00
78
E8
E8
68
28
28
28
28
00
00
ENDCHAR
STARTCHAR char183
ENCODING 183
SWIDTH 540 0
DWIDTH 6 0
BBX 6 12 0 -2
BITMAP
00
00
00
00
00
20
00
00
00
00
00
00
ENDCHAR
STARTCHAR char184
ENCODING 184
SWIDTH 540 0
DWIDTH 6 0
BBX 6 12 0 -2
BITMAP
00
00
00
00
00
00
00
00
00
10
20
00
ENDCHAR
STARTCHAR char185
ENCODING 185
SWIDTH 540 0
DWIDTH 6 0
BBX 6 12 0 -2
BITMAP
00
20
60
20
20
70
00
00
00
00
00
00
ENDCHAR
STARTCHAR char186
ENCODING 186
SWIDTH 540 0
DWIDTH 6 0
BBX 6 12 0 -2
BITMAP
00
00
30
48
48
48
30
00
78
00
00
00
ENDCHAR
STARTCHAR char187
ENCODING 187
SWIDTH 540 0
DWIDTH 6 0
BBX 6 12 0 -2
BITMAP
00
00
A0
50
28
14
28
50
A0
00
00
00
ENDCHAR
STARTCHAR char188
ENCODING 188
SWIDTH 540 0
DWIDTH 6 0
BBX 6 12 0 -2
BITMAP
00
40
C0
44
48
D0
24
4C
94
3C
04
00
ENDCHAR
STARTCHAR char189
ENCODING 189
SWIDTH 540 0
DWIDTH 6 0
BBX 6 12 0 -2
BITMAP
00
40
C0
44
48
D0
28
54
88
10
1C
00
ENDCHAR
STARTCHAR char190
ENCODING 190
SWIDTH 540 0
DWIDTH 6 0
BBX 6 12 0 -2
BITMAP
00
C0
20
44
28
D0
28
58
A8
78
08
00
ENDCHAR
STARTCHAR char191
ENCODING 191
SWIDTH 540 0
DWIDTH 6 0
BBX 6 12 0 -2
BITMAP
00
00
20
00
20
20
40
80
88
70
00
00
ENDCHAR
STARTCHAR char192
ENCODING 192
SWIDTH 540 0
DWIDTH 6 0
BBX 6 12 0 -2
BITMAP
40
20
70
88
88
F8
88
88
88
88
00
00
ENDCHAR
STARTCHAR char193
ENCODING 193
SWIDTH 540 0
DWIDTH 6 0
BBX 6 12 0 -2
BITMAP
10
20
70
88
88
F8
88
88
88
88
00
00
ENDCHAR
STARTCHAR char194
ENCODING 194
SWIDTH 540 0
DWIDTH 6 0
BBX 6 12 0 -2
BITMAP
20
50
00
70
88
F8
88
88
88
88
00
00
ENDCHAR
STARTCHAR char195
ENCODING 195
SWIDTH 540 0
DWIDTH 6 0
BBX 6 12 0 -2
BITMAP
48
B0
00
70
88
F8
88
88
88
88
00
00
ENDCHAR
STARTCHAR char196
ENCODING 196
SWIDTH 540 0
DWIDTH 6 0
BBX 6 12 0 -2
BITMAP
50
00
70
88
88
F8
88
88
88
88
00
00
ENDCHAR
STARTCHAR char197
ENCODING 197
SWIDTH 540 0
DWIDTH 6 0
BBX 6 12 0 -2
BITMAP
20
50
20
70
88
F8
88
88
88
88
00
00
ENDCHAR
STARTCHAR char198
ENCODING 198
SWIDTH 540 0
DWIDTH 6 0
BBX 6 12 0 -2
BITMAP
00
00
78
A0
A0
F0
A0
A0
A0
B8
00
00
ENDCHAR
STARTCHAR char199
ENCODING 199
SWIDTH 540 0
DWIDTH 6 0
BBX 6 12 0 -2
BITMAP
00
00
70
88
80
80
80
A0
A8
70
40
00
ENDCHAR
STARTCHAR char200
ENCODING 200
SWIDTH 540 0
DWIDTH 6 0
BBX 6 12 0 -2
BITMAP
40
20
F8
80
80
F0
80
80
80
F8
00
00
ENDCHAR
STARTCHAR char201
ENCODING 201
SWIDTH 540 0
DWIDTH 6 0
BBX 6 12 0 -2
BITMAP
10
20
F8
80
80
F0
80
80
80
F8
00
00
ENDCHAR
STARTCHAR char202
ENCODING 202
SWIDTH 540 0
DWIDTH 6 0
BBX 6 12 0 -2
BITMAP
20
50
F8
80
80
F0
80
80
80
F8
00
00
ENDCHAR
STARTCHAR char203
ENCODING 203
SWIDTH 540 0
DWIDTH 6 0
BBX 6 12 0 -2
BITMAP
50
00
F8
80
80
F0
80
80
80
F8
00
00
ENDCHAR
STARTCHAR char204
ENCODING 204
SWIDTH 540 0
DWIDTH 6 0
BBX 6 12 0 -2
BITMAP
20
10
00
20
20
20
20
20
20
30
00
00
ENDCHAR
STARTCHAR char205
ENCODING 205
SWIDTH 540 0
DWIDTH 6 0
BBX 6 12 0 -2
BITMAP
20
40
00
20
20
20
20
20
20
30
00
00
ENDCHAR
STARTCHAR char206
ENCODING 206
SWIDTH 540 0
DWIDTH 6 0
BBX 6 12 0 -2
BITMAP
20
50
00
20
20
20
20
20
20
30
00
00
ENDCHAR
STARTCHAR char207
ENCODING 207
SWIDTH 540 0
DWIDTH 6 0
BBX 6 12 0 -2
BITMAP
50
00
20
20
20
20
20
20
20
30
00
00
ENDCHAR
STARTCHAR char208
ENCODING 208
SWIDTH 540 0
DWIDTH 6 0
BBX 6 12 0 -2
BITMAP
00
00
70
48
48
48
E8
48
48
70
00
00
ENDCHAR
STARTCHAR char209
ENCODING 209
SWIDTH 540 0
DWIDTH 6 0
BBX 6 12 0 -2
BITMAP
48
B0
00
88
C8
C8
A8
98
98
88
00
00
ENDCHAR
STARTCHAR char210
ENCODING 210
SWIDTH 540 0
DWIDTH 6 0
BBX 6 12 0 -2
BITMAP
40
20
70
88
88
88
88
88
88
70
00
00
ENDCHAR
STARTCHAR char211
ENCODING 211
SWIDTH 540 0
DWIDTH 6 0
BBX 6 12 0 -2
BITMAP
10
20
70
88
88
88
88
88
88
70
00
00
ENDCHAR
STARTCHAR char212
ENCODING 212
SWIDTH 540 0
DWIDTH 6 0
BBX 6 12 0 -2
BITMAP
20
50
00
70
88
88
88
88
88
70
00
00
ENDCHAR
STARTCHAR char213
ENCODING 213
SWIDTH 540 0
DWIDTH 6 0
BBX 6 12 0 -2
BITMAP
48
B0
00
70
88
88
88
88
88
70
00
00
ENDCHAR
STARTCHAR char214
ENCODING 214
SWIDTH 540 0
DWIDTH 6 0
BBX 6 12 0 -2
BITMAP
50
00
70
88
88
88
88
88
88
70
00
00
ENDCHAR
STARTCHAR char215
ENCODING 215
SWIDTH 540 0
DWIDTH 6 0
BBX 6 12 0 -2
BITMAP
00
00
00
88
50
20
50
88
00
00
00
00
ENDCHAR
STARTCHAR char216
ENCODING 216
SWIDTH 540 0
DWIDTH 6 0
BBX 6 12 0 -2
BITMAP
00
00
74
88
98
A8
C8
88
70
00
00
00
ENDCHAR
STARTCHAR char217
ENCODING 217
SWIDTH 540 0
DWIDTH 6 0
BBX 6 12 0 -2
BITMAP
40
20
88
88
88
88
88
88
88
70
00
00
ENDCHAR
STARTCHAR char218
ENCODING 218
SWIDTH 540 0
DWIDTH 6 0
BBX 6 12 0 -2
BITMAP
10
20
88
88
88
88
88
88
88
70
00
00
ENDCHAR
STARTCHAR char219
ENCODING 219
SWIDTH 540 0
DWIDTH 6 0
BBX 6 12 0 -2
BITMAP
10
20
88
88
88
88
88
88
88
70
00
00
ENDCHAR
STARTCHAR char220
ENCODING 220
SWIDTH 540 0
DWIDTH 6 0
BBX 6 12 0 -2
BITMAP
50
00
88
88
88
88
88
88
88
70
00
00
ENDCHAR
STARTCHAR char221
ENCODING 221
SWIDTH 540 0
DWIDTH 6 0
BBX 6 12 0 -2
BITMAP
10
20
88
88
88
50
50
20
20
20
00
00
ENDCHAR
STARTCHAR char222
ENCODING 222
SWIDTH 540 0
DWIDTH 6 0
BBX 6 12 0 -2
BITMAP
00
00
80
F0
88
88
88
F0
80
80
00
00
ENDCHAR
STARTCHAR char223
ENCODING 223
SWIDTH 540 0
DWIDTH 6 0
BBX 6 12 0 -2
BITMAP
00
70
88
88
B0
88
88
88
88
B0
80
80
ENDCHAR
STARTCHAR char224
ENCODING 224
SWIDTH 540 0
DWIDTH 6 0
BBX 6 12 0 -2
BITMAP
00
20
10
00
70
08
78
88
88
78
00
00
ENDCHAR
STARTCHAR char225
ENCODING 225
SWIDTH 540 0
DWIDTH 6 0
BBX 6 12 0 -2
BITMAP
00
10
20
00
70
08
78
88
88
78
00
00
ENDCHAR
STARTCHAR char226
ENCODING 226
SWIDTH 540 0
DWIDTH 6 0
BBX 6 12 0 -2
BITMAP
00
20
50
00
70
08
78
88
88
78
00
00
ENDCHAR
STARTCHAR char227
ENCODING 227
SWIDTH 540 0
DWIDTH 6 0
BBX 6 12 0 -2
BITMAP
00
48
B0
00
70
08
78
88
88
78
00
00
ENDCHAR
STARTCHAR char228
ENCODING 228
SWIDTH 540 0
DWIDTH 6 0
BBX 6 12 0 -2
BITMAP
00
00
50
00
70
08
78
88
88
78
00
00
ENDCHAR
STARTCHAR char229
ENCODING 229
SWIDTH 540 0
DWIDTH 6 0
BBX 6 12 0 -2
BITMAP
00
20
50
20
70
08
78
88
88
78
00
00
ENDCHAR
STARTCHAR char230
ENCODING 230
SWIDTH 540 0
DWIDTH 6 0
BBX 6 12 0 -2
BITMAP
00
00
00
00
70
A8
B8
A0
A0
78
00
00
ENDCHAR
STARTCHAR char231
ENCODING 231
SWIDTH 540 0
DWIDTH 6 0
BBX 6 12 0 -2
BITMAP
00
00
00
00
78
80
80
80
A0
78
20
40
ENDCHAR
STARTCHAR char232
ENCODING 232
SWIDTH 540 0
DWIDTH 6 0
BBX 6 12 0 -2
BITMAP
00
40
20
00
70
88
F8
80
80
78
00
00
ENDCHAR
STARTCHAR char233
ENCODING 233
SWIDTH 540 0
DWIDTH 6 0
BBX 6 12 0 -2
BITMAP
00
10
20
00
70
88
F8
80
80
78
00
00
ENDCHAR
STARTCHAR char234
ENCODING 234
SWIDTH 540 0
DWIDTH 6 0
BBX 6 12 0 -2
BITMAP
00
20
50
00
70
88
F8
80
80
78
00
00
ENDCHAR
STARTCHAR char235
ENCODING 235
SWIDTH 540 0
DWIDTH 6 0
BBX 6 12 0 -2
BITMAP
00
00
50
00
70
88
F8
80
80
78
00
00
ENDCHAR
STARTCHAR char236
ENCODING 236
SWIDTH 540 0
DWIDTH 6 0
BBX 6 12 0 -2
BITMAP
00
20
10
00
60
20
20
20
20
30
00
00
ENDCHAR
STARTCHAR char237
ENCODING 237
SWIDTH 540 0
DWIDTH 6 0
BBX 6 12 0 -2
BITMAP
00
20
40
00
60
20
20
20
20
30
00
00
ENDCHAR
STARTCHAR char238
ENCODING 238
SWIDTH 540 0
DWIDTH 6 0
BBX 6 12 0 -2
BITMAP
00
20
50
00
60
20
20
20
20
30
00
00
ENDCHAR
STARTCHAR char239
ENCODING 239
SWIDTH 540 0
DWIDTH 6 0
BBX 6 12 0 -2
BITMAP
00
00
50
00
60
20
20
20
20
30
00
00
ENDCHAR
STARTCHAR char240
ENCODING 240
SWIDTH 540 0
DWIDTH 6 0
BBX 6 12 0 -2
BITMAP
00
60
60
10
78
88
88
88
88
70
00
00
ENDCHAR
STARTCHAR char241
ENCODING 241
SWIDTH 540 0
DWIDTH 6 0
BBX 6 12 0 -2
BITMAP
00
50
A0
00
F0
88
88
88
88
88
00
00
ENDCHAR
STARTCHAR char242
ENCODING 242
SWIDTH 540 0
DWIDTH 6 0
BBX 6 12 0 -2
BITMAP
00
40
20
00
70
88
88
88
88
70
00
00
ENDCHAR
STARTCHAR char243
ENCODING 243
SWIDTH 540 0
DWIDTH 6 0
BBX 6 12 0 -2
BITMAP
00
10
20
00
70
88
88
88
88
70
00
00
ENDCHAR
STARTCHAR char244
ENCODING 244
SWIDTH 540 0
DWIDTH 6 0
BBX 6 12 0 -2
BITMAP
00
20
50
00
70
88
88
88
88
70
00
00
ENDCHAR
STARTCHAR char245
ENCODING 245
SWIDTH 540 0
DWIDTH 6 0
BBX 6 12 0 -2
BITMAP
00
50
A0
00
70
88
88
88
88
70
00
00
ENDCHAR
STARTCHAR char246
ENCODING 246
SWIDTH 540 0
DWIDTH 6 0
BBX 6 12 0 -2
BITMAP
00
00
50
00
70
88
88
88
88
70
00
00
ENDCHAR
STARTCHAR char247
ENCODING 247
SWIDTH 540 0
DWIDTH 6 0
BBX 6 12 0 -2
BITMAP
00
00
00
20
00
F8
00
20
00
00
00
00
ENDCHAR
STARTCHAR char248
ENCODING 248
SWIDTH 540 0
DWIDTH 6 0
BBX 6 12 0 -2
BITMAP
00
00
00
00
70
98
A8
A8
C8
70
00
00
ENDCHAR
STARTCHAR char249
ENCODING 249
SWIDTH 540 0
DWIDTH 6 0
BBX 6 12 0 -2
BITMAP
00
40
20
00
88
88
88
88
88
78
00
00
ENDCHAR
STARTCHAR char250
ENCODING 250
SWIDTH 540 0
DWIDTH 6 0
BBX 6 12 0 -2
BITMAP
00
10
20
00
88
88
88
88
88
78
00
00
ENDCHAR
STARTCHAR char251
ENCODING 251
SWIDTH 540 0
DWIDTH 6 0
BBX 6 12 0 -2
BITMAP
00
20
50
00
88
88
88
88
88
78
00
00
ENDCHAR
STARTCHAR char252
ENCODING 252
SWIDTH 540 0
DWIDTH 6 0
BBX 6 12 0 -2
BITMAP
00
00
50
00
88
88
88
88
88
78
00
00
ENDCHAR
STARTCHAR char253
ENCODING 253
SWIDTH 540 0
DWIDTH 6 0
BBX 6 12 0 -2
BITMAP
00
10
20
00
88
88
88
88
78
08
88
70
ENDCHAR
STARTCHAR char254
ENCODING 254
SWIDTH 540 0
DWIDTH 6 0
BBX 6 12 0 -2
BITMAP
00
00
80
80
F0
88
88
88
88
F0
80
80
ENDCHAR
STARTCHAR char255
ENCODING 255
SWIDTH 540 0
DWIDTH 6 0
BBX 6 12 0 -2
BITMAP
00
00
50
00
88
88
88
88
78
08
88
70
ENDCHAR
STARTCHAR char256
ENCODING 256
SWIDTH 540 0
DWIDTH 6 0
BBX 6 12 0 -2
BITMAP
00
70
00
70
88
88
F8
88
88
88
00
00
ENDCHAR
STARTCHAR char257
ENCODING 257
SWIDTH 540 0
DWIDTH 6 0
BBX 6 12 0 -2
BITMAP
00
00
70
00
70
08
78
88
88
78
00
00
ENDCHAR
STARTCHAR char258
ENCODING 258
SWIDTH 540 0
DWIDTH 6 0
BBX 6 12 0 -2
BITMAP
00
88
70
70
88
88
F8
88
88
88
00
00
ENDCHAR
STARTCHAR char259
ENCODING 259
SWIDTH 540 0
DWIDTH 6 0
BBX 6 12 0 -2
BITMAP
00
88
70
00
70
08
78
88
88
78
00
00
ENDCHAR
STARTCHAR char260
ENCODING 260
SWIDTH 540 0
DWIDTH 6 0
BBX 6 12 0 -2
BITMAP
00
70
88
88
88
F8
88
88
88
88
10
18
ENDCHAR
STARTCHAR char261
ENCODING 261
SWIDTH 540 0
DWIDTH 6 0
BBX 6 12 0 -2
BITMAP
00
00
00
00
70
08
78
88
88
78
10
18
ENDCHAR
STARTCHAR char262
ENCODING 262
SWIDTH 540 0
DWIDTH 6 0
BBX 6 12 0 -2
BITMAP
00
10
20
70
88
80
80
80
88
70
00
00
ENDCHAR
STARTCHAR char263
ENCODING 263
SWIDTH 540 0
DWIDTH 6 0
BBX 6 12 0 -2
BITMAP
00
10
20
00
70
88
80
80
88
70
00
00
ENDCHAR
STARTCHAR char264
ENCODING 264
SWIDTH 540 0
DWIDTH 6 0
BBX 6 12 0 -2
BITMAP
00
20
50
70
88
80
80
80
88
70
00
00
ENDCHAR
STARTCHAR char265
ENCODING 265
SWIDTH 540 0
DWIDTH 6 0
BBX 6 12 0 -2
BITMAP
00
20
50
00
70
88
80
80
88
70
00
00
ENDCHAR
STARTCHAR char266
ENCODING 266
SWIDTH 540 0
DWIDTH 6 0
BBX 6 12 0 -2
BITMAP
00
20
00
70
88
80
80
80
88
70
00
00
ENDCHAR
STARTCHAR char267
ENCODING 267
SWIDTH 540 0
DWIDTH 6 0
BBX 6 12 0 -2
BITMAP
00
00
20
00
70
88
80
80
88
70
00
00
ENDCHAR
STARTCHAR char268
ENCODING 268
SWIDTH 540 0
DWIDTH 6 0
BBX 6 12 0 -2
BITMAP
00
50
20
70
88
80
80
80
88
70
00
00
ENDCHAR
STARTCHAR char269
ENCODING 269
SWIDTH 540 0
DWIDTH 6 0
BBX 6 12 0 -2
BITMAP
00
50
20
00
70
88
80
80
88
70
00
00
ENDCHAR
STARTCHAR char270
ENCODING 270
SWIDTH 540 0
DWIDTH 6 0
BBX 6 12 0 -2
BITMAP
00
50
20
F0
88
88
88
88
88
F0
00
00
ENDCHAR
STARTCHAR char271
ENCODING 271
SWIDTH 540 0
DWIDTH 6 0
BBX 6 12 0 -2
BITMAP
00
14
14
10
70
90
90
90
90
70
00
00
ENDCHAR
STARTCHAR char272
ENCODING 272
SWIDTH 540 0
DWIDTH 6 0
BBX 6 12 0 -2
BITMAP
00
70
48
48
48
E8
48
48
48
70
00
00
ENDCHAR
STARTCHAR char273
ENCODING 273
SWIDTH 540 0
DWIDTH 6 0
BBX 6 12 0 -2
BITMAP
00
10
38
10
70
90
90
90
90
70
00
00
ENDCHAR
STARTCHAR char274
ENCODING 274
SWIDTH 540 0
DWIDTH 6 0
BBX 6 12 0 -2
BITMAP
00
70
00
F8
80
80
F0
80
80
F8
00
00
ENDCHAR
STARTCHAR char275
ENCODING 275
SWIDTH 540 0
DWIDTH 6 0
BBX 6 12 0 -2
BITMAP
00
00
70
00
70
88
F8
80
88
70
00
00
ENDCHAR
STARTCHAR char276
ENCODING 276
SWIDTH 540 0
DWIDTH 6 0
BBX 6 12 0 -2
BITMAP
00
88
70
F8
80
80
F0
80
80
F8
00
00
ENDCHAR
STARTCHAR char277
ENCODING 277
SWIDTH 540 0
DWIDTH 6 0
BBX 6 12 0 -2
BITMAP
00
88
70
00
70
88
F8
80
88
70
00
00
ENDCHAR
STARTCHAR char278
ENCODING 278
SWIDTH 540 0
DWIDTH 6 0
BBX 6 12 0 -2
BITMAP
00
20
00
F8
80
80
F0
80
80
F8
00
00
ENDCHAR
STARTCHAR char279
ENCODING 279
SWIDTH 540 0
DWIDTH 6 0
BBX 6 12 0 -2
BITMAP
00
00
20
00
70
88
F8
80
88
70
00
00
ENDCHAR
STARTCHAR char280
ENCODING 280
SWIDTH 540 0
DWIDTH 6 0
BBX 6 12 0 -2
BITMAP
00
F8
80
80
80
F0
80
80
80
F8
10
18
ENDCHAR
STARTCHAR char281
ENCODING 281
SWIDTH 540 0
DWIDTH 6 0
BBX 6 12 0 -2
BITMAP
00
00
00
00
70
88
F8
80
88
70
20
30
ENDCHAR
STARTCHAR char282
ENCODING 282
SWIDTH 540 0
DWIDTH 6 0
BBX 6 12 0 -2
BITMAP
00
50
20
F8
80
80
F0
80
80
F8
00
00
ENDCHAR
STARTCHAR char283
ENCODING 283
SWIDTH 540 0
DWIDTH 6 0
BBX 6 12 0 -2
BITMAP
00
50
20
00
70
88
F8
80
88
70
00
00
ENDCHAR
STARTCHAR char284
ENCODING 284
SWIDTH 540 0
DWIDTH 6 0
BBX 6 12 0 -2
BITMAP
00
20
50
70
88
80
98
88
88
70
00
00
ENDCHAR
STARTCHAR char285
ENCODING 285
SWIDTH 540 0
DWIDTH 6 0
BBX 6 12 0 -2
BITMAP
00
20
50
00
78
88
88
88
78
08
88
70
ENDCHAR
STARTCHAR char286
ENCODING 286
SWIDTH 540 0
DWIDTH 6 0
BBX 6 12 0 -2
BITMAP
00
88
70
70
88
80
98
88
88
70
00
00
ENDCHAR
STARTCHAR char287
ENCODING 287
SWIDTH 540 0
DWIDTH 6 0
BBX 6 12 0 -2
BITMAP
00
88
70
00
78
88
88
88
78
08
88
70
ENDCHAR
STARTCHAR char288
ENCODING 288
SWIDTH 540 0
DWIDTH 6 0
BBX 6 12 0 -2
BITMAP
00
20
00
70
88
80
98
88
88
70
00
00
ENDCHAR
STARTCHAR char289
ENCODING 289
SWIDTH 540 0
DWIDTH 6 0
BBX 6 12 0 -2
BITMAP
00
00
20
00
78
88
88
88
78
08
88
70
ENDCHAR
STARTCHAR char290
ENCODING 290
SWIDTH 540 0
DWIDTH 6 0
BBX 6 12 0 -2
BITMAP
00
70
88
80
80
B8
88
88
88
70
20
40
ENDCHAR
STARTCHAR char291
ENCODING 291
SWIDTH 540 0
DWIDTH 6 0
BBX 6 12 0 -2
BITMAP
00
40
60
00
78
88
88
88
78
08
88
70
ENDCHAR
STARTCHAR char292
ENCODING 292
SWIDTH 540 0
DWIDTH 6 0
BBX 6 12 0 -2
BITMAP
00
20
50
00
88
88
F8
88
88
88
00
00
ENDCHAR
STARTCHAR char293
ENCODING 293
SWIDTH 540 0
DWIDTH 6 0
BBX 6 12 0 -2
BITMAP
00
90
A8
80
F0
88
88
88
88
88
00
00
ENDCHAR
STARTCHAR char294
ENCODING 294
SWIDTH 540 0
DWIDTH 6 0
BBX 6 12 0 -2
BITMAP
00
48
48
FC
48
78
48
48
48
48
00
00
ENDCHAR
STARTCHAR char295
ENCODING 295
SWIDTH 540 0
DWIDTH 6 0
BBX 6 12 0 -2
BITMAP
00
40
E0
40
70
48
48
48
48
48
00
00
ENDCHAR
STARTCHAR char296
ENCODING 296
SWIDTH 540 0
DWIDTH 6 0
BBX 6 12 0 -2
BITMAP
00
28
50
70
20
20
20
20
20
70
00
00
ENDCHAR
STARTCHAR char297
ENCODING 297
SWIDTH 540 0
DWIDTH 6 0
BBX 6 12 0 -2
BITMAP
00
28
50
00
60
20
20
20
20
30
00
00
ENDCHAR
STARTCHAR char298
ENCODING 298
SWIDTH 540 0
DWIDTH 6 0
BBX 6 12 0 -2
BITMAP
00
70
00
70
20
20
20
20
20
70
00
00
ENDCHAR
STARTCHAR char299
ENCODING 299
SWIDTH 540 0
DWIDTH 6 0
BBX 6 12 0 -2
BITMAP
00
00
70
00
60
20
20
20
20
30
00
00
ENDCHAR
STARTCHAR char300
ENCODING 300
SWIDTH 540 0
DWIDTH 6 0
BBX 6 12 0 -2
BITMAP
00
88
70
70
20
20
20
20
20
70
00
00
ENDCHAR
STARTCHAR char301
ENCODING 301
SWIDTH 540 0
DWIDTH 6 0
BBX 6 12 0 -2
BITMAP
00
88
70
00
60
20
20
20
20
30
00
00
ENDCHAR
STARTCHAR char302
ENCODING 302
SWIDTH 540 0
DWIDTH 6 0
BBX 6 12 0 -2
BITMAP
00
70
20
20
20
20
20
20
20
70
20
30
ENDCHAR
STARTCHAR char303
ENCODING 303
SWIDTH 540 0
DWIDTH 6 0
BBX 6 12 0 -2
BITMAP
00
00
20
00
60
20
20
20
20
70
20
30
ENDCHAR
STARTCHAR char304
ENCODING 304
SWIDTH 540 0
DWIDTH 6 0
BBX 6 12 0 -2
BITMAP
00
20
00
70
20
20
20
20
20
70
00
00
ENDCHAR
STARTCHAR char305
ENCODING 305
SWIDTH 540 0
DWIDTH 6 0
BBX 6 12 0 -2
BITMAP
00
00
00
00
60
20
20
20
20
30
00
00
ENDCHAR
STARTCHAR char306
ENCODING 306
SWIDTH 540 0
DWIDTH 6 0
BBX 6 12 0 -2
BITMAP
00
B8
88
88
88
88
88
88
A8
90
00
00
ENDCHAR
STARTCHAR char307
ENCODING 307
SWIDTH 540 0
DWIDTH 6 0
BBX 6 12 0 -2
BITMAP
00
00
48
00
58
48
48
48
48
48
08
30
ENDCHAR
STARTCHAR char308
ENCODING 308
SWIDTH 540 0
DWIDTH 6 0
BBX 6 12 0 -2
BITMAP
00
10
28
08
08
08
88
88
88
70
00
00
ENDCHAR
STARTCHAR char309
ENCODING 309
SWIDTH 540 0
DWIDTH 6 0
BBX 6 12 0 -2
BITMAP
00
20
50
00
20
20
20
20
20
20
20
40
ENDCHAR
STARTCHAR char310
ENCODING 310
SWIDTH 540 0
DWIDTH 6 0
BBX 6 12 0 -2
BITMAP
00
88
88
90
A0
C0
A0
90
88
88
20
60
ENDCHAR
STARTCHAR char311
ENCODING 311
SWIDTH 540 0
DWIDTH 6 0
BBX 6 12 0 -2
BITMAP
00
80
80
80
88
90
A0
D0
88
88
20
60
ENDCHAR
STARTCHAR char312
ENCODING 312
SWIDTH 540 0
DWIDTH 6 0
BBX 6 12 0 -2
BITMAP
00
00
00
00
00
88
90
E0
90
88
00
00
ENDCHAR
STARTCHAR char313
ENCODING 313
SWIDTH 540 0
DWIDTH 6 0
BBX 6 12 0 -2
BITMAP
00
90
A0
80
80
80
80
80
80
F8
00
00
ENDCHAR
STARTCHAR char314
ENCODING 314
SWIDTH 540 0
DWIDTH 6 0
BBX 6 12 0 -2
BITMAP
00
10
20
00
20
20
20
20
20
18
00
00
ENDCHAR
STARTCHAR char315
ENCODING 315
SWIDTH 540 0
DWIDTH 6 0
BBX 6 12 0 -2
BITMAP
00
80
80
80
80
80
80
80
80
F8
20
60
ENDCHAR
STARTCHAR char316
ENCODING 316
SWIDTH 540 0
DWIDTH 6 0
BBX 6 12 0 -2
BITMAP
00
20
20
20
20
20
20
20
20
18
20
60
ENDCHAR
STARTCHAR char317
ENCODING 317
SWIDTH 540 0
DWIDTH 6 0
BBX 6 12 0 -2
BITMAP
00
A8
90
80
80
80
80
80
80
F8
00
00
ENDCHAR
STARTCHAR char318
ENCODING 318
SWIDTH 540 0
DWIDTH 6 0
BBX 6 12 0 -2
BITMAP
00
50
20
00
20
20
20
20
20
18
00
00
ENDCHAR
STARTCHAR char319
ENCODING 319
SWIDTH 540 0
DWIDTH 6 0
BBX 6 12 0 -2
BITMAP
00
80
80
A0
80
80
80
80
80
F8
00
00
ENDCHAR
STARTCHAR char320
ENCODING 320
SWIDTH 540 0
DWIDTH 6 0
BBX 6 12 0 -2
BITMAP
00
20
20
28
20
20
20
20
20
18
00
00
ENDCHAR
STARTCHAR char321
ENCODING 321
SWIDTH 540 0
DWIDTH 6 0
BBX 6 12 0 -2
BITMAP
00
40
40
60
C0
40
40
40
40
78
00
00
ENDCHAR
STARTCHAR char322
ENCODING 322
SWIDTH 540 0
DWIDTH 6 0
BBX 6 12 0 -2
BITMAP
00
20
20
30
60
20
20
20
20
18
00
00
ENDCHAR
STARTCHAR char323
ENCODING 323
SWIDTH 540 0
DWIDTH 6 0
BBX 6 12 0 -2
BITMAP
00
10
20
88
C8
C8
A8
98
98
88
00
00
ENDCHAR
STARTCHAR char324
ENCODING 324
SWIDTH 540 0
DWIDTH 6 0
BBX 6 12 0 -2
BITMAP
00
10
20
00
F0
88
88
88
88
88
00
00
ENDCHAR
STARTCHAR char325
ENCODING 325
SWIDTH 540 0
DWIDTH 6 0
BBX 6 12 0 -2
BITMAP
00
88
C8
C8
A8
A8
A8
98
98
88
20
40
ENDCHAR
STARTCHAR char326
ENCODING 326
SWIDTH 540 0
DWIDTH 6 0
BBX 6 12 0 -2
BITMAP
00
00
00
00
F0
88
88
88
88
88
20
40
ENDCHAR
STARTCHAR char327
ENCODING 327
SWIDTH 540 0
DWIDTH 6 0
BBX 6 12 0 -2
BITMAP
00
50
20
88
C8
C8
A8
98
98
88
00
00
ENDCHAR
STARTCHAR char328
ENCODING 328
SWIDTH 540 0
DWIDTH 6 0
BBX 6 12 0 -2
BITMAP
00
50
20
00
F0
88
88
88
88
88
00
00
ENDCHAR
STARTCHAR char329
ENCODING 329
SWIDTH 540 0
DWIDTH 6 0
BBX 6 12 0 -2
BITMAP
00
C0
40
80
00
70
48
48
48
48
00
00
ENDCHAR
STARTCHAR char330
ENCODING 330
SWIDTH 540 0
DWIDTH 6 0
BBX 6 12 0 -2
BITMAP
00
88
C8
C8
A8
A8
A8
98
98
88
08
30
ENDCHAR
STARTCHAR char331
ENCODING 331
SWIDTH 540 0
DWIDTH 6 0
BBX 6 12 0 -2
BITMAP
00
00
00
00
F0
88
88
88
88
88
08
30
ENDCHAR
STARTCHAR char332
ENCODING 332
SWIDTH 540 0
DWIDTH 6 0
BBX 6 12 0 -2
BITMAP
00
70
00
70
88
88
88
88
88
70
00
00
ENDCHAR
STARTCHAR char333
ENCODING 333
SWIDTH 540 0
DWIDTH 6 0
BBX 6 12 0 -2
BITMAP
00
00
70
00
70
88
88
88
88
70
00
00
ENDCHAR
STARTCHAR char334
ENCODING 334
SWIDTH 540 0
DWIDTH 6 0
BBX 6 12 0 -2
BITMAP
00
88
70
70
88
88
88
88
88
70
00
00
ENDCHAR
STARTCHAR char335
ENCODING 335
SWIDTH 540 0
DWIDTH 6 0
BBX 6 12 0 -2
BITMAP
00
88
70
70
88
88
88
88
88
70
00
00
ENDCHAR
STARTCHAR char336
ENCODING 336
SWIDTH 540 0
DWIDTH 6 0
BBX 6 12 0 -2
BITMAP
00
48
90
70
88
88
88
88
88
70
00
00
ENDCHAR
STARTCHAR char337
ENCODING 337
SWIDTH 540 0
DWIDTH 6 0
BBX 6 12 0 -2
BITMAP
00
00
48
90
70
88
88
88
88
70
00
00
ENDCHAR
STARTCHAR char338
ENCODING 338
SWIDTH 540 0
DWIDTH 6 0
BBX 6 12 0 -2
BITMAP
00
78
A0
A0
A0
B0
A0
A0
A0
78
00
00
ENDCHAR
STARTCHAR char339
ENCODING 339
SWIDTH 540 0
DWIDTH 6 0
BBX 6 12 0 -2
BITMAP
00
00
00
00
70
A8
B8
A0
A8
70
00
00
ENDCHAR
STARTCHAR char340
ENCODING 340
SWIDTH 540 0
DWIDTH 6 0
BBX 6 12 0 -2
BITMAP
00
10
20
F0
88
88
F0
88
88
88
00
00
ENDCHAR
STARTCHAR char341
ENCODING 341
SWIDTH 540 0
DWIDTH 6 0
BBX 6 12 0 -2
BITMAP
00
10
20
00
F0
88
80
80
80
80
00
00
ENDCHAR
STARTCHAR char342
ENCODING 342
SWIDTH 540 0
DWIDTH 6 0
BBX 6 12 0 -2
BITMAP
00
70
48
48
48
70
48
48
48
48
20
C0
ENDCHAR
STARTCHAR char343
ENCODING 343
SWIDTH 540 0
DWIDTH 6 0
BBX 6 12 0 -2
BITMAP
00
00
00
00
70
48
40
40
40
40
20
C0
ENDCHAR
STARTCHAR char344
ENCODING 344
SWIDTH 540 0
DWIDTH 6 0
BBX 6 12 0 -2
BITMAP
00
50
20
F0
88
88
F0
88
88
88
00
00
ENDCHAR
STARTCHAR char345
ENCODING 345
SWIDTH 540 0
DWIDTH 6 0
BBX 6 12 0 -2
BITMAP
00
50
20
00
F0
88
80
80
80
80
00
00
ENDCHAR
STARTCHAR char346
ENCODING 346
SWIDTH 540 0
DWIDTH 6 0
BBX 6 12 0 -2
BITMAP
00
10
20
70
88
80
70
08
88
70
00
00
ENDCHAR
STARTCHAR char347
ENCODING 347
SWIDTH 540 0
DWIDTH 6 0
BBX 6 12 0 -2
BITMAP
00
10
20
00
70
80
70
08
88
70
00
00
ENDCHAR
STARTCHAR char348
ENCODING 348
SWIDTH 540 0
DWIDTH 6 0
BBX 6 12 0 -2
BITMAP
00
20
50
70
88
80
70
08
88
70
00
00
ENDCHAR
STARTCHAR char349
ENCODING 349
SWIDTH 540 0
DWIDTH 6 0
BBX 6 12 0 -2
BITMAP
00
20
50
00
70
80
70
08
88
70
00
00
ENDCHAR
STARTCHAR char350
ENCODING 350
SWIDTH 540 0
DWIDTH 6 0
BBX 6 12 0 -2
BITMAP
00
70
88
80
80
70
08
88
88
70
20
40
ENDCHAR
STARTCHAR char351
ENCODING 351
SWIDTH 540 0
DWIDTH 6 0
BBX 6 12 0 -2
BITMAP
00
00
00
00
70
80
70
08
88
70
20
40
ENDCHAR
STARTCHAR char352
ENCODING 352
SWIDTH 540 0
DWIDTH 6 0
BBX 6 12 0 -2
BITMAP
00
50
20
70
88
80
70
08
88
70
00
00
ENDCHAR
STARTCHAR char353
ENCODING 353
SWIDTH 540 0
DWIDTH 6 0
BBX 6 12 0 -2
BITMAP
00
50
20
00
70
80
70
08
88
70
00
00
ENDCHAR
STARTCHAR char354
ENCODING 354
SWIDTH 540 0
DWIDTH 6 0
BBX 6 12 0 -2
BITMAP
00
F8
20
20
20
20
20
20
20
20
10
60
ENDCHAR
STARTCHAR char355
ENCODING 355
SWIDTH 540 0
DWIDTH 6 0
BBX 6 12 0 -2
BITMAP
00
40
40
40
F0
40
40
40
40
30
10
60
ENDCHAR
STARTCHAR char356
ENCODING 356
SWIDTH 540 0
DWIDTH 6 0
BBX 6 12 0 -2
BITMAP
00
50
20
F8
20
20
20
20
20
20
00
00
ENDCHAR
STARTCHAR char357
ENCODING 357
SWIDTH 540 0
DWIDTH 6 0
BBX 6 12 0 -2
BITMAP
00
A0
40
40
F0
40
40
40
40
30
00
00
ENDCHAR
STARTCHAR char358
ENCODING 358
SWIDTH 540 0
DWIDTH 6 0
BBX 6 12 0 -2
BITMAP
00
F8
20
20
70
20
20
20
20
20
00
00
ENDCHAR
STARTCHAR char359
ENCODING 359
SWIDTH 540 0
DWIDTH 6 0
BBX 6 12 0 -2
BITMAP
00
40
40
40
F0
40
F0
40
40
30
00
00
ENDCHAR
STARTCHAR char360
ENCODING 360
SWIDTH 540 0
DWIDTH 6 0
BBX 6 12 0 -2
BITMAP
00
28
50
88
88
88
88
88
88
70
00
00
ENDCHAR
STARTCHAR char361
ENCODING 361
SWIDTH 540 0
DWIDTH 6 0
BBX 6 12 0 -2
BITMAP
00
28
50
00
88
88
88
88
88
78
00
00
ENDCHAR
STARTCHAR char362
ENCODING 362
SWIDTH 540 0
DWIDTH 6 0
BBX 6 12 0 -2
BITMAP
00
70
00
88
88
88
88
88
88
70
00
00
ENDCHAR
STARTCHAR char363
ENCODING 363
SWIDTH 540 0
DWIDTH 6 0
BBX 6 12 0 -2
BITMAP
00
00
70
00
88
88
88
88
88
78
00
00
ENDCHAR
STARTCHAR char364
ENCODING 364
SWIDTH 540 0
DWIDTH 6 0
BBX 6 12 0 -2
BITMAP
00
88
70
00
88
88
88
88
88
70
00
00
ENDCHAR
STARTCHAR char365
ENCODING 365
SWIDTH 540 0
DWIDTH 6 0
BBX 6 12 0 -2
BITMAP
00
88
70
00
88
88
88
88
88
78
00
00
ENDCHAR
STARTCHAR char366
ENCODING 366
SWIDTH 540 0
DWIDTH 6 0
BBX 6 12 0 -2
BITMAP
00
20
50
20
88
88
88
88
88
70
00
00
ENDCHAR
STARTCHAR char367
ENCODING 367
SWIDTH 540 0
DWIDTH 6 0
BBX 6 12 0 -2
BITMAP
00
20
50
20
88
88
88
88
88
78
00
00
ENDCHAR
STARTCHAR char368
ENCODING 368
SWIDTH 540 0
DWIDTH 6 0
BBX 6 12 0 -2
BITMAP
00
28
50
88
88
88
88
88
88
70
00
00
ENDCHAR
STARTCHAR char369
ENCODING 369
SWIDTH 540 0
DWIDTH 6 0
BBX 6 12 0 -2
BITMAP
00
28
50
00
88
88
88
88
88
78
00
00
ENDCHAR
STARTCHAR char370
ENCODING 370
SWIDTH 540 0
DWIDTH 6 0
BBX 6 12 0 -2
BITMAP
00
88
88
88
88
88
88
88
88
70
20
30
ENDCHAR
STARTCHAR char371
ENCODING 371
SWIDTH 540 0
DWIDTH 6 0
BBX 6 12 0 -2
BITMAP
00
00
00
00
88
88
88
88
88
78
10
18
ENDCHAR
STARTCHAR char372
ENCODING 372
SWIDTH 540 0
DWIDTH 6 0
BBX 6 12 0 -2
BITMAP
00
20
50
00
88
A8
A8
A8
50
50
00
00
ENDCHAR
STARTCHAR char373
ENCODING 373
SWIDTH 540 0
DWIDTH 6 0
BBX 6 12 0 -2
BITMAP
00
20
50
00
88
88
A8
A8
A8
50
00
00
ENDCHAR
STARTCHAR char374
ENCODING 374
SWIDTH 540 0
DWIDTH 6 0
BBX 6 12 0 -2
BITMAP
00
20
50
00
88
50
20
20
20
20
00
00
ENDCHAR
STARTCHAR char375
ENCODING 375
SWIDTH 540 0
DWIDTH 6 0
BBX 6 12 0 -2
BITMAP
00
20
50
00
88
88
88
88
78
08
88
70
ENDCHAR
STARTCHAR char376
ENCODING 376
SWIDTH 540 0
DWIDTH 6 0
BBX 6 12 0 -2
BITMAP
00
50
00
88
50
20
20
20
20
20
00
00
ENDCHAR
STARTCHAR char377
ENCODING 377
SWIDTH 540 0
DWIDTH 6 0
BBX 6 12 0 -2
BITMAP
00
10
20
F8
08
10
20
40
80
F8
00
00
ENDCHAR
STARTCHAR char378
ENCODING 378
SWIDTH 540 0
DWIDTH 6 0
BBX 6 12 0 -2
BITMAP
00
10
20
00
F8
10
20
20
40
F8
00
00
ENDCHAR
STARTCHAR char379
ENCODING 379
SWIDTH 540 0
DWIDTH 6 0
BBX 6 12 0 -2
BITMAP
00
20
00
F8
08
10
20
40
80
F8
00
00
ENDCHAR
STARTCHAR char380
ENCODING 380
SWIDTH 540 0
DWIDTH 6 0
BBX 6 12 0 -2
BITMAP
00
00
20
00
F8
10
20
20
40
F8
00
00
ENDCHAR
STARTCHAR char381
ENCODING 381
SWIDTH 540 0
DWIDTH 6 0
BBX 6 12 0 -2
BITMAP
00
50
20
F8
08
10
20
40
80
F8
00
00
ENDCHAR
STARTCHAR char382
ENCODING 382
SWIDTH 540 0
DWIDTH 6 0
BBX 6 12 0 -2
BITMAP
00
50
20
00
F8
10
20
20
40
F8
00
00
ENDCHAR
STARTCHAR char383
ENCODING 383
SWIDTH 540 0
DWIDTH 6 0
BBX 6 12 0 -2
BITMAP
00
20
40
40
C0
40
40
40
40
40
00
00
ENDCHAR
STARTCHAR char399
ENCODING 399
SWIDTH 540 0
DWIDTH 6 0
BBX 6 12 0 -2
BITMAP
00
70
88
08
F8
88
88
88
88
70
00
00
ENDCHAR
STARTCHAR char402
ENCODING 402
SWIDTH 540 0
DWIDTH 6 0
BBX 6 12 0 -2
BITMAP
00
10
28
20
70
20
20
20
20
A0
40
00
ENDCHAR
STARTCHAR char416
ENCODING 416
SWIDTH 540 0
DWIDTH 6 0
BBX 6 12 0 -2
BITMAP
00
64
94
98
90
90
90
90
90
60
00
00
ENDCHAR
STARTCHAR char417
ENCODING 417
SWIDTH 540 0
DWIDTH 6 0
BBX 6 12 0 -2
BITMAP
00
00
00
00
64
98
90
90
90
60
00
00
ENDCHAR
STARTCHAR char431
ENCODING 431
SWIDTH 540 0
DWIDTH 6 0
BBX 6 12 0 -2
BITMAP
00
94
94
98
90
90
90
90
90
60
00
00
ENDCHAR
STARTCHAR char432
ENCODING 432
SWIDTH 540 0
DWIDTH 6 0
BBX 6 12 0 -2
BITMAP
00
00
00
00
94
98
90
90
90
70
00
00
ENDCHAR
STARTCHAR char433
ENCODING 433
SWIDTH 540 0
DWIDTH 6 0
BBX 6 12 0 -2
BITMAP
00
F8
08
10
10
F8
40
40
80
F8
00
00
ENDCHAR
STARTCHAR char434
ENCODING 434
SWIDTH 540 0
DWIDTH 6 0
BBX 6 12 0 -2
BITMAP
00
00
00
00
F8
10
F8
20
40
F8
00
00
ENDCHAR
STARTCHAR char465
ENCODING 465
SWIDTH 540 0
DWIDTH 6 0
BBX 6 12 0 -2
BITMAP
00
50
20
70
88
88
88
88
88
70
00
00
ENDCHAR
STARTCHAR char466
ENCODING 466
SWIDTH 540 0
DWIDTH 6 0
BBX 6 12 0 -2
BITMAP
00
50
20
00
70
88
88
88
88
70
00
00
ENDCHAR
STARTCHAR char486
ENCODING 486
SWIDTH 540 0
DWIDTH 6 0
BBX 6 12 0 -2
BITMAP
00
50
20
70
80
80
B8
88
88
70
00
00
ENDCHAR
STARTCHAR char487
ENCODING 487
SWIDTH 540 0
DWIDTH 6 0
BBX 6 12 0 -2
BITMAP
00
50
20
00
78
88
88
78
08
08
88
70
ENDCHAR
STARTCHAR char506
ENCODING 506
SWIDTH 540 0
DWIDTH 6 0
BBX 6 12 0 -2
BITMAP
00
10
20
20
50
70
88
F8
88
88
00
00
ENDCHAR
STARTCHAR char507
ENCODING 507
SWIDTH 540 0
DWIDTH 6 0
BBX 6 12 0 -2
BITMAP
00
10
20
20
50
70
08
78
88
78
00
00
ENDCHAR
STARTCHAR char508
ENCODING 508
SWIDTH 540 0
DWIDTH 6 0
BBX 6 12 0 -2
BITMAP
00
10
20
78
A0
A0
F8
A0
A0
B8
00
00
ENDCHAR
STARTCHAR char509
ENCODING 509
SWIDTH 540 0
DWIDTH 6 0
BBX 6 12 0 -2
BITMAP
00
10
20
00
70
A8
28
78
A0
78
00
00
ENDCHAR
STARTCHAR char510
ENCODING 510
SWIDTH 540 0
DWIDTH 6 0
BBX 6 12 0 -2
BITMAP
00
10
20
70
98
A8
A8
A8
C8
70
00
00
ENDCHAR
STARTCHAR char511
ENCODING 511
SWIDTH 540 0
DWIDTH 6 0
BBX 6 12 0 -2
BITMAP
00
10
20
00
78
98
A8
A8
C8
F0
00
00
ENDCHAR
STARTCHAR char536
ENCODING 536
SWIDTH 540 0
DWIDTH 6 0
BBX 6 12 0 -2
BITMAP
00
70
88
80
80
70
08
08
88
70
20
40
ENDCHAR
STARTCHAR char537
ENCODING 537
SWIDTH 540 0
DWIDTH 6 0
BBX 6 12 0 -2
BITMAP
00
00
00
00
70
80
70
08
88
70
20
40
ENDCHAR
STARTCHAR char538
ENCODING 538
SWIDTH 540 0
DWIDTH 6 0
BBX 6 12 0 -2
BITMAP
00
F8
20
20
20
20
20
20
20
20
10
20
ENDCHAR
STARTCHAR char539
ENCODING 539
SWIDTH 540 0
DWIDTH 6 0
BBX 6 12 0 -2
BITMAP
00
40
40
40
F0
40
40
40
40
30
10
20
ENDCHAR
STARTCHAR char601
ENCODING 601
SWIDTH 540 0
DWIDTH 6 0
BBX 6 12 0 -2
BITMAP
00
00
00
00
70
08
F8
88
88
70
00
00
ENDCHAR
STARTCHAR char700
ENCODING 700
SWIDTH 540 0
DWIDTH 6 0
BBX 6 12 0 -2
BITMAP
00
30
10
20
00
00
00
00
00
00
00
00
ENDCHAR
STARTCHAR char700
ENCODING 701
SWIDTH 540 0
DWIDTH 6 0
BBX 6 12 0 -2
BITMAP
00
30
20
10
00
00
00
00
00
00
00
00
ENDCHAR
STARTCHAR char710
ENCODING 710
SWIDTH 540 0
DWIDTH 6 0
BBX 6 12 0 -2
BITMAP
00
20
50
00
00
00
00
00
00
00
00
00
ENDCHAR
STARTCHAR char711
ENCODING 711
SWIDTH 540 0
DWIDTH 6 0
BBX 6 12 0 -2
BITMAP
00
50
20
00
00
00
00
00
00
00
00
00
ENDCHAR
STARTCHAR char713
ENCODING 713
SWIDTH 540 0
DWIDTH 6 0
BBX 6 12 0 -2
BITMAP
00
70
00
00
00
00
00
00
00
00
00
00
ENDCHAR
STARTCHAR char726
ENCODING 726
SWIDTH 540 0
DWIDTH 6 0
BBX 6 12 0 -2
BITMAP
00
20
70
20
00
00
00
00
00
00
00
00
ENDCHAR
STARTCHAR char728
ENCODING 728
SWIDTH 540 0
DWIDTH 6 0
BBX 6 12 0 -2
BITMAP
00
88
70
00
00
00
00
00
00
00
00
00
ENDCHAR
STARTCHAR char729
ENCODING 729
SWIDTH 540 0
DWIDTH 6 0
BBX 6 12 0 -2
BITMAP
00
20
00
00
00
00
00
00
00
00
00
00
ENDCHAR
STARTCHAR char730
ENCODING 730
SWIDTH 540 0
DWIDTH 6 0
BBX 6 12 0 -2
BITMAP
00
20
50
20
00
00
00
00
00
00
00
00
ENDCHAR
STARTCHAR char731
ENCODING 731
SWIDTH 540 0
DWIDTH 6 0
BBX 6 12 0 -2
BITMAP
00
00
00
00
00
00
00
00
00
00
20
30
ENDCHAR
STARTCHAR char732
ENCODING 732
SWIDTH 540 0
DWIDTH 6 0
BBX 6 12 0 -2
BITMAP
00
28
50
00
00
00
00
00
00
00
00
00
ENDCHAR
STARTCHAR char733
ENCODING 733
SWIDTH 540 0
DWIDTH 6 0
BBX 6 12 0 -2
BITMAP
00
48
90
00
00
00
00
00
00
00
00
00
ENDCHAR
STARTCHAR char768
ENCODING 768
SWIDTH 540 0
DWIDTH 6 0
BBX 6 12 0 -2
BITMAP
00
20
10
00
00
00
00
00
00
00
00
00
ENDCHAR
STARTCHAR char769
ENCODING 769
SWIDTH 540 0
DWIDTH 6 0
BBX 6 12 0 -2
BITMAP
00
10
20
00
00
00
00
00
00
00
00
00
ENDCHAR
STARTCHAR char770
ENCODING 770
SWIDTH 540 0
DWIDTH 6 0
BBX 6 12 0 -2
BITMAP
00
20
50
00
00
00
00
00
00
00
00
00
ENDCHAR
STARTCHAR char771
ENCODING 771
SWIDTH 540 0
DWIDTH 6 0
BBX 6 12 0 -2
BITMAP
00
28
50
00
00
00
00
00
00
00
00
00
ENDCHAR
STARTCHAR char772
ENCODING 772
SWIDTH 540 0
DWIDTH 6 0
BBX 6 12 0 -2
BITMAP
00
70
00
00
00
00
00
00
00
00
00
00
ENDCHAR
STARTCHAR char773
ENCODING 773
SWIDTH 540 0
DWIDTH 6 0
BBX 6 12 0 -2
BITMAP
00
F8
00
00
00
00
00
00
00
00
00
00
ENDCHAR
STARTCHAR char774
ENCODING 774
SWIDTH 540 0
DWIDTH 6 0
BBX 6 12 0 -2
BITMAP
00
88
70
00
00
00
00
00
00
00
00
00
ENDCHAR
STARTCHAR char775
ENCODING 775
SWIDTH 540 0
DWIDTH 6 0
BBX 6 12 0 -2
BITMAP
00
20
00
00
00
00
00
00
00
00
00
00
ENDCHAR
STARTCHAR char776
ENCODING 776
SWIDTH 540 0
DWIDTH 6 0
BBX 6 12 0 -2
BITMAP
00
50
00
00
00
00
00
00
00
00
00
00
ENDCHAR
STARTCHAR char777
ENCODING 777
SWIDTH 540 0
DWIDTH 6 0
BBX 6 12 0 -2
BITMAP
00
60
10
20
00
00
00
00
00
00
00
00
ENDCHAR
STARTCHAR char778
ENCODING 778
SWIDTH 540 0
DWIDTH 6 0
BBX 6 12 0 -2
BITMAP
00
20
50
20
00
00
00
00
00
00
00
00
ENDCHAR
STARTCHAR char779
ENCODING 779
SWIDTH 540 0
DWIDTH 6 0
BBX 6 12 0 -2
BITMAP
00
48
90
00
00
00
00
00
00
00
00
00
ENDCHAR
STARTCHAR char780
ENCODING 780
SWIDTH 540 0
DWIDTH 6 0
BBX 6 12 0 -2
BITMAP
00
50
20
00
00
00
00
00
00
00
00
00
ENDCHAR
STARTCHAR char781
ENCODING 781
SWIDTH 540 0
DWIDTH 6 0
BBX 6 12 0 -2
BITMAP
00
20
20
00
00
00
00
00
00
00
00
00
ENDCHAR
STARTCHAR char782
ENCODING 782
SWIDTH 540 0
DWIDTH 6 0
BBX 6 12 0 -2
BITMAP
00
50
50
00
00
00
00
00
00
00
00
00
ENDCHAR
STARTCHAR char783
ENCODING 783
SWIDTH 540 0
DWIDTH 6 0
BBX 6 12 0 -2
BITMAP
00
90
48
00
00
00
00
00
00
00
00
00
ENDCHAR
STARTCHAR char784
ENCODING 784
SWIDTH 540 0
DWIDTH 6 0
BBX 6 12 0 -2
BITMAP
00
A8
70
00
00
00
00
00
00
00
00
00
ENDCHAR
STARTCHAR char785
ENCODING 785
SWIDTH 540 0
DWIDTH 6 0
BBX 6 12 0 -2
BITMAP
00
70
88
00
00
00
00
00
00
00
00
00
ENDCHAR
STARTCHAR char803
ENCODING 803
SWIDTH 540 0
DWIDTH 6 0
BBX 6 12 0 -2
BITMAP
00
00
00
00
00
00
00
00
00
00
00
20
ENDCHAR
STARTCHAR char804
ENCODING 804
SWIDTH 540 0
DWIDTH 6 0
BBX 6 12 0 -2
BITMAP
00
00
00
00
00
00
00
00
00
00
00
50
ENDCHAR
STARTCHAR char824
ENCODING 824
SWIDTH 540 0
DWIDTH 6 0
BBX 6 12 0 -2
BITMAP
00
00
10
10
20
20
20
20
40
40
00
00
ENDCHAR
STARTCHAR char832
ENCODING 832
SWIDTH 540 0
DWIDTH 6 0
BBX 6 12 0 -2
BITMAP
00
20
10
00
00
00
00
00
00
00
00
00
ENDCHAR
STARTCHAR char833
ENCODING 833
SWIDTH 540 0
DWIDTH 6 0
BBX 6 12 0 -2
BITMAP
00
10
20
00
00
00
00
00
00
00
00
00
ENDCHAR
STARTCHAR char884
ENCODING 884
SWIDTH 540 0
DWIDTH 6 0
BBX 6 12 0 -2
BITMAP
00
00
10
20
00
00
00
00
00
00
00
00
ENDCHAR
STARTCHAR char885
ENCODING 885
SWIDTH 540 0
DWIDTH 6 0
BBX 6 12 0 -2
BITMAP
00
00
00
00
00
00
00
00
00
00
10
20
ENDCHAR
STARTCHAR char890
ENCODING 890
SWIDTH 540 0
DWIDTH 6 0
BBX 6 12 0 -2
BITMAP
00
00
00
00
00
00
00
00
00
00
20
30
ENDCHAR
STARTCHAR char894
ENCODING 894
SWIDTH 540 0
DWIDTH 6 0
BBX 6 12 0 -2
BITMAP
00
00
00
20
70
20
00
00
30
20
40
00
ENDCHAR
STARTCHAR char900
ENCODING 900
SWIDTH 540 0
DWIDTH 6 0
BBX 6 12 0 -2
BITMAP
00
00
10
20
00
00
00
00
00
00
00
00
ENDCHAR
STARTCHAR char901
ENCODING 901
SWIDTH 540 0
DWIDTH 6 0
BBX 6 12 0 -2
BITMAP
00
00
10
A8
00
00
00
00
00
00
00
00
ENDCHAR
STARTCHAR char902
ENCODING 902
SWIDTH 540 0
DWIDTH 6 0
BBX 6 12 0 -2
BITMAP
00
58
A4
24
24
3C
24
24
24
24
00
00
ENDCHAR
STARTCHAR char903
ENCODING 903
SWIDTH 540 0
DWIDTH 6 0
BBX 6 12 0 -2
BITMAP
00
00
00
00
20
00
00
00
00
00
00
00
ENDCHAR
STARTCHAR char904
ENCODING 904
SWIDTH 540 0
DWIDTH 6 0
BBX 6 12 0 -2
BITMAP
00
78
A0
20
20
30
20
20
20
38
00
00
ENDCHAR
STARTCHAR char905
ENCODING 905
SWIDTH 540 0
DWIDTH 6 0
BBX 6 12 0 -2
BITMAP
00
68
A8
28
28
38
28
28
28
28
00
00
ENDCHAR
STARTCHAR char906
ENCODING 906
SWIDTH 540 0
DWIDTH 6 0
BBX 6 12 0 -2
BITMAP
00
5C
88
08
08
08
08
08
08
1C
00
00
ENDCHAR
STARTCHAR char908
ENCODING 908
SWIDTH 540 0
DWIDTH 6 0
BBX 6 12 0 -2
BITMAP
00
50
A8
28
28
28
28
28
28
10
00
00
ENDCHAR
STARTCHAR char909
ENCODING 909
SWIDTH 540 0
DWIDTH 6 0
BBX 6 12 0 -2
BITMAP
00
00
00
00
00
00
00
00
00
00
00
00
ENDCHAR
STARTCHAR char910
ENCODING 910
SWIDTH 540 0
DWIDTH 6 0
BBX 6 12 0 -2
BITMAP
00
54
94
14
14
08
08
08
08
08
00
00
ENDCHAR
STARTCHAR char911
ENCODING 911
SWIDTH 540 0
DWIDTH 6 0
BBX 6 12 0 -2
BITMAP
00
50
A8
28
28
28
28
28
10
38
00
00
ENDCHAR
STARTCHAR char912
ENCODING 912
SWIDTH 540 0
DWIDTH 6 0
BBX 6 12 0 -2
BITMAP
00
10
A8
00
20
20
20
20
28
10
00
00
ENDCHAR
STARTCHAR char913
ENCODING 913
SWIDTH 540 0
DWIDTH 6 0
BBX 6 12 0 -2
BITMAP
00
70
88
88
88
F8
88
88
88
88
00
00
ENDCHAR
STARTCHAR char914
ENCODING 914
SWIDTH 540 0
DWIDTH 6 0
BBX 6 12 0 -2
BITMAP
00
F0
88
88
88
F0
88
88
88
F0
00
00
ENDCHAR
STARTCHAR char915
ENCODING 915
SWIDTH 540 0
DWIDTH 6 0
BBX 6 12 0 -2
BITMAP
00
F8
80
80
80
80
80
80
80
80
00
00
ENDCHAR
STARTCHAR char916
ENCODING 916
SWIDTH 540 0
DWIDTH 6 0
BBX 6 12 0 -2
BITMAP
00
20
20
50
50
50
50
88
88
F8
00
00
ENDCHAR
STARTCHAR char917
ENCODING 917
SWIDTH 540 0
DWIDTH 6 0
BBX 6 12 0 -2
BITMAP
00
F8
80
80
80
F0
80
80
80
F8
00
00
ENDCHAR
STARTCHAR char918
ENCODING 918
SWIDTH 540 0
DWIDTH 6 0
BBX 6 12 0 -2
BITMAP
00
F8
08
10
10
20
40
40
80
F8
00
00
ENDCHAR
STARTCHAR char919
ENCODING 919
SWIDTH 540 0
DWIDTH 6 0
BBX 6 12 0 -2
BITMAP
00
88
88
88
88
F8
88
88
88
88
00
00
ENDCHAR
STARTCHAR char920
ENCODING 920
SWIDTH 540 0
DWIDTH 6 0
BBX 6 12 0 -2
BITMAP
00
70
88
88
88
F8
88
88
88
70
00
00
ENDCHAR
STARTCHAR char921
ENCODING 921
SWIDTH 540 0
DWIDTH 6 0
BBX 6 12 0 -2
BITMAP
00
70
20
20
20
20
20
20
20
70
00
00
ENDCHAR
STARTCHAR char922
ENCODING 922
SWIDTH 540 0
DWIDTH 6 0
BBX 6 12 0 -2
BITMAP
00
88
88
90
A0
C0
A0
90
88
88
00
00
ENDCHAR
STARTCHAR char923
ENCODING 923
SWIDTH 540 0
DWIDTH 6 0
BBX 6 12 0 -2
BITMAP
00
20
20
50
50
50
88
88
88
88
00
00
ENDCHAR
STARTCHAR char924
ENCODING 924
SWIDTH 540 0
DWIDTH 6 0
BBX 6 12 0 -2
BITMAP
00
88
88
D8
A8
A8
88
88
88
88
00
00
ENDCHAR
STARTCHAR char925
ENCODING 925
SWIDTH 540 0
DWIDTH 6 0
BBX 6 12 0 -2
BITMAP
00
88
C8
C8
A8
A8
A8
98
98
88
00
00
ENDCHAR
STARTCHAR char926
ENCODING 926
SWIDTH 540 0
DWIDTH 6 0
BBX 6 12 0 -2
BITMAP
00
F8
00
00
00
70
00
00
00
F8
00
00
ENDCHAR
STARTCHAR char927
ENCODING 927
SWIDTH 540 0
DWIDTH 6 0
BBX 6 12 0 -2
BITMAP
00
70
88
88
88
88
88
88
88
70
00
00
ENDCHAR
STARTCHAR char928
ENCODING 928
SWIDTH 540 0
DWIDTH 6 0
BBX 6 12 0 -2
BITMAP
00
F8
88
88
88
88
88
88
88
88
00
00
ENDCHAR
STARTCHAR char929
ENCODING 929
SWIDTH 540 0
DWIDTH 6 0
BBX 6 12 0 -2
BITMAP
00
F0
88
88
88
F0
80
80
80
80
00
00
ENDCHAR
STARTCHAR char931
ENCODING 931
SWIDTH 540 0
DWIDTH 6 0
BBX 6 12 0 -2
BITMAP
00
F8
80
40
20
10
20
40
80
F8
00
00
ENDCHAR
STARTCHAR char932
ENCODING 932
SWIDTH 540 0
DWIDTH 6 0
BBX 6 12 0 -2
BITMAP
00
F8
20
20
20
20
20
20
20
20
00
00
ENDCHAR
STARTCHAR char933
ENCODING 933
SWIDTH 540 0
DWIDTH 6 0
BBX 6 12 0 -2
BITMAP
00
88
88
50
50
20
20
20
20
20
00
00
ENDCHAR
STARTCHAR char934
ENCODING 934
SWIDTH 540 0
DWIDTH 6 0
BBX 6 12 0 -2
BITMAP
00
20
70
A8
A8
A8
A8
A8
70
20
00
00
ENDCHAR
STARTCHAR char935
ENCODING 935
SWIDTH 540 0
DWIDTH 6 0
BBX 6 12 0 -2
BITMAP
00
88
88
88
50
20
50
88
88
88
00
00
ENDCHAR
STARTCHAR char936
ENCODING 936
SWIDTH 540 0
DWIDTH 6 0
BBX 6 12 0 -2
BITMAP
00
A8
A8
A8
A8
A8
70
20
20
20
00
00
ENDCHAR
STARTCHAR char937
ENCODING 937
SWIDTH 540 0
DWIDTH 6 0
BBX 6 12 0 -2
BITMAP
00
70
88
88
88
88
88
88
50
D8
00
00
ENDCHAR
STARTCHAR char938
ENCODING 938
SWIDTH 540 0
DWIDTH 6 0
BBX 6 12 0 -2
BITMAP
00
50
00
70
20
20
20
20
20
70
00
00
ENDCHAR
STARTCHAR char939
ENCODING 939
SWIDTH 540 0
DWIDTH 6 0
BBX 6 12 0 -2
BITMAP
00
88
00
88
88
50
20
20
20
20
00
00
ENDCHAR
STARTCHAR char940
ENCODING 940
SWIDTH 540 0
DWIDTH 6 0
BBX 6 12 0 -2
BITMAP
00
10
20
00
70
88
88
88
88
78
00
00
ENDCHAR
STARTCHAR char941
ENCODING 941
SWIDTH 540 0
DWIDTH 6 0
BBX 6 12 0 -2
BITMAP
00
10
20
00
70
88
60
80
88
70
00
00
ENDCHAR
STARTCHAR char942
ENCODING 942
SWIDTH 540 0
DWIDTH 6 0
BBX 6 12 0 -2
BITMAP
00
10
20
00
F0
88
88
88
88
88
08
08
ENDCHAR
STARTCHAR char943
ENCODING 943
SWIDTH 540 0
DWIDTH 6 0
BBX 6 12 0 -2
BITMAP
00
20
40
00
40
40
40
40
40
30
00
00
ENDCHAR
STARTCHAR char944
ENCODING 944
SWIDTH 540 0
DWIDTH 6 0
BBX 6 12 0 -2
BITMAP
00
10
A8
00
88
88
88
88
88
70
00
00
ENDCHAR
STARTCHAR char945
ENCODING 945
SWIDTH 540 0
DWIDTH 6 0
BBX 6 12 0 -2
BITMAP
00
00
00
00
64
98
88
88
98
64
00
00
ENDCHAR
STARTCHAR char946
ENCODING 946
SWIDTH 540 0
DWIDTH 6 0
BBX 6 12 0 -2
BITMAP
00
60
90
90
F0
88
88
88
88
F0
80
80
ENDCHAR
STARTCHAR char947
ENCODING 947
SWIDTH 540 0
DWIDTH 6 0
BBX 6 12 0 -2
BITMAP
00
00
00
00
88
88
50
50
20
20
20
20
ENDCHAR
STARTCHAR char948
ENCODING 948
SWIDTH 540 0
DWIDTH 6 0
BBX 6 12 0 -2
BITMAP
00
00
70
88
80
60
50
88
88
70
00
00
ENDCHAR
STARTCHAR char949
ENCODING 949
SWIDTH 540 0
DWIDTH 6 0
BBX 6 12 0 -2
BITMAP
00
00
00
00
70
88
60
80
88
70
00
00
ENDCHAR
STARTCHAR char950
ENCODING 950
SWIDTH 540 0
DWIDTH 6 0
BBX 6 12 0 -2
BITMAP
00
00
F8
10
20
40
40
80
80
70
08
30
ENDCHAR
STARTCHAR char951
ENCODING 951
SWIDTH 540 0
DWIDTH 6 0
BBX 6 12 0 -2
BITMAP
00
00
00
00
F0
88
88
88
88
88
08
08
ENDCHAR
STARTCHAR char952
ENCODING 952
SWIDTH 540 0
DWIDTH 6 0
BBX 6 12 0 -2
BITMAP
00
00
00
00
70
88
F8
88
88
70
00
00
ENDCHAR
STARTCHAR char953
ENCODING 953
SWIDTH 540 0
DWIDTH 6 0
BBX 6 12 0 -2
BITMAP
00
00
00
00
40
40
40
40
40
20
00
00
ENDCHAR
STARTCHAR char954
ENCODING 954
SWIDTH 540 0
DWIDTH 6 0
BBX 6 12 0 -2
BITMAP
00
00
00
00
88
90
E0
90
88
88
00
00
ENDCHAR
STARTCHAR char955
ENCODING 955
SWIDTH 540 0
DWIDTH 6 0
BBX 6 12 0 -2
BITMAP
00
00
00
00
70
88
68
98
88
88
00
00
ENDCHAR
STARTCHAR char956
ENCODING 956
SWIDTH 540 0
DWIDTH 6 0
BBX 6 12 0 -2
BITMAP
00
00
00
00
88
88
88
D8
A8
88
80
80
ENDCHAR
STARTCHAR char957
ENCODING 957
SWIDTH 540 0
DWIDTH 6 0
BBX 6 12 0 -2
BITMAP
00
00
00
00
88
88
88
50
50
20
00
00
ENDCHAR
STARTCHAR char958
ENCODING 958
SWIDTH 540 0
DWIDTH 6 0
BBX 6 12 0 -2
BITMAP
00
00
00
F8
20
40
30
40
80
70
08
30
ENDCHAR
STARTCHAR char959
ENCODING 959
SWIDTH 540 0
DWIDTH 6 0
BBX 6 12 0 -2
BITMAP
00
00
00
00
70
88
88
88
88
70
00
00
ENDCHAR
STARTCHAR char960
ENCODING 960
SWIDTH 540 0
DWIDTH 6 0
BBX 6 12 0 -2
BITMAP
00
00
00
00
F8
50
50
50
50
50
00
00
ENDCHAR
STARTCHAR char961
ENCODING 961
SWIDTH 540 0
DWIDTH 6 0
BBX 6 12 0 -2
BITMAP
00
00
00
00
70
88
88
88
88
F0
80
80
ENDCHAR
STARTCHAR char962
ENCODING 962
SWIDTH 540 0
DWIDTH 6 0
BBX 6 12 0 -2
BITMAP
00
00
00
00
70
88
80
80
80
70
08
30
ENDCHAR
STARTCHAR char963
ENCODING 963
SWIDTH 540 0
DWIDTH 6 0
BBX 6 12 0 -2
BITMAP
00
00
00
00
78
90
88
88
88
70
00
00
ENDCHAR
STARTCHAR char964
ENCODING 964
SWIDTH 540 0
DWIDTH 6 0
BBX 6 12 0 -2
BITMAP
00
00
00
00
F8
20
20
20
20
18
00
00
ENDCHAR
STARTCHAR char965
ENCODING 965
SWIDTH 540 0
DWIDTH 6 0
BBX 6 12 0 -2
BITMAP
00
00
00
00
88
88
88
88
88
70
00
00
ENDCHAR
STARTCHAR char966
ENCODING 966
SWIDTH 540 0
DWIDTH 6 0
BBX 6 12 0 -2
BITMAP
00
00
00
00
50
A8
A8
A8
A8
70
20
20
ENDCHAR
STARTCHAR char967
ENCODING 967
SWIDTH 540 0
DWIDTH 6 0
BBX 6 12 0 -2
BITMAP
00
00
00
00
88
50
50
20
20
50
50
88
ENDCHAR
STARTCHAR char968
ENCODING 968
SWIDTH 540 0
DWIDTH 6 0
BBX 6 12 0 -2
BITMAP
00
00
00
00
A8
A8
A8
A8
A8
70
20
20
ENDCHAR
STARTCHAR char969
ENCODING 969
SWIDTH 540 0
DWIDTH 6 0
BBX 6 12 0 -2
BITMAP
00
00
00
00
88
88
A8
A8
A8
50
00
00
ENDCHAR
STARTCHAR char970
ENCODING 970
SWIDTH 540 0
DWIDTH 6 0
BBX 6 12 0 -2
BITMAP
00
00
88
00
20
20
20
20
28
10
00
00
ENDCHAR
STARTCHAR char971
ENCODING 971
SWIDTH 540 0
DWIDTH 6 0
BBX 6 12 0 -2
BITMAP
00
00
88
00
88
88
88
88
88
70
00
00
ENDCHAR
STARTCHAR char972
ENCODING 972
SWIDTH 540 0
DWIDTH 6 0
BBX 6 12 0 -2
BITMAP
00
10
20
00
70
88
88
88
88
70
00
00
ENDCHAR
STARTCHAR char973
ENCODING 973
SWIDTH 540 0
DWIDTH 6 0
BBX 6 12 0 -2
BITMAP
00
10
20
00
88
88
88
88
88
70
00
00
ENDCHAR
STARTCHAR char974
ENCODING 974
SWIDTH 540 0
DWIDTH 6 0
BBX 6 12 0 -2
BITMAP
00
10
20
00
88
88
A8
A8
A8
50
00
00
ENDCHAR
STARTCHAR char976
ENCODING 976
SWIDTH 540 0
DWIDTH 6 0
BBX 6 12 0 -2
BITMAP
00
00
60
90
A0
F0
88
88
88
70
00
00
ENDCHAR
STARTCHAR char977
ENCODING 977
SWIDTH 540 0
DWIDTH 6 0
BBX 6 12 0 -2
BITMAP
00
00
00
60
90
78
10
10
90
60
00
00
ENDCHAR
STARTCHAR char978
ENCODING 978
SWIDTH 540 0
DWIDTH 6 0
BBX 6 12 0 -2
BITMAP
00
00
50
A8
20
20
20
20
20
20
00
00
ENDCHAR
STARTCHAR char979
ENCODING 979
SWIDTH 540 0
DWIDTH 6 0
BBX 6 12 0 -2
BITMAP
00
00
50
A8
20
A0
A0
20
20
20
00
00
ENDCHAR
STARTCHAR char980
ENCODING 980
SWIDTH 540 0
DWIDTH 6 0
BBX 6 12 0 -2
BITMAP
00
88
00
50
A8
20
20
20
20
20
00
00
ENDCHAR
STARTCHAR char981
ENCODING 981
SWIDTH 540 0
DWIDTH 6 0
BBX 6 12 0 -2
BITMAP
00
00
20
20
70
A8
A8
A8
A8
70
20
20
ENDCHAR
STARTCHAR char982
ENCODING 982
SWIDTH 540 0
DWIDTH 6 0
BBX 6 12 0 -2
BITMAP
00
00
00
00
F8
88
A8
A8
A8
50
00
00
ENDCHAR
STARTCHAR char983
ENCODING 983
SWIDTH 540 0
DWIDTH 6 0
BBX 6 12 0 -2
BITMAP
00
00
10
20
88
50
20
20
50
88
08
70
ENDCHAR
STARTCHAR char986
ENCODING 986
SWIDTH 540 0
DWIDTH 6 0
BBX 6 12 0 -2
BITMAP
00
00
00
30
48
80
80
80
80
70
08
10
ENDCHAR
STARTCHAR char987
ENCODING 987
SWIDTH 540 0
DWIDTH 6 0
BBX 6 12 0 -2
BITMAP
00
00
00
08
70
80
80
80
80
70
08
30
ENDCHAR
STARTCHAR char988
ENCODING 988
SWIDTH 540 0
DWIDTH 6 0
BBX 6 12 0 -2
BITMAP
00
F8
80
80
80
F0
80
80
80
80
00
00
ENDCHAR
STARTCHAR char989
ENCODING 989
SWIDTH 540 0
DWIDTH 6 0
BBX 6 12 0 -2
BITMAP
00
00
00
00
78
40
40
40
70
40
40
40
ENDCHAR
STARTCHAR char990
ENCODING 990
SWIDTH 540 0
DWIDTH 6 0
BBX 6 12 0 -2
BITMAP
00
80
80
88
98
A8
A8
C8
88
08
00
00
ENDCHAR
STARTCHAR char991
ENCODING 991
SWIDTH 540 0
DWIDTH 6 0
BBX 6 12 0 -2
BITMAP
00
20
20
40
40
80
F8
08
10
10
20
20
ENDCHAR
STARTCHAR char992
ENCODING 992
SWIDTH 540 0
DWIDTH 6 0
BBX 6 12 0 -2
BITMAP
00
00
20
20
50
50
50
98
A8
A8
00
00
ENDCHAR
STARTCHAR char993
ENCODING 993
SWIDTH 540 0
DWIDTH 6 0
BBX 6 12 0 -2
BITMAP
00
C0
20
10
10
30
50
28
08
08
08
08
ENDCHAR
STARTCHAR char1008
ENCODING 1008
SWIDTH 540 0
DWIDTH 6 0
BBX 6 12 0 -2
BITMAP
00
00
00
00
88
50
50
60
60
98
00
00
ENDCHAR
STARTCHAR char1009
ENCODING 1009
SWIDTH 540 0
DWIDTH 6 0
BBX 6 12 0 -2
BITMAP
00
00
00
70
88
88
88
88
88
F0
80
70
ENDCHAR
STARTCHAR char1010
ENCODING 1010
SWIDTH 540 0
DWIDTH 6 0
BBX 6 12 0 -2
BITMAP
00
00
00
00
70
88
80
80
88
70
00
00
ENDCHAR
STARTCHAR char1011
ENCODING 1011
SWIDTH 540 0
DWIDTH 6 0
BBX 6 12 0 -2
BITMAP
00
00
10
00
30
10
10
10
10
10
10
60
ENDCHAR
STARTCHAR char1012
ENCODING 1012
SWIDTH 540 0
DWIDTH 6 0
BBX 6 12 0 -2
BITMAP
00
70
88
88
88
F8
88
88
88
70
00
00
ENDCHAR
STARTCHAR char1013
ENCODING 1013
SWIDTH 540 0
DWIDTH 6 0
BBX 6 12 0 -2
BITMAP
00
00
00
00
78
80
70
80
80
78
00
00
ENDCHAR
STARTCHAR char1025
ENCODING 1025
SWIDTH 540 0
DWIDTH 6 0
BBX 6 12 0 -2
BITMAP
00
50
00
F8
80
80
F0
80
80
F8
00
00
ENDCHAR
STARTCHAR char1026
ENCODING 1026
SWIDTH 540 0
DWIDTH 6 0
BBX 6 12 0 -2
BITMAP
00
E0
40
40
40
70
48
48
48
48
08
30
ENDCHAR
STARTCHAR char1027
ENCODING 1027
SWIDTH 540 0
DWIDTH 6 0
BBX 6 12 0 -2
BITMAP
00
10
20
F8
80
80
80
80
80
80
00
00
ENDCHAR
STARTCHAR char1028
ENCODING 1028
SWIDTH 540 0
DWIDTH 6 0
BBX 6 12 0 -2
BITMAP
00
70
88
80
80
E0
80
80
88
70
00
00
ENDCHAR
STARTCHAR char1029
ENCODING 1029
SWIDTH 540 0
DWIDTH 6 0
BBX 6 12 0 -2
BITMAP
00
70
88
80
80
70
08
08
88
70
00
00
ENDCHAR
STARTCHAR char1030
ENCODING 1030
SWIDTH 540 0
DWIDTH 6 0
BBX 6 12 0 -2
BITMAP
00
70
20
20
20
20
20
20
20
70
00
00
ENDCHAR
STARTCHAR char1031
ENCODING 1031
SWIDTH 540 0
DWIDTH 6 0
BBX 6 12 0 -2
BITMAP
00
50
00
70
20
20
20
20
20
70
00
00
ENDCHAR
STARTCHAR char1032
ENCODING 1032
SWIDTH 540 0
DWIDTH 6 0
BBX 6 12 0 -2
BITMAP
00
00
38
08
08
08
08
88
88
70
00
00
ENDCHAR
STARTCHAR char1033
ENCODING 1033
SWIDTH 540 0
DWIDTH 6 0
BBX 6 12 0 -2
BITMAP
00
10
30
30
58
54
94
94
94
98
00
00
ENDCHAR
STARTCHAR char1034
ENCODING 1034
SWIDTH 540 0
DWIDTH 6 0
BBX 6 12 0 -2
BITMAP
00
A0
A0
A0
F0
A8
A8
A8
A8
B0
00
00
ENDCHAR
STARTCHAR char1035
ENCODING 1035
SWIDTH 540 0
DWIDTH 6 0
BBX 6 12 0 -2
BITMAP
00
E0
40
40
70
48
48
48
48
48
00
00
ENDCHAR
STARTCHAR char1036
ENCODING 1036
SWIDTH 540 0
DWIDTH 6 0
BBX 6 12 0 -2
BITMAP
00
10
A8
88
90
90
E0
90
88
88
00
00
ENDCHAR
STARTCHAR char1038
ENCODING 1038
SWIDTH 540 0
DWIDTH 6 0
BBX 6 12 0 -2
BITMAP
00
50
20
88
88
50
50
20
40
80
00
00
ENDCHAR
STARTCHAR char1039
ENCODING 1039
SWIDTH 540 0
DWIDTH 6 0
BBX 6 12 0 -2
BITMAP
00
88
88
88
88
88
88
88
88
F8
20
00
ENDCHAR
STARTCHAR char1040
ENCODING 1040
SWIDTH 540 0
DWIDTH 6 0
BBX 6 12 0 -2
BITMAP
00
70
88
88
88
F8
88
88
88
88
00
00
ENDCHAR
STARTCHAR char1041
ENCODING 1041
SWIDTH 540 0
DWIDTH 6 0
BBX 6 12 0 -2
BITMAP
00
F8
80
80
F0
88
88
88
88
F0
00
00
ENDCHAR
STARTCHAR char1042
ENCODING 1042
SWIDTH 540 0
DWIDTH 6 0
BBX 6 12 0 -2
BITMAP
00
F0
88
88
88
F0
88
88
88
F0
00
00
ENDCHAR
STARTCHAR char1043
ENCODING 1043
SWIDTH 540 0
DWIDTH 6 0
BBX 6 12 0 -2
BITMAP
00
F8
80
80
80
80
80
80
80
80
00
00
ENDCHAR
STARTCHAR char1044
ENCODING 1044
SWIDTH 540 0
DWIDTH 6 0
BBX 6 12 0 -2
BITMAP
00
18
28
28
28
28
48
48
48
F8
88
00
ENDCHAR
STARTCHAR char1045
ENCODING 1045
SWIDTH 540 0
DWIDTH 6 0
BBX 6 12 0 -2
BITMAP
00
F8
80
80
80
F0
80
80
80
F8
00
00
ENDCHAR
STARTCHAR char1046
ENCODING 1046
SWIDTH 540 0
DWIDTH 6 0
BBX 6 12 0 -2
BITMAP
00
A8
A8
A8
A8
70
A8
A8
A8
A8
00
00
ENDCHAR
STARTCHAR char1047
ENCODING 1047
SWIDTH 540 0
DWIDTH 6 0
BBX 6 12 0 -2
BITMAP
00
70
88
08
08
30
08
08
88
70
00
00
ENDCHAR
STARTCHAR char1048
ENCODING 1048
SWIDTH 540 0
DWIDTH 6 0
BBX 6 12 0 -2
BITMAP
00
88
98
98
A8
A8
A8
C8
C8
88
00
00
ENDCHAR
STARTCHAR char1049
ENCODING 1049
SWIDTH 540 0
DWIDTH 6 0
BBX 6 12 0 -2
BITMAP
00
50
20
88
98
98
A8
C8
C8
88
00
00
ENDCHAR
STARTCHAR char1050
ENCODING 1050
SWIDTH 540 0
DWIDTH 6 0
BBX 6 12 0 -2
BITMAP
00
88
88
90
A0
C0
A0
90
88
88
00
00
ENDCHAR
STARTCHAR char1051
ENCODING 1051
SWIDTH 540 0
DWIDTH 6 0
BBX 6 12 0 -2
BITMAP
00
38
48
48
48
48
48
48
48
88
00
00
ENDCHAR
STARTCHAR char1052
ENCODING 1052
SWIDTH 540 0
DWIDTH 6 0
BBX 6 12 0 -2
BITMAP
00
88
D8
D8
A8
A8
88
88
88
88
00
00
ENDCHAR
STARTCHAR char1053
ENCODING 1053
SWIDTH 540 0
DWIDTH 6 0
BBX 6 12 0 -2
BITMAP
00
88
88
88
88
F8
88
88
88
88
00
00
ENDCHAR
STARTCHAR char1054
ENCODING 1054
SWIDTH 540 0
DWIDTH 6 0
BBX 6 12 0 -2
BITMAP
00
70
88
88
88
88
88
88
88
70
00
00
ENDCHAR
STARTCHAR char1055
ENCODING 1055
SWIDTH 540 0
DWIDTH 6 0
BBX 6 12 0 -2
BITMAP
00
F8
88
88
88
88
88
88
88
88
00
00
ENDCHAR
STARTCHAR char1056
ENCODING 1056
SWIDTH 540 0
DWIDTH 6 0
BBX 6 12 0 -2
BITMAP
00
F0
88
88
88
F0
80
80
80
80
00
00
ENDCHAR
STARTCHAR char1057
ENCODING 1057
SWIDTH 540 0
DWIDTH 6 0
BBX 6 12 0 -2
BITMAP
00
70
88
80
80
80
80
80
88
70
00
00
ENDCHAR
STARTCHAR char1058
ENCODING 1058
SWIDTH 540 0
DWIDTH 6 0
BBX 6 12 0 -2
BITMAP
00
F8
20
20
20
20
20
20
20
20
00
00
ENDCHAR
STARTCHAR char1059
ENCODING 1059
SWIDTH 540 0
DWIDTH 6 0
BBX 6 12 0 -2
BITMAP
00
88
88
50
20
20
40
40
80
80
00
00
ENDCHAR
STARTCHAR char1060
ENCODING 1060
SWIDTH 540 0
DWIDTH 6 0
BBX 6 12 0 -2
BITMAP
00
20
70
A8
A8
A8
A8
A8
70
20
00
00
ENDCHAR
STARTCHAR char1061
ENCODING 1061
SWIDTH 540 0
DWIDTH 6 0
BBX 6 12 0 -2
BITMAP
00
88
88
88
50
20
50
88
88
88
00
00
ENDCHAR
STARTCHAR char1062
ENCODING 1062
SWIDTH 540 0
DWIDTH 6 0
BBX 6 12 0 -2
BITMAP
00
90
90
90
90
90
90
90
90
F8
08
08
ENDCHAR
STARTCHAR char1063
ENCODING 1063
SWIDTH 540 0
DWIDTH 6 0
BBX 6 12 0 -2
BITMAP
00
88
88
88
88
78
08
08
08
08
00
00
ENDCHAR
STARTCHAR char1064
ENCODING 1064
SWIDTH 540 0
DWIDTH 6 0
BBX 6 12 0 -2
BITMAP
00
A8
A8
A8
A8
A8
A8
A8
A8
F8
00
00
ENDCHAR
STARTCHAR char1065
ENCODING 1065
SWIDTH 540 0
DWIDTH 6 0
BBX 6 12 0 -2
BITMAP
00
A8
A8
A8
A8
A8
A8
A8
A8
F8
08
08
ENDCHAR
STARTCHAR char1066
ENCODING 1066
SWIDTH 540 0
DWIDTH 6 0
BBX 6 12 0 -2
BITMAP
00
C0
40
40
70
48
48
48
48
70
00
00
ENDCHAR
STARTCHAR char1067
ENCODING 1067
SWIDTH 540 0
DWIDTH 6 0
BBX 6 12 0 -2
BITMAP
00
88
88
88
E8
98
98
98
98
E8
00
00
ENDCHAR
STARTCHAR char1068
ENCODING 1068
SWIDTH 540 0
DWIDTH 6 0
BBX 6 12 0 -2
BITMAP
00
40
40
40
70
48
48
48
48
70
00
00
ENDCHAR
STARTCHAR char1069
ENCODING 1069
SWIDTH 540 0
DWIDTH 6 0
BBX 6 12 0 -2
BITMAP
00
70
88
08
08
38
08
08
88
70
00
00
ENDCHAR
STARTCHAR char1070
ENCODING 1070
SWIDTH 540 0
DWIDTH 6 0
BBX 6 12 0 -2
BITMAP
00
90
A8
A8
A8
E8
A8
A8
A8
90
00
00
ENDCHAR
STARTCHAR char1071
ENCODING 1071
SWIDTH 540 0
DWIDTH 6 0
BBX 6 12 0 -2
BITMAP
00
78
88
88
88
78
88
88
88
88
00
00
ENDCHAR
STARTCHAR char1072
ENCODING 1072
SWIDTH 540 0
DWIDTH 6 0
BBX 6 12 0 -2
BITMAP
00
00
00
00
70
08
78
88
88
78
00
00
ENDCHAR
STARTCHAR char1073
ENCODING 1073
SWIDTH 540 0
DWIDTH 6 0
BBX 6 12 0 -2
BITMAP
00
78
80
80
70
88
88
88
88
70
00
00
ENDCHAR
STARTCHAR char1074
ENCODING 1074
SWIDTH 540 0
DWIDTH 6 0
BBX 6 12 0 -2
BITMAP
00
00
00
00
F0
88
F0
88
88
F0
00
00
ENDCHAR
STARTCHAR char1075
ENCODING 1075
SWIDTH 540 0
DWIDTH 6 0
BBX 6 12 0 -2
BITMAP
00
00
00
00
78
40
40
40
40
40
00
00
ENDCHAR
STARTCHAR char1076
ENCODING 1076
SWIDTH 540 0
DWIDTH 6 0
BBX 6 12 0 -2
BITMAP
00
00
00
00
10
30
50
50
50
F8
88
00
ENDCHAR
STARTCHAR char1077
ENCODING 1077
SWIDTH 540 0
DWIDTH 6 0
BBX 6 12 0 -2
BITMAP
00
00
00
00
70
88
F8
80
88
70
00
00
ENDCHAR
STARTCHAR char1078
ENCODING 1078
SWIDTH 540 0
DWIDTH 6 0
BBX 6 12 0 -2
BITMAP
00
00
00
00
A8
A8
70
A8
A8
A8
00
00
ENDCHAR
STARTCHAR char1079
ENCODING 1079
SWIDTH 540 0
DWIDTH 6 0
BBX 6 12 0 -2
BITMAP
00
00
00
00
70
88
30
08
88
70
00
00
ENDCHAR
STARTCHAR char1080
ENCODING 1080
SWIDTH 540 0
DWIDTH 6 0
BBX 6 12 0 -2
BITMAP
00
00
00
00
88
98
A8
A8
C8
88
00
00
ENDCHAR
STARTCHAR char1081
ENCODING 1081
SWIDTH 540 0
DWIDTH 6 0
BBX 6 12 0 -2
BITMAP
00
00
50
20
88
98
A8
A8
C8
88
00
00
ENDCHAR
STARTCHAR char1082
ENCODING 1082
SWIDTH 540 0
DWIDTH 6 0
BBX 6 12 0 -2
BITMAP
00
00
00
00
88
90
E0
90
88
88
00
00
ENDCHAR
STARTCHAR char1083
ENCODING 1083
SWIDTH 540 0
DWIDTH 6 0
BBX 6 12 0 -2
BITMAP
00
00
00
00
38
48
48
48
48
88
00
00
ENDCHAR
STARTCHAR char1084
ENCODING 1084
SWIDTH 540 0
DWIDTH 6 0
BBX 6 12 0 -2
BITMAP
00
00
00
00
88
D8
A8
A8
88
88
00
00
ENDCHAR
STARTCHAR char1085
ENCODING 1085
SWIDTH 540 0
DWIDTH 6 0
BBX 6 12 0 -2
BITMAP
00
00
00
00
88
88
F8
88
88
88
00
00
ENDCHAR
STARTCHAR char1086
ENCODING 1086
SWIDTH 540 0
DWIDTH 6 0
BBX 6 12 0 -2
BITMAP
00
00
00
00
70
88
88
88
88
70
00
00
ENDCHAR
STARTCHAR char1087
ENCODING 1087
SWIDTH 540 0
DWIDTH 6 0
BBX 6 12 0 -2
BITMAP
00
00
00
00
F8
88
88
88
88
88
00
00
ENDCHAR
STARTCHAR char1088
ENCODING 1088
SWIDTH 540 0
DWIDTH 6 0
BBX 6 12 0 -2
BITMAP
00
00
00
00
B0
C8
88
88
C8
B0
80
80
ENDCHAR
STARTCHAR char1089
ENCODING 1089
SWIDTH 540 0
DWIDTH 6 0
BBX 6 12 0 -2
BITMAP
00
00
00
00
70
88
80
80
88
70
00
00
ENDCHAR
STARTCHAR char1090
ENCODING 1090
SWIDTH 540 0
DWIDTH 6 0
BBX 6 12 0 -2
BITMAP
00
00
00
00
F8
20
20
20
20
20
00
00
ENDCHAR
STARTCHAR char1091
ENCODING 1091
SWIDTH 540 0
DWIDTH 6 0
BBX 6 12 0 -2
BITMAP
00
00
00
00
88
88
88
88
78
08
88
70
ENDCHAR
STARTCHAR char1092
ENCODING 1092
SWIDTH 540 0
DWIDTH 6 0
BBX 6 12 0 -2
BITMAP
00
00
20
20
70
A8
A8
A8
A8
70
20
20
ENDCHAR
STARTCHAR char1093
ENCODING 1093
SWIDTH 540 0
DWIDTH 6 0
BBX 6 12 0 -2
BITMAP
00
00
00
00
88
50
20
20
50
88
00
00
ENDCHAR
STARTCHAR char1094
ENCODING 1094
SWIDTH 540 0
DWIDTH 6 0
BBX 6 12 0 -2
BITMAP
00
00
00
00
90
90
90
90
90
F8
08
08
ENDCHAR
STARTCHAR char1095
ENCODING 1095
SWIDTH 540 0
DWIDTH 6 0
BBX 6 12 0 -2
BITMAP
00
00
00
00
88
88
88
78
08
08
00
00
ENDCHAR
STARTCHAR char1096
ENCODING 1096
SWIDTH 540 0
DWIDTH 6 0
BBX 6 12 0 -2
BITMAP
00
00
00
00
A8
A8
A8
A8
A8
F8
00
00
ENDCHAR
STARTCHAR char1097
ENCODING 1097
SWIDTH 540 0
DWIDTH 6 0
BBX 6 12 0 -2
BITMAP
00
00
00
00
A8
A8
A8
A8
A8
F8
08
08
ENDCHAR
STARTCHAR char1098
ENCODING 1098
SWIDTH 540 0
DWIDTH 6 0
BBX 6 12 0 -2
BITMAP
00
00
00
00
C0
40
70
48
48
70
00
00
ENDCHAR
STARTCHAR char1099
ENCODING 1099
SWIDTH 540 0
DWIDTH 6 0
BBX 6 12 0 -2
BITMAP
00
00
00
00
88
88
E8
98
98
E8
00
00
ENDCHAR
STARTCHAR char1100
ENCODING 1100
SWIDTH 540 0
DWIDTH 6 0
BBX 6 12 0 -2
BITMAP
00
00
00
00
40
40
70
48
48
70
00
00
ENDCHAR
STARTCHAR char1101
ENCODING 1101
SWIDTH 540 0
DWIDTH 6 0
BBX 6 12 0 -2
BITMAP
00
00
00
00
70
88
38
08
88
70
00
00
ENDCHAR
STARTCHAR char1102
ENCODING 1102
SWIDTH 540 0
DWIDTH 6 0
BBX 6 12 0 -2
BITMAP
00
00
00
00
90
A8
E8
A8
A8
90
00
00
ENDCHAR
STARTCHAR char1103
ENCODING 1103
SWIDTH 540 0
DWIDTH 6 0
BBX 6 12 0 -2
BITMAP
00
00
00
00
78
88
78
88
88
88
00
00
ENDCHAR
STARTCHAR char1105
ENCODING 1105
SWIDTH 540 0
DWIDTH 6 0
BBX 6 12 0 -2
BITMAP
00
00
50
00
70
88
F8
80
88
70
00
00
ENDCHAR
STARTCHAR char1106
ENCODING 1106
SWIDTH 540 0
DWIDTH 6 0
BBX 6 12 0 -2
BITMAP
00
40
F0
40
70
48
48
48
48
48
08
30
ENDCHAR
STARTCHAR char1107
ENCODING 1107
SWIDTH 540 0
DWIDTH 6 0
BBX 6 12 0 -2
BITMAP
00
10
20
00
78
40
40
40
40
40
40
00
ENDCHAR
STARTCHAR char1108
ENCODING 1108
SWIDTH 540 0
DWIDTH 6 0
BBX 6 12 0 -2
BITMAP
00
00
00
00
30
48
60
40
48
30
00
00
ENDCHAR
STARTCHAR char1109
ENCODING 1109
SWIDTH 540 0
DWIDTH 6 0
BBX 6 12 0 -2
BITMAP
00
00
00
00
70
80
70
08
88
70
00
00
ENDCHAR
STARTCHAR char1110
ENCODING 1110
SWIDTH 540 0
DWIDTH 6 0
BBX 6 12 0 -2
BITMAP
00
00
20
00
60
20
20
20
20
30
00
00
ENDCHAR
STARTCHAR char1111
ENCODING 1111
SWIDTH 540 0
DWIDTH 6 0
BBX 6 12 0 -2
BITMAP
00
00
50
00
60
20
20
20
20
30
00
00
ENDCHAR
STARTCHAR char1112
ENCODING 1112
SWIDTH 540 0
DWIDTH 6 0
BBX 6 12 0 -2
BITMAP
00
00
08
00
18
08
08
08
08
08
08
30
ENDCHAR
STARTCHAR char1113
ENCODING 1113
SWIDTH 540 0
DWIDTH 6 0
BBX 6 12 0 -2
BITMAP
00
00
00
00
30
50
58
94
94
98
00
00
ENDCHAR
STARTCHAR char1114
ENCODING 1114
SWIDTH 540 0
DWIDTH 6 0
BBX 6 12 0 -2
BITMAP
00
00
00
00
A0
A0
F0
A8
A8
B0
00
00
ENDCHAR
STARTCHAR char1115
ENCODING 1115
SWIDTH 540 0
DWIDTH 6 0
BBX 6 12 0 -2
BITMAP
00
40
F0
40
70
48
48
48
48
48
00
00
ENDCHAR
STARTCHAR char1116
ENCODING 1116
SWIDTH 540 0
DWIDTH 6 0
BBX 6 12 0 -2
BITMAP
00
00
10
20
88
90
E0
90
88
88
00
00
ENDCHAR
STARTCHAR char1118
ENCODING 1118
SWIDTH 540 0
DWIDTH 6 0
BBX 6 12 0 -2
BITMAP
00
00
00
50
20
88
88
98
68
08
88
70
ENDCHAR
STARTCHAR char1119
ENCODING 1119
SWIDTH 540 0
DWIDTH 6 0
BBX 6 12 0 -2
BITMAP
00
00
00
00
00
88
88
88
88
F8
20
00
ENDCHAR
STARTCHAR char1122
ENCODING 1122
SWIDTH 540 0
DWIDTH 6 0
BBX 6 12 0 -2
BITMAP
00
00
00
40
F0
40
70
48
48
70
00
00
ENDCHAR
STARTCHAR char1123
ENCODING 1123
SWIDTH 540 0
DWIDTH 6 0
BBX 6 12 0 -2
BITMAP
00
00
00
40
40
F0
40
70
48
70
00
00
ENDCHAR
STARTCHAR char1136
ENCODING 1136
SWIDTH 540 0
DWIDTH 6 0
BBX 6 12 0 -2
BITMAP
00
00
00
A8
A8
A8
70
20
20
20
00
00
ENDCHAR
STARTCHAR char1137
ENCODING 1137
SWIDTH 540 0
DWIDTH 6 0
BBX 6 12 0 -2
BITMAP
00
00
00
00
00
A8
A8
70
20
20
00
00
ENDCHAR
STARTCHAR char1138
ENCODING 1138
SWIDTH 540 0
DWIDTH 6 0
BBX 6 12 0 -2
BITMAP
00
00
00
70
88
88
F8
88
88
70
00
00
ENDCHAR
STARTCHAR char1139
ENCODING 1139
SWIDTH 540 0
DWIDTH 6 0
BBX 6 12 0 -2
BITMAP
00
00
00
00
00
70
88
F8
88
70
00
00
ENDCHAR
STARTCHAR char1140
ENCODING 1140
SWIDTH 540 0
DWIDTH 6 0
BBX 6 12 0 -2
BITMAP
00
00
00
88
90
90
50
50
50
20
00
00
ENDCHAR
STARTCHAR char1141
ENCODING 1141
SWIDTH 540 0
DWIDTH 6 0
BBX 6 12 0 -2
BITMAP
00
00
00
00
00
88
90
50
50
20
00
00
ENDCHAR
STARTCHAR char1142
ENCODING 1142
SWIDTH 540 0
DWIDTH 6 0
BBX 6 12 0 -2
BITMAP
00
00
50
28
80
88
50
50
50
20
00
00
ENDCHAR
STARTCHAR char1143
ENCODING 1143
SWIDTH 540 0
DWIDTH 6 0
BBX 6 12 0 -2
BITMAP
00
00
00
50
28
80
88
50
50
20
00
00
ENDCHAR
STARTCHAR char1168
ENCODING 1168
SWIDTH 540 0
DWIDTH 6 0
BBX 6 12 0 -2
BITMAP
00
00
08
F8
80
80
80
80
80
80
00
00
ENDCHAR
STARTCHAR char1169
ENCODING 1169
SWIDTH 540 0
DWIDTH 6 0
BBX 6 12 0 -2
BITMAP
00
00
00
00
08
78
40
40
40
40
00
00
ENDCHAR
STARTCHAR char1170
ENCODING 1170
SWIDTH 540 0
DWIDTH 6 0
BBX 6 12 0 -2
BITMAP
00
00
00
78
40
40
F0
40
40
40
00
00
ENDCHAR
STARTCHAR char1171
ENCODING 1171
SWIDTH 540 0
DWIDTH 6 0
BBX 6 12 0 -2
BITMAP
00
00
00
00
00
78
40
F0
40
40
00
00
ENDCHAR
STARTCHAR char1174
ENCODING 1174
SWIDTH 540 0
DWIDTH 6 0
BBX 6 12 0 -2
BITMAP
00
00
00
A8
A8
A8
70
A8
A8
A8
04
04
ENDCHAR
STARTCHAR char1175
ENCODING 1175
SWIDTH 540 0
DWIDTH 6 0
BBX 6 12 0 -2
BITMAP
00
00
00
00
00
A8
A8
70
A8
A8
04
04
ENDCHAR
STARTCHAR char1178
ENCODING 1178
SWIDTH 540 0
DWIDTH 6 0
BBX 6 12 0 -2
BITMAP
00
00
00
88
90
A0
C0
A0
90
88
04
04
ENDCHAR
STARTCHAR char1179
ENCODING 1179
SWIDTH 540 0
DWIDTH 6 0
BBX 6 12 0 -2
BITMAP
00
00
00
00
00
88
90
E0
90
88
04
04
ENDCHAR
STARTCHAR char1198
ENCODING 1198
SWIDTH 540 0
DWIDTH 6 0
BBX 6 12 0 -2
BITMAP
00
00
00
88
88
50
20
20
20
20
00
00
ENDCHAR
STARTCHAR char1199
ENCODING 1199
SWIDTH 540 0
DWIDTH 6 0
BBX 6 12 0 -2
BITMAP
00
00
00
00
00
88
88
50
20
20
20
20
ENDCHAR
STARTCHAR char1200
ENCODING 1200
SWIDTH 540 0
DWIDTH 6 0
BBX 6 12 0 -2
BITMAP
00
00
00
88
88
50
F8
20
20
20
00
00
ENDCHAR
STARTCHAR char1201
ENCODING 1201
SWIDTH 540 0
DWIDTH 6 0
BBX 6 12 0 -2
BITMAP
00
00
00
00
00
88
88
50
F8
20
20
20
ENDCHAR
STARTCHAR char1202
ENCODING 1202
SWIDTH 540 0
DWIDTH 6 0
BBX 6 12 0 -2
BITMAP
00
00
00
88
88
50
20
50
88
88
04
04
ENDCHAR
STARTCHAR char1203
ENCODING 1203
SWIDTH 540 0
DWIDTH 6 0
BBX 6 12 0 -2
BITMAP
00
00
00
00
00
88
50
20
50
88
04
04
ENDCHAR
STARTCHAR char1210
ENCODING 1210
SWIDTH 540 0
DWIDTH 6 0
BBX 6 12 0 -2
BITMAP
00
00
00
80
80
F0
88
88
88
88
00
00
ENDCHAR
STARTCHAR char1211
ENCODING 1211
SWIDTH 540 0
DWIDTH 6 0
BBX 6 12 0 -2
BITMAP
00
00
00
40
40
50
68
48
48
48
00
00
ENDCHAR
STARTCHAR char1240
ENCODING 1240
SWIDTH 540 0
DWIDTH 6 0
BBX 6 12 0 -2
BITMAP
00
00
00
70
88
08
F8
88
88
70
00
00
ENDCHAR
STARTCHAR char1241
ENCODING 1241
SWIDTH 540 0
DWIDTH 6 0
BBX 6 12 0 -2
BITMAP
00
00
00
00
00
70
08
F8
88
70
00
00
ENDCHAR
STARTCHAR char1250
ENCODING 1250
SWIDTH 540 0
DWIDTH 6 0
BBX 6 12 0 -2
BITMAP
00
00
70
00
70
20
20
20
20
70
00
00
ENDCHAR
STARTCHAR char1251
ENCODING 1251
SWIDTH 540 0
DWIDTH 6 0
BBX 6 12 0 -2
BITMAP
00
00
00
70
00
60
20
20
20
70
00
00
ENDCHAR
STARTCHAR char1256
ENCODING 1256
SWIDTH 540 0
DWIDTH 6 0
BBX 6 12 0 -2
BITMAP
00
00
00
70
88
88
F8
88
88
70
00
00
ENDCHAR
STARTCHAR char1257
ENCODING 1257
SWIDTH 540 0
DWIDTH 6 0
BBX 6 12 0 -2
BITMAP
00
00
00
00
00
70
88
F8
88
70
00
00
ENDCHAR
STARTCHAR char1262
ENCODING 1262
SWIDTH 540 0
DWIDTH 6 0
BBX 6 12 0 -2
BITMAP
00
00
70
00
88
88
88
88
88
70
00
00
ENDCHAR
STARTCHAR char1263
ENCODING 1263
SWIDTH 540 0
DWIDTH 6 0
BBX 6 12 0 -2
BITMAP
00
00
00
70
00
88
88
88
98
68
00
00
ENDCHAR
STARTCHAR char1488
ENCODING 1488
SWIDTH 540 0
DWIDTH 6 0
BBX 6 12 0 -2
BITMAP
00
00
00
00
00
90
48
B0
90
C8
00
00
ENDCHAR
STARTCHAR char1489
ENCODING 1489
SWIDTH 540 0
DWIDTH 6 0
BBX 6 12 0 -2
BITMAP
00
00
00
00
00
F0
08
08
08
F8
00
00
ENDCHAR
STARTCHAR char1490
ENCODING 1490
SWIDTH 540 0
DWIDTH 6 0
BBX 6 12 0 -2
BITMAP
00
00
00
00
00
30
10
10
10
68
00
00
ENDCHAR
STARTCHAR char1491
ENCODING 1491
SWIDTH 540 0
DWIDTH 6 0
BBX 6 12 0 -2
BITMAP
00
00
00
00
00
F8
10
10
10
10
00
00
ENDCHAR
STARTCHAR char1492
ENCODING 1492
SWIDTH 540 0
DWIDTH 6 0
BBX 6 12 0 -2
BITMAP
00
00
00
00
00
F8
10
90
90
90
00
00
ENDCHAR
STARTCHAR char1493
ENCODING 1493
SWIDTH 540 0
DWIDTH 6 0
BBX 6 12 0 -2
BITMAP
00
00
00
00
00
30
10
10
10
10
00
00
ENDCHAR
STARTCHAR char1494
ENCODING 1494
SWIDTH 540 0
DWIDTH 6 0
BBX 6 12 0 -2
BITMAP
00
00
00
00
40
30
20
20
20
20
00
00
ENDCHAR
STARTCHAR char1495
ENCODING 1495
SWIDTH 540 0
DWIDTH 6 0
BBX 6 12 0 -2
BITMAP
00
00
00
00
00
F8
88
88
88
88
00
00
ENDCHAR
STARTCHAR char1496
ENCODING 1496
SWIDTH 540 0
DWIDTH 6 0
BBX 6 12 0 -2
BITMAP
00
00
00
00
00
B8
A8
88
88
F8
00
00
ENDCHAR
STARTCHAR char1497
ENCODING 1497
SWIDTH 540 0
DWIDTH 6 0
BBX 6 12 0 -2
BITMAP
00
00
00
00
00
30
10
00
00
00
00
00
ENDCHAR
STARTCHAR char1498
ENCODING 1498
SWIDTH 540 0
DWIDTH 6 0
BBX 6 12 0 -2
BITMAP
00
00
00
00
00
70
10
10
10
10
10
10
ENDCHAR
STARTCHAR char1499
ENCODING 1499
SWIDTH 540 0
DWIDTH 6 0
BBX 6 12 0 -2
BITMAP
00
00
00
00
00
F0
08
08
08
F0
00
00
ENDCHAR
STARTCHAR char1500
ENCODING 1500
SWIDTH 540 0
DWIDTH 6 0
BBX 6 12 0 -2
BITMAP
00
00
00
80
80
F0
08
08
10
20
00
00
ENDCHAR
STARTCHAR char1501
ENCODING 1501
SWIDTH 540 0
DWIDTH 6 0
BBX 6 12 0 -2
BITMAP
00
00
00
00
00
F0
88
88
88
F8
00
00
ENDCHAR
STARTCHAR char1502
ENCODING 1502
SWIDTH 540 0
DWIDTH 6 0
BBX 6 12 0 -2
BITMAP
00
00
00
00
00
B0
48
88
88
B8
00
00
ENDCHAR
STARTCHAR char1503
ENCODING 1503
SWIDTH 540 0
DWIDTH 6 0
BBX 6 12 0 -2
BITMAP
00
00
00
00
00
30
10
10
10
10
10
10
ENDCHAR
STARTCHAR char1504
ENCODING 1504
SWIDTH 540 0
DWIDTH 6 0
BBX 6 12 0 -2
BITMAP
00
00
00
00
00
30
10
10
10
30
00
00
ENDCHAR
STARTCHAR char1505
ENCODING 1505
SWIDTH 540 0
DWIDTH 6 0
BBX 6 12 0 -2
BITMAP
00
00
00
00
00
F8
88
88
88
70
00
00
ENDCHAR
STARTCHAR char1506
ENCODING 1506
SWIDTH 540 0
DWIDTH 6 0
BBX 6 12 0 -2
BITMAP
00
00
00
00
00
48
48
48
48
F0
00
00
ENDCHAR
STARTCHAR char1507
ENCODING 1507
SWIDTH 540 0
DWIDTH 6 0
BBX 6 12 0 -2
BITMAP
00
00
00
00
00
78
48
68
08
08
08
08
ENDCHAR
STARTCHAR char1508
ENCODING 1508
SWIDTH 540 0
DWIDTH 6 0
BBX 6 12 0 -2
BITMAP
00
00
00
00
00
E0
90
C8
08
F8
00
00
ENDCHAR
STARTCHAR char1509
ENCODING 1509
SWIDTH 540 0
DWIDTH 6 0
BBX 6 12 0 -2
BITMAP
00
00
00
00
00
50
50
50
60
40
40
40
ENDCHAR
STARTCHAR char1510
ENCODING 1510
SWIDTH 540 0
DWIDTH 6 0
BBX 6 12 0 -2
BITMAP
00
00
00
00
00
88
50
20
10
F8
00
00
ENDCHAR
STARTCHAR char1511
ENCODING 1511
SWIDTH 540 0
DWIDTH 6 0
BBX 6 12 0 -2
BITMAP
00
00
00
00
00
F8
08
88
88
F0
80
80
ENDCHAR
STARTCHAR char1512
ENCODING 1512
SWIDTH 540 0
DWIDTH 6 0
BBX 6 12 0 -2
BITMAP
00
00
00
00
00
F0
08
08
08
08
00
00
ENDCHAR
STARTCHAR char1513
ENCODING 1513
SWIDTH 540 0
DWIDTH 6 0
BBX 6 12 0 -2
BITMAP
00
00
00
00
00
A8
A8
C8
88
F0
00
00
ENDCHAR
STARTCHAR char1514
ENCODING 1514
SWIDTH 540 0
DWIDTH 6 0
BBX 6 12 0 -2
BITMAP
00
00
00
00
00
F8
88
88
48
88
00
00
ENDCHAR
STARTCHAR char5792
ENCODING 5792
SWIDTH 540 0
DWIDTH 6 0
BBX 6 12 0 -2
BITMAP
00
00
00
28
30
28
30
20
20
20
00
00
ENDCHAR
STARTCHAR char5794
ENCODING 5794
SWIDTH 540 0
DWIDTH 6 0
BBX 6 12 0 -2
BITMAP
00
00
00
60
50
50
48
48
48
48
00
00
ENDCHAR
STARTCHAR char5795
ENCODING 5795
SWIDTH 540 0
DWIDTH 6 0
BBX 6 12 0 -2
BITMAP
00
00
00
20
50
88
88
A8
A8
A8
00
00
ENDCHAR
STARTCHAR char5798
ENCODING 5798
SWIDTH 540 0
DWIDTH 6 0
BBX 6 12 0 -2
BITMAP
00
00
00
20
20
30
28
30
20
20
00
00
ENDCHAR
STARTCHAR char5801
ENCODING 5801
SWIDTH 540 0
DWIDTH 6 0
BBX 6 12 0 -2
BITMAP
00
00
00
88
D0
A8
D0
A0
80
80
00
00
ENDCHAR
STARTCHAR char5802
ENCODING 5802
SWIDTH 540 0
DWIDTH 6 0
BBX 6 12 0 -2
BITMAP
00
00
00
88
D0
A0
C0
A0
80
80
00
00
ENDCHAR
STARTCHAR char5803
ENCODING 5803
SWIDTH 540 0
DWIDTH 6 0
BBX 6 12 0 -2
BITMAP
00
00
00
20
30
28
30
28
20
20
00
00
ENDCHAR
STARTCHAR char5804
ENCODING 5804
SWIDTH 540 0
DWIDTH 6 0
BBX 6 12 0 -2
BITMAP
00
00
00
00
00
00
00
00
00
00
00
00
ENDCHAR
STARTCHAR char5809
ENCODING 5809
SWIDTH 540 0
DWIDTH 6 0
BBX 6 12 0 -2
BITMAP
00
00
00
60
50
48
50
60
50
40
00
00
ENDCHAR
STARTCHAR char5811
ENCODING 5811
SWIDTH 540 0
DWIDTH 6 0
BBX 6 12 0 -2
BITMAP
00
00
00
40
40
60
50
50
48
48
00
00
ENDCHAR
STARTCHAR char5815
ENCODING 5815
SWIDTH 540 0
DWIDTH 6 0
BBX 6 12 0 -2
BITMAP
00
00
00
88
50
50
20
50
50
88
00
00
ENDCHAR
STARTCHAR char5816
ENCODING 5816
SWIDTH 540 0
DWIDTH 6 0
BBX 6 12 0 -2
BITMAP
00
00
00
88
70
50
A8
50
70
88
00
00
ENDCHAR
STARTCHAR char5817
ENCODING 5817
SWIDTH 540 0
DWIDTH 6 0
BBX 6 12 0 -2
BITMAP
00
00
00
60
50
48
50
60
40
40
00
00
ENDCHAR
STARTCHAR char5819
ENCODING 5819
SWIDTH 540 0
DWIDTH 6 0
BBX 6 12 0 -2
BITMAP
00
00
00
88
88
C8
A8
D8
A8
98
00
00
ENDCHAR
STARTCHAR char5822
ENCODING 5822
SWIDTH 540 0
DWIDTH 6 0
BBX 6 12 0 -2
BITMAP
00
00
00
20
A0
60
30
28
20
20
00
00
ENDCHAR
STARTCHAR char5825
ENCODING 5825
SWIDTH 540 0
DWIDTH 6 0
BBX 6 12 0 -2
BITMAP
00
00
00
20
20
20
20
20
20
20
00
00
ENDCHAR
STARTCHAR char5828
ENCODING 5828
SWIDTH 540 0
DWIDTH 6 0
BBX 6 12 0 -2
BITMAP
00
00
00
20
20
70
A8
70
20
20
00
00
ENDCHAR
STARTCHAR char5831
ENCODING 5831
SWIDTH 540 0
DWIDTH 6 0
BBX 6 12 0 -2
BITMAP
00
00
00
20
30
28
20
A0
60
20
00
00
ENDCHAR
STARTCHAR char5832
ENCODING 5832
SWIDTH 540 0
DWIDTH 6 0
BBX 6 12 0 -2
BITMAP
00
00
00
88
D0
A0
80
A0
D0
88
00
00
ENDCHAR
STARTCHAR char5833
ENCODING 5833
SWIDTH 540 0
DWIDTH 6 0
BBX 6 12 0 -2
BITMAP
00
00
00
A8
A8
A8
70
20
20
20
00
00
ENDCHAR
STARTCHAR char5835
ENCODING 5835
SWIDTH 540 0
DWIDTH 6 0
BBX 6 12 0 -2
BITMAP
00
00
00
80
88
98
A8
C8
88
08
00
00
ENDCHAR
STARTCHAR char5839
ENCODING 5839
SWIDTH 540 0
DWIDTH 6 0
BBX 6 12 0 -2
BITMAP
00
00
00
20
70
A8
20
20
20
20
00
00
ENDCHAR
STARTCHAR char5842
ENCODING 5842
SWIDTH 540 0
DWIDTH 6 0
BBX 6 12 0 -2
BITMAP
00
00
00
60
50
48
70
48
50
60
00
00
ENDCHAR
STARTCHAR char5846
ENCODING 5846
SWIDTH 540 0
DWIDTH 6 0
BBX 6 12 0 -2
BITMAP
00
00
00
88
D8
A8
88
88
88
88
00
00
ENDCHAR
STARTCHAR char5847
ENCODING 5847
SWIDTH 540 0
DWIDTH 6 0
BBX 6 12 0 -2
BITMAP
00
00
00
88
D8
A8
D8
88
88
88
00
00
ENDCHAR
STARTCHAR char5850
ENCODING 5850
SWIDTH 540 0
DWIDTH 6 0
BBX 6 12 0 -2
BITMAP
00
00
00
20
30
28
20
20
20
20
00
00
ENDCHAR
STARTCHAR char5853
ENCODING 5853
SWIDTH 540 0
DWIDTH 6 0
BBX 6 12 0 -2
BITMAP
00
00
00
88
50
20
50
20
50
88
00
00
ENDCHAR
STARTCHAR char5854
ENCODING 5854
SWIDTH 540 0
DWIDTH 6 0
BBX 6 12 0 -2
BITMAP
00
00
00
88
88
D8
A8
D8
88
88
00
00
ENDCHAR
STARTCHAR char5855
ENCODING 5855
SWIDTH 540 0
DWIDTH 6 0
BBX 6 12 0 -2
BITMAP
00
00
00
20
50
88
50
20
50
88
00
00
ENDCHAR
STARTCHAR char5856
ENCODING 5856
SWIDTH 540 0
DWIDTH 6 0
BBX 6 12 0 -2
BITMAP
00
00
00
A8
70
20
20
20
20
20
00
00
ENDCHAR
STARTCHAR char5857
ENCODING 5857
SWIDTH 540 0
DWIDTH 6 0
BBX 6 12 0 -2
BITMAP
00
00
00
A8
70
20
70
A8
20
20
00
00
ENDCHAR
STARTCHAR char5858
ENCODING 5858
SWIDTH 540 0
DWIDTH 6 0
BBX 6 12 0 -2
BITMAP
00
00
00
28
30
20
20
20
60
A0
00
00
ENDCHAR
STARTCHAR char5859
ENCODING 5859
SWIDTH 540 0
DWIDTH 6 0
BBX 6 12 0 -2
BITMAP
00
00
00
20
20
20
70
A8
A8
A8
00
00
ENDCHAR
STARTCHAR char5861
ENCODING 5861
SWIDTH 540 0
DWIDTH 6 0
BBX 6 12 0 -2
BITMAP
00
00
00
88
D8
A8
88
A8
D8
88
00
00
ENDCHAR
STARTCHAR char5867
ENCODING 5867
SWIDTH 540 0
DWIDTH 6 0
BBX 6 12 0 -2
BITMAP
00
00
00
00
00
00
20
00
00
00
00
00
ENDCHAR
STARTCHAR char5868
ENCODING 5868
SWIDTH 540 0
DWIDTH 6 0
BBX 6 12 0 -2
BITMAP
00
00
00
00
00
20
00
20
00
00
00
00
ENDCHAR
STARTCHAR char5869
ENCODING 5869
SWIDTH 540 0
DWIDTH 6 0
BBX 6 12 0 -2
BITMAP
00
00
00
00
00
50
20
50
00
00
00
00
ENDCHAR
STARTCHAR char7682
ENCODING 7682
SWIDTH 540 0
DWIDTH 6 0
BBX 6 12 0 -2
BITMAP
00
00
20
00
F0
88
F0
88
88
F0
00
00
ENDCHAR
STARTCHAR char7683
ENCODING 7683
SWIDTH 540 0
DWIDTH 6 0
BBX 6 12 0 -2
BITMAP
00
00
00
90
80
B0
C8
88
C8
B0
00
00
ENDCHAR
STARTCHAR char7684
ENCODING 7684
SWIDTH 540 0
DWIDTH 6 0
BBX 6 12 0 -2
BITMAP
00
00
00
00
00
00
00
00
00
00
00
00
ENDCHAR
STARTCHAR char7690
ENCODING 7690
SWIDTH 540 0
DWIDTH 6 0
BBX 6 12 0 -2
BITMAP
00
00
20
00
F0
88
88
88
88
F0
00
00
ENDCHAR
STARTCHAR char7691
ENCODING 7691
SWIDTH 540 0
DWIDTH 6 0
BBX 6 12 0 -2
BITMAP
00
00
20
08
08
68
98
88
98
68
00
00
ENDCHAR
STARTCHAR char7710
ENCODING 7710
SWIDTH 540 0
DWIDTH 6 0
BBX 6 12 0 -2
BITMAP
00
00
20
00
F8
80
F0
80
80
80
00
00
ENDCHAR
STARTCHAR char7711
ENCODING 7711
SWIDTH 540 0
DWIDTH 6 0
BBX 6 12 0 -2
BITMAP
00
00
20
00
30
48
40
F0
40
40
00
00
ENDCHAR
STARTCHAR char7744
ENCODING 7744
SWIDTH 540 0
DWIDTH 6 0
BBX 6 12 0 -2
BITMAP
00
00
20
88
88
D8
A8
88
88
88
00
00
ENDCHAR
STARTCHAR char7745
ENCODING 7745
SWIDTH 540 0
DWIDTH 6 0
BBX 6 12 0 -2
BITMAP
00
00
00
20
00
D0
A8
A8
A8
88
00
00
ENDCHAR
STARTCHAR char7766
ENCODING 7766
SWIDTH 540 0
DWIDTH 6 0
BBX 6 12 0 -2
BITMAP
00
00
20
00
F0
88
88
F0
80
80
00
00
ENDCHAR
STARTCHAR char7767
ENCODING 7767
SWIDTH 540 0
DWIDTH 6 0
BBX 6 12 0 -2
BITMAP
00
00
00
20
00
B0
C8
88
C8
B0
80
80
ENDCHAR
STARTCHAR char7776
ENCODING 7776
SWIDTH 540 0
DWIDTH 6 0
BBX 6 12 0 -2
BITMAP
00
00
20
00
70
80
70
08
88
70
00
00
ENDCHAR
STARTCHAR char7777
ENCODING 7777
SWIDTH 540 0
DWIDTH 6 0
BBX 6 12 0 -2
BITMAP
00
00
00
20
00
70
80
70
08
F0
00
00
ENDCHAR
STARTCHAR char7786
ENCODING 7786
SWIDTH 540 0
DWIDTH 6 0
BBX 6 12 0 -2
BITMAP
00
00
20
00
F8
20
20
20
20
20
00
00
ENDCHAR
STARTCHAR char7787
ENCODING 7787
SWIDTH 540 0
DWIDTH 6 0
BBX 6 12 0 -2
BITMAP
00
00
40
00
40
F0
40
40
48
30
00
00
ENDCHAR
STARTCHAR char7808
ENCODING 7808
SWIDTH 540 0
DWIDTH 6 0
BBX 6 12 0 -2
BITMAP
00
00
40
20
88
88
A8
A8
D8
88
00
00
ENDCHAR
STARTCHAR char7809
ENCODING 7809
SWIDTH 540 0
DWIDTH 6 0
BBX 6 12 0 -2
BITMAP
00
00
00
40
20
88
88
A8
A8
50
00
00
ENDCHAR
STARTCHAR char7810
ENCODING 7810
SWIDTH 540 0
DWIDTH 6 0
BBX 6 12 0 -2
BITMAP
00
00
10
20
88
88
A8
A8
D8
88
00
00
ENDCHAR
STARTCHAR char7811
ENCODING 7811
SWIDTH 540 0
DWIDTH 6 0
BBX 6 12 0 -2
BITMAP
00
00
00
10
20
88
88
A8
A8
50
00
00
ENDCHAR
STARTCHAR char7812
ENCODING 7812
SWIDTH 540 0
DWIDTH 6 0
BBX 6 12 0 -2
BITMAP
00
00
50
00
88
88
A8
A8
D8
88
00
00
ENDCHAR
STARTCHAR char7813
ENCODING 7813
SWIDTH 540 0
DWIDTH 6 0
BBX 6 12 0 -2
BITMAP
00
00
00
50
00
88
88
A8
A8
50
00
00
ENDCHAR
STARTCHAR char7922
ENCODING 7922
SWIDTH 540 0
DWIDTH 6 0
BBX 6 12 0 -2
BITMAP
00
00
40
20
88
50
20
20
20
20
00
00
ENDCHAR
STARTCHAR char7923
ENCODING 7923
SWIDTH 540 0
DWIDTH 6 0
BBX 6 12 0 -2
BITMAP
00
00
40
20
00
88
88
98
68
08
88
70
ENDCHAR
STARTCHAR char7936
ENCODING 7936
SWIDTH 540 0
DWIDTH 6 0
BBX 6 12 0 -2
BITMAP
00
00
30
10
20
70
88
88
98
68
00
00
ENDCHAR
STARTCHAR char7937
ENCODING 7937
SWIDTH 540 0
DWIDTH 6 0
BBX 6 12 0 -2
BITMAP
00
00
30
20
10
70
88
88
98
68
00
00
ENDCHAR
STARTCHAR char7938
ENCODING 7938
SWIDTH 540 0
DWIDTH 6 0
BBX 6 12 0 -2
BITMAP
00
00
70
28
40
70
88
88
98
68
00
00
ENDCHAR
STARTCHAR char7939
ENCODING 7939
SWIDTH 540 0
DWIDTH 6 0
BBX 6 12 0 -2
BITMAP
00
00
70
48
20
70
88
88
98
68
00
00
ENDCHAR
STARTCHAR char7940
ENCODING 7940
SWIDTH 540 0
DWIDTH 6 0
BBX 6 12 0 -2
BITMAP
00
00
68
30
40
70
88
88
98
68
00
00
ENDCHAR
STARTCHAR char7941
ENCODING 7941
SWIDTH 540 0
DWIDTH 6 0
BBX 6 12 0 -2
BITMAP
00
00
68
50
20
70
88
88
98
68
00
00
ENDCHAR
STARTCHAR char7942
ENCODING 7942
SWIDTH 540 0
DWIDTH 6 0
BBX 6 12 0 -2
BITMAP
00
00
78
10
20
70
88
88
98
68
00
00
ENDCHAR
STARTCHAR char7943
ENCODING 7943
SWIDTH 540 0
DWIDTH 6 0
BBX 6 12 0 -2
BITMAP
00
00
78
20
10
70
88
88
98
68
00
00
ENDCHAR
STARTCHAR char7944
ENCODING 7944
SWIDTH 540 0
DWIDTH 6 0
BBX 6 12 0 -2
BITMAP
00
00
00
D8
64
A4
24
3C
24
24
00
00
ENDCHAR
STARTCHAR char7945
ENCODING 7945
SWIDTH 540 0
DWIDTH 6 0
BBX 6 12 0 -2
BITMAP
00
00
00
D8
A4
64
24
3C
24
24
00
00
ENDCHAR
STARTCHAR char7946
ENCODING 7946
SWIDTH 540 0
DWIDTH 6 0
BBX 6 12 0 -2
BITMAP
00
00
00
D8
64
A4
A4
7C
24
24
00
00
ENDCHAR
STARTCHAR char7947
ENCODING 7947
SWIDTH 540 0
DWIDTH 6 0
BBX 6 12 0 -2
BITMAP
00
00
00
D8
A4
64
A4
7C
24
24
00
00
ENDCHAR
STARTCHAR char7948
ENCODING 7948
SWIDTH 540 0
DWIDTH 6 0
BBX 6 12 0 -2
BITMAP
00
00
00
D8
64
A4
64
BC
24
24
00
00
ENDCHAR
STARTCHAR char7949
ENCODING 7949
SWIDTH 540 0
DWIDTH 6 0
BBX 6 12 0 -2
BITMAP
00
00
00
D8
A4
64
64
BC
24
24
00
00
ENDCHAR
STARTCHAR char7950
ENCODING 7950
SWIDTH 540 0
DWIDTH 6 0
BBX 6 12 0 -2
BITMAP
00
00
00
D8
24
E4
64
BC
24
24
00
00
ENDCHAR
STARTCHAR char7951
ENCODING 7951
SWIDTH 540 0
DWIDTH 6 0
BBX 6 12 0 -2
BITMAP
00
00
00
D8
24
E4
A4
7C
24
24
00
00
ENDCHAR
STARTCHAR char7952
ENCODING 7952
SWIDTH 540 0
DWIDTH 6 0
BBX 6 12 0 -2
BITMAP
00
00
30
10
20
70
88
60
88
70
00
00
ENDCHAR
STARTCHAR char7953
ENCODING 7953
SWIDTH 540 0
DWIDTH 6 0
BBX 6 12 0 -2
BITMAP
00
00
30
20
10
70
88
60
88
70
00
00
ENDCHAR
STARTCHAR char7954
ENCODING 7954
SWIDTH 540 0
DWIDTH 6 0
BBX 6 12 0 -2
BITMAP
00
00
70
28
40
70
88
60
88
70
00
00
ENDCHAR
STARTCHAR char7955
ENCODING 7955
SWIDTH 540 0
DWIDTH 6 0
BBX 6 12 0 -2
BITMAP
00
00
70
48
20
70
88
60
88
70
00
00
ENDCHAR
STARTCHAR char7956
ENCODING 7956
SWIDTH 540 0
DWIDTH 6 0
BBX 6 12 0 -2
BITMAP
00
00
68
30
40
70
88
60
88
70
00
00
ENDCHAR
STARTCHAR char7957
ENCODING 7957
SWIDTH 540 0
DWIDTH 6 0
BBX 6 12 0 -2
BITMAP
00
00
68
50
20
70
88
60
88
70
00
00
ENDCHAR
STARTCHAR char7960
ENCODING 7960
SWIDTH 540 0
DWIDTH 6 0
BBX 6 12 0 -2
BITMAP
00
00
00
FC
60
A0
38
20
20
3C
00
00
ENDCHAR
STARTCHAR char7961
ENCODING 7961
SWIDTH 540 0
DWIDTH 6 0
BBX 6 12 0 -2
BITMAP
00
00
00
FC
A0
60
38
20
20
3C
00
00
ENDCHAR
STARTCHAR char7962
ENCODING 7962
SWIDTH 540 0
DWIDTH 6 0
BBX 6 12 0 -2
BITMAP
00
00
00
FC
60
A0
B8
60
20
3C
00
00
ENDCHAR
STARTCHAR char7963
ENCODING 7963
SWIDTH 540 0
DWIDTH 6 0
BBX 6 12 0 -2
BITMAP
00
00
00
FC
A0
60
B8
60
20
3C
00
00
ENDCHAR
STARTCHAR char7964
ENCODING 7964
SWIDTH 540 0
DWIDTH 6 0
BBX 6 12 0 -2
BITMAP
00
00
00
FC
60
A0
78
A0
20
3C
00
00
ENDCHAR
STARTCHAR char7965
ENCODING 7965
SWIDTH 540 0
DWIDTH 6 0
BBX 6 12 0 -2
BITMAP
00
00
00
FC
A0
60
78
A0
20
3C
00
00
ENDCHAR
STARTCHAR char7968
ENCODING 7968
SWIDTH 540 0
DWIDTH 6 0
BBX 6 12 0 -2
BITMAP
00
00
30
10
20
B0
C8
88
88
88
08
08
ENDCHAR
STARTCHAR char7969
ENCODING 7969
SWIDTH 540 0
DWIDTH 6 0
BBX 6 12 0 -2
BITMAP
00
00
30
20
10
B0
C8
88
88
88
08
08
ENDCHAR
STARTCHAR char7970
ENCODING 7970
SWIDTH 540 0
DWIDTH 6 0
BBX 6 12 0 -2
BITMAP
00
00
70
28
40
B0
C8
88
88
88
08
08
ENDCHAR
STARTCHAR char7971
ENCODING 7971
SWIDTH 540 0
DWIDTH 6 0
BBX 6 12 0 -2
BITMAP
00
00
70
48
20
B0
C8
88
88
88
08
08
ENDCHAR
STARTCHAR char7972
ENCODING 7972
SWIDTH 540 0
DWIDTH 6 0
BBX 6 12 0 -2
BITMAP
00
00
68
30
40
B0
C8
88
88
88
08
08
ENDCHAR
STARTCHAR char7973
ENCODING 7973
SWIDTH 540 0
DWIDTH 6 0
BBX 6 12 0 -2
BITMAP
00
00
68
50
20
B0
C8
88
88
88
08
08
ENDCHAR
STARTCHAR char7974
ENCODING 7974
SWIDTH 540 0
DWIDTH 6 0
BBX 6 12 0 -2
BITMAP
00
00
78
10
20
B0
C8
88
88
88
08
08
ENDCHAR
STARTCHAR char7975
ENCODING 7975
SWIDTH 540 0
DWIDTH 6 0
BBX 6 12 0 -2
BITMAP
00
00
78
20
10
B0
C8
88
88
88
08
08
ENDCHAR
STARTCHAR char7976
ENCODING 7976
SWIDTH 540 0
DWIDTH 6 0
BBX 6 12 0 -2
BITMAP
00
00
00
E4
64
A4
3C
24
24
24
00
00
ENDCHAR
STARTCHAR char7977
ENCODING 7977
SWIDTH 540 0
DWIDTH 6 0
BBX 6 12 0 -2
BITMAP
00
00
00
E4
A4
64
3C
24
24
24
00
00
ENDCHAR
STARTCHAR char7978
ENCODING 7978
SWIDTH 540 0
DWIDTH 6 0
BBX 6 12 0 -2
BITMAP
00
00
00
E4
64
A4
BC
64
24
24
00
00
ENDCHAR
STARTCHAR char7979
ENCODING 7979
SWIDTH 540 0
DWIDTH 6 0
BBX 6 12 0 -2
BITMAP
00
00
00
E4
A4
64
BC
64
24
24
00
00
ENDCHAR
STARTCHAR char7980
ENCODING 7980
SWIDTH 540 0
DWIDTH 6 0
BBX 6 12 0 -2
BITMAP
00
00
00
E4
64
A4
7C
A4
24
24
00
00
ENDCHAR
STARTCHAR char7981
ENCODING 7981
SWIDTH 540 0
DWIDTH 6 0
BBX 6 12 0 -2
BITMAP
00
00
00
E4
A4
64
7C
A4
24
24
00
00
ENDCHAR
STARTCHAR char7982
ENCODING 7982
SWIDTH 540 0
DWIDTH 6 0
BBX 6 12 0 -2
BITMAP
00
00
00
E4
24
E4
7C
A4
24
24
00
00
ENDCHAR
STARTCHAR char7983
ENCODING 7983
SWIDTH 540 0
DWIDTH 6 0
BBX 6 12 0 -2
BITMAP
00
00
00
E4
24
E4
BC
64
24
24
00
00
ENDCHAR
STARTCHAR char7984
ENCODING 7984
SWIDTH 540 0
DWIDTH 6 0
BBX 6 12 0 -2
BITMAP
00
00
60
20
40
40
40
40
50
20
00
00
ENDCHAR
STARTCHAR char7985
ENCODING 7985
SWIDTH 540 0
DWIDTH 6 0
BBX 6 12 0 -2
BITMAP
00
00
60
40
20
40
40
40
50
20
00
00
ENDCHAR
STARTCHAR char7986
ENCODING 7986
SWIDTH 540 0
DWIDTH 6 0
BBX 6 12 0 -2
BITMAP
00
00
70
28
40
20
20
20
28
10
00
00
ENDCHAR
STARTCHAR char7987
ENCODING 7987
SWIDTH 540 0
DWIDTH 6 0
BBX 6 12 0 -2
BITMAP
00
00
70
48
20
20
20
20
28
10
00
00
ENDCHAR
STARTCHAR char7988
ENCODING 7988
SWIDTH 540 0
DWIDTH 6 0
BBX 6 12 0 -2
BITMAP
00
00
68
30
40
20
20
20
28
10
00
00
ENDCHAR
STARTCHAR char7989
ENCODING 7989
SWIDTH 540 0
DWIDTH 6 0
BBX 6 12 0 -2
BITMAP
00
00
68
50
20
20
20
20
28
10
00
00
ENDCHAR
STARTCHAR char7990
ENCODING 7990
SWIDTH 540 0
DWIDTH 6 0
BBX 6 12 0 -2
BITMAP
00
00
78
10
20
20
20
20
28
10
00
00
ENDCHAR
STARTCHAR char7991
ENCODING 7991
SWIDTH 540 0
DWIDTH 6 0
BBX 6 12 0 -2
BITMAP
00
00
78
20
10
20
20
20
28
10
00
00
ENDCHAR
STARTCHAR char7992
ENCODING 7992
SWIDTH 540 0
DWIDTH 6 0
BBX 6 12 0 -2
BITMAP
00
00
00
DC
48
88
08
08
08
1C
00
00
ENDCHAR
STARTCHAR char7993
ENCODING 7993
SWIDTH 540 0
DWIDTH 6 0
BBX 6 12 0 -2
BITMAP
00
00
00
DC
88
48
08
08
08
1C
00
00
ENDCHAR
STARTCHAR char7994
ENCODING 7994
SWIDTH 540 0
DWIDTH 6 0
BBX 6 12 0 -2
BITMAP
00
00
00
DC
48
88
88
48
08
1C
00
00
ENDCHAR
STARTCHAR char7995
ENCODING 7995
SWIDTH 540 0
DWIDTH 6 0
BBX 6 12 0 -2
BITMAP
00
00
00
DC
88
48
88
48
08
1C
00
00
ENDCHAR
STARTCHAR char7996
ENCODING 7996
SWIDTH 540 0
DWIDTH 6 0
BBX 6 12 0 -2
BITMAP
00
00
00
DC
48
88
48
88
08
1C
00
00
ENDCHAR
STARTCHAR char7997
ENCODING 7997
SWIDTH 540 0
DWIDTH 6 0
BBX 6 12 0 -2
BITMAP
00
00
00
DC
88
48
48
88
08
1C
00
00
ENDCHAR
STARTCHAR char7998
ENCODING 7998
SWIDTH 540 0
DWIDTH 6 0
BBX 6 12 0 -2
BITMAP
00
00
00
DC
08
C8
48
88
08
1C
00
00
ENDCHAR
STARTCHAR char7999
ENCODING 7999
SWIDTH 540 0
DWIDTH 6 0
BBX 6 12 0 -2
BITMAP
00
00
00
DC
08
C8
88
48
08
1C
00
00
ENDCHAR
STARTCHAR char8000
ENCODING 8000
SWIDTH 540 0
DWIDTH 6 0
BBX 6 12 0 -2
BITMAP
00
00
30
10
20
70
88
88
88
70
00
00
ENDCHAR
STARTCHAR char8001
ENCODING 8001
SWIDTH 540 0
DWIDTH 6 0
BBX 6 12 0 -2
BITMAP
00
00
30
20
10
70
88
88
88
70
00
00
ENDCHAR
STARTCHAR char8002
ENCODING 8002
SWIDTH 540 0
DWIDTH 6 0
BBX 6 12 0 -2
BITMAP
00
00
70
28
40
70
88
88
88
70
00
00
ENDCHAR
STARTCHAR char8003
ENCODING 8003
SWIDTH 540 0
DWIDTH 6 0
BBX 6 12 0 -2
BITMAP
00
00
70
48
20
70
88
88
88
70
00
00
ENDCHAR
STARTCHAR char8004
ENCODING 8004
SWIDTH 540 0
DWIDTH 6 0
BBX 6 12 0 -2
BITMAP
00
00
68
30
40
70
88
88
88
70
00
00
ENDCHAR
STARTCHAR char8005
ENCODING 8005
SWIDTH 540 0
DWIDTH 6 0
BBX 6 12 0 -2
BITMAP
00
00
68
50
20
70
88
88
88
70
00
00
ENDCHAR
STARTCHAR char8008
ENCODING 8008
SWIDTH 540 0
DWIDTH 6 0
BBX 6 12 0 -2
BITMAP
00
00
00
D8
64
A4
24
24
24
18
00
00
ENDCHAR
STARTCHAR char8009
ENCODING 8009
SWIDTH 540 0
DWIDTH 6 0
BBX 6 12 0 -2
BITMAP
00
00
00
D8
A4
64
24
24
24
18
00
00
ENDCHAR
STARTCHAR char8010
ENCODING 8010
SWIDTH 540 0
DWIDTH 6 0
BBX 6 12 0 -2
BITMAP
00
00
00
D8
64
A4
A4
64
24
18
00
00
ENDCHAR
STARTCHAR char8011
ENCODING 8011
SWIDTH 540 0
DWIDTH 6 0
BBX 6 12 0 -2
BITMAP
00
00
00
D8
A4
64
A4
64
24
18
00
00
ENDCHAR
STARTCHAR char8012
ENCODING 8012
SWIDTH 540 0
DWIDTH 6 0
BBX 6 12 0 -2
BITMAP
00
00
00
D8
64
A4
64
A4
24
18
00
00
ENDCHAR
STARTCHAR char8013
ENCODING 8013
SWIDTH 540 0
DWIDTH 6 0
BBX 6 12 0 -2
BITMAP
00
00
00
D8
A4
64
64
A4
24
18
00
00
ENDCHAR
STARTCHAR char8016
ENCODING 8016
SWIDTH 540 0
DWIDTH 6 0
BBX 6 12 0 -2
BITMAP
00
00
30
10
20
88
88
88
88
70
00
00
ENDCHAR
STARTCHAR char8017
ENCODING 8017
SWIDTH 540 0
DWIDTH 6 0
BBX 6 12 0 -2
BITMAP
00
00
30
20
10
88
88
88
88
70
00
00
ENDCHAR
STARTCHAR char8018
ENCODING 8018
SWIDTH 540 0
DWIDTH 6 0
BBX 6 12 0 -2
BITMAP
00
00
70
28
40
88
88
88
88
70
00
00
ENDCHAR
STARTCHAR char8019
ENCODING 8019
SWIDTH 540 0
DWIDTH 6 0
BBX 6 12 0 -2
BITMAP
00
00
70
48
20
88
88
88
88
70
00
00
ENDCHAR
STARTCHAR char8020
ENCODING 8020
SWIDTH 540 0
DWIDTH 6 0
BBX 6 12 0 -2
BITMAP
00
00
68
30
40
88
88
88
88
70
00
00
ENDCHAR
STARTCHAR char8021
ENCODING 8021
SWIDTH 540 0
DWIDTH 6 0
BBX 6 12 0 -2
BITMAP
00
00
68
50
20
88
88
88
88
70
00
00
ENDCHAR
STARTCHAR char8022
ENCODING 8022
SWIDTH 540 0
DWIDTH 6 0
BBX 6 12 0 -2
BITMAP
00
00
78
10
20
88
88
88
88
70
00
00
ENDCHAR
STARTCHAR char8023
ENCODING 8023
SWIDTH 540 0
DWIDTH 6 0
BBX 6 12 0 -2
BITMAP
00
00
78
20
10
88
88
88
88
70
00
00
ENDCHAR
STARTCHAR char8025
ENCODING 8025
SWIDTH 540 0
DWIDTH 6 0
BBX 6 12 0 -2
BITMAP
00
00
00
D4
94
54
08
08
08
08
00
00
ENDCHAR
STARTCHAR char8027
ENCODING 8027
SWIDTH 540 0
DWIDTH 6 0
BBX 6 12 0 -2
BITMAP
00
00
00
D4
94
54
88
48
08
08
00
00
ENDCHAR
STARTCHAR char8029
ENCODING 8029
SWIDTH 540 0
DWIDTH 6 0
BBX 6 12 0 -2
BITMAP
00
00
00
D4
94
54
48
88
08
08
00
00
ENDCHAR
STARTCHAR char8031
ENCODING 8031
SWIDTH 540 0
DWIDTH 6 0
BBX 6 12 0 -2
BITMAP
00
00
00
D4
14
D4
88
48
08
08
00
00
ENDCHAR
STARTCHAR char8032
ENCODING 8032
SWIDTH 540 0
DWIDTH 6 0
BBX 6 12 0 -2
BITMAP
00
00
30
10
20
88
A8
A8
A8
50
00
00
ENDCHAR
STARTCHAR char8033
ENCODING 8033
SWIDTH 540 0
DWIDTH 6 0
BBX 6 12 0 -2
BITMAP
00
00
30
20
10
88
A8
A8
A8
50
00
00
ENDCHAR
STARTCHAR char8034
ENCODING 8034
SWIDTH 540 0
DWIDTH 6 0
BBX 6 12 0 -2
BITMAP
00
00
70
28
40
88
A8
A8
A8
50
00
00
ENDCHAR
STARTCHAR char8035
ENCODING 8035
SWIDTH 540 0
DWIDTH 6 0
BBX 6 12 0 -2
BITMAP
00
00
70
48
20
88
A8
A8
A8
50
00
00
ENDCHAR
STARTCHAR char8036
ENCODING 8036
SWIDTH 540 0
DWIDTH 6 0
BBX 6 12 0 -2
BITMAP
00
00
68
30
40
88
A8
A8
A8
50
00
00
ENDCHAR
STARTCHAR char8037
ENCODING 8037
SWIDTH 540 0
DWIDTH 6 0
BBX 6 12 0 -2
BITMAP
00
00
68
50
20
88
A8
A8
A8
50
00
00
ENDCHAR
STARTCHAR char8038
ENCODING 8038
SWIDTH 540 0
DWIDTH 6 0
BBX 6 12 0 -2
BITMAP
00
00
78
10
20
88
A8
A8
A8
50
00
00
ENDCHAR
STARTCHAR char8039
ENCODING 8039
SWIDTH 540 0
DWIDTH 6 0
BBX 6 12 0 -2
BITMAP
00
00
78
20
10
88
A8
A8
A8
50
00
00
ENDCHAR
STARTCHAR char8040
ENCODING 8040
SWIDTH 540 0
DWIDTH 6 0
BBX 6 12 0 -2
BITMAP
00
00
00
D8
64
A4
24
24
18
3C
00
00
ENDCHAR
STARTCHAR char8041
ENCODING 8041
SWIDTH 540 0
DWIDTH 6 0
BBX 6 12 0 -2
BITMAP
00
00
00
D8
A4
64
24
24
18
3C
00
00
ENDCHAR
STARTCHAR char8042
ENCODING 8042
SWIDTH 540 0
DWIDTH 6 0
BBX 6 12 0 -2
BITMAP
00
00
00
D8
64
A4
A4
64
18
3C
00
00
ENDCHAR
STARTCHAR char8043
ENCODING 8043
SWIDTH 540 0
DWIDTH 6 0
BBX 6 12 0 -2
BITMAP
00
00
00
D8
A4
64
A4
64
18
3C
00
00
ENDCHAR
STARTCHAR char8044
ENCODING 8044
SWIDTH 540 0
DWIDTH 6 0
BBX 6 12 0 -2
BITMAP
00
00
00
D8
64
A4
64
A4
18
3C
00
00
ENDCHAR
STARTCHAR char8045
ENCODING 8045
SWIDTH 540 0
DWIDTH 6 0
BBX 6 12 0 -2
BITMAP
00
00
00
D8
A4
64
64
A4
18
3C
00
00
ENDCHAR
STARTCHAR char8046
ENCODING 8046
SWIDTH 540 0
DWIDTH 6 0
BBX 6 12 0 -2
BITMAP
00
00
00
D8
24
E4
64
A4
18
3C
00
00
ENDCHAR
STARTCHAR char8047
ENCODING 8047
SWIDTH 540 0
DWIDTH 6 0
BBX 6 12 0 -2
BITMAP
00
00
00
D8
24
E4
A4
64
18
3C
00
00
ENDCHAR
STARTCHAR char8048
ENCODING 8048
SWIDTH 540 0
DWIDTH 6 0
BBX 6 12 0 -2
BITMAP
00
00
40
20
00
70
88
88
98
68
00
00
ENDCHAR
STARTCHAR char8049
ENCODING 8049
SWIDTH 540 0
DWIDTH 6 0
BBX 6 12 0 -2
BITMAP
00
00
10
20
00
70
88
88
98
68
00
00
ENDCHAR
STARTCHAR char8050
ENCODING 8050
SWIDTH 540 0
DWIDTH 6 0
BBX 6 12 0 -2
BITMAP
00
00
40
20
00
70
88
60
88
70
00
00
ENDCHAR
STARTCHAR char8051
ENCODING 8051
SWIDTH 540 0
DWIDTH 6 0
BBX 6 12 0 -2
BITMAP
00
00
10
20
00
70
88
60
88
70
00
00
ENDCHAR
STARTCHAR char8052
ENCODING 8052
SWIDTH 540 0
DWIDTH 6 0
BBX 6 12 0 -2
BITMAP
00
00
40
20
00
B0
C8
88
88
88
08
08
ENDCHAR
STARTCHAR char8053
ENCODING 8053
SWIDTH 540 0
DWIDTH 6 0
BBX 6 12 0 -2
BITMAP
00
00
10
20
00
B0
C8
88
88
88
08
08
ENDCHAR
STARTCHAR char8054
ENCODING 8054
SWIDTH 540 0
DWIDTH 6 0
BBX 6 12 0 -2
BITMAP
00
00
40
20
00
20
20
20
28
10
00
00
ENDCHAR
STARTCHAR char8055
ENCODING 8055
SWIDTH 540 0
DWIDTH 6 0
BBX 6 12 0 -2
BITMAP
00
00
20
40
00
40
40
40
50
20
00
00
ENDCHAR
STARTCHAR char8056
ENCODING 8056
SWIDTH 540 0
DWIDTH 6 0
BBX 6 12 0 -2
BITMAP
00
00
40
20
00
70
88
88
88
70
00
00
ENDCHAR
STARTCHAR char8057
ENCODING 8057
SWIDTH 540 0
DWIDTH 6 0
BBX 6 12 0 -2
BITMAP
00
00
10
20
00
70
88
88
88
70
00
00
ENDCHAR
STARTCHAR char8058
ENCODING 8058
SWIDTH 540 0
DWIDTH 6 0
BBX 6 12 0 -2
BITMAP
00
00
40
20
00
88
88
88
88
70
00
00
ENDCHAR
STARTCHAR char8059
ENCODING 8059
SWIDTH 540 0
DWIDTH 6 0
BBX 6 12 0 -2
BITMAP
00
00
10
20
00
88
88
88
88
70
00
00
ENDCHAR
STARTCHAR char8060
ENCODING 8060
SWIDTH 540 0
DWIDTH 6 0
BBX 6 12 0 -2
BITMAP
00
00
40
20
00
88
A8
A8
A8
50
00
00
ENDCHAR
STARTCHAR char8061
ENCODING 8061
SWIDTH 540 0
DWIDTH 6 0
BBX 6 12 0 -2
BITMAP
00
00
10
20
00
88
A8
A8
A8
50
00
00
ENDCHAR
STARTCHAR char8064
ENCODING 8064
SWIDTH 540 0
DWIDTH 6 0
BBX 6 12 0 -2
BITMAP
00
00
30
10
20
70
88
88
98
68
00
20
ENDCHAR
STARTCHAR char8065
ENCODING 8065
SWIDTH 540 0
DWIDTH 6 0
BBX 6 12 0 -2
BITMAP
00
00
30
20
10
70
88
88
98
68
00
20
ENDCHAR
STARTCHAR char8066
ENCODING 8066
SWIDTH 540 0
DWIDTH 6 0
BBX 6 12 0 -2
BITMAP
00
00
70
28
40
70
88
88
98
68
00
20
ENDCHAR
STARTCHAR char8067
ENCODING 8067
SWIDTH 540 0
DWIDTH 6 0
BBX 6 12 0 -2
BITMAP
00
00
70
48
20
70
88
88
98
68
00
20
ENDCHAR
STARTCHAR char8068
ENCODING 8068
SWIDTH 540 0
DWIDTH 6 0
BBX 6 12 0 -2
BITMAP
00
00
68
30
40
70
88
88
98
68
00
20
ENDCHAR
STARTCHAR char8069
ENCODING 8069
SWIDTH 540 0
DWIDTH 6 0
BBX 6 12 0 -2
BITMAP
00
00
68
50
20
70
88
88
98
68
00
20
ENDCHAR
STARTCHAR char8070
ENCODING 8070
SWIDTH 540 0
DWIDTH 6 0
BBX 6 12 0 -2
BITMAP
00
00
78
10
20
70
88
88
98
68
00
20
ENDCHAR
STARTCHAR char8071
ENCODING 8071
SWIDTH 540 0
DWIDTH 6 0
BBX 6 12 0 -2
BITMAP
00
00
78
20
10
70
88
88
98
68
00
20
ENDCHAR
STARTCHAR char8072
ENCODING 8072
SWIDTH 540 0
DWIDTH 6 0
BBX 6 12 0 -2
BITMAP
00
00
00
D8
64
A4
24
3C
24
24
00
10
ENDCHAR
STARTCHAR char8073
ENCODING 8073
SWIDTH 540 0
DWIDTH 6 0
BBX 6 12 0 -2
BITMAP
00
00
00
D8
A4
64
24
3C
24
24
00
10
ENDCHAR
STARTCHAR char8074
ENCODING 8074
SWIDTH 540 0
DWIDTH 6 0
BBX 6 12 0 -2
BITMAP
00
00
00
D8
64
A4
A4
7C
24
24
00
10
ENDCHAR
STARTCHAR char8075
ENCODING 8075
SWIDTH 540 0
DWIDTH 6 0
BBX 6 12 0 -2
BITMAP
00
00
00
D8
A4
64
A4
7C
24
24
00
10
ENDCHAR
STARTCHAR char8076
ENCODING 8076
SWIDTH 540 0
DWIDTH 6 0
BBX 6 12 0 -2
BITMAP
00
00
00
D8
64
A4
64
BC
24
24
00
10
ENDCHAR
STARTCHAR char8077
ENCODING 8077
SWIDTH 540 0
DWIDTH 6 0
BBX 6 12 0 -2
BITMAP
00
00
00
D8
A4
64
64
BC
24
24
00
10
ENDCHAR
STARTCHAR char8078
ENCODING 8078
SWIDTH 540 0
DWIDTH 6 0
BBX 6 12 0 -2
BITMAP
00
00
00
D8
24
E4
64
BC
24
24
00
10
ENDCHAR
STARTCHAR char8079
ENCODING 8079
SWIDTH 540 0
DWIDTH 6 0
BBX 6 12 0 -2
BITMAP
00
00
00
D8
24
E4
A4
7C
24
24
00
10
ENDCHAR
STARTCHAR char8080
ENCODING 8080
SWIDTH 540 0
DWIDTH 6 0
BBX 6 12 0 -2
BITMAP
00
00
30
10
20
B0
C8
88
88
88
08
88
ENDCHAR
STARTCHAR char8081
ENCODING 8081
SWIDTH 540 0
DWIDTH 6 0
BBX 6 12 0 -2
BITMAP
00
00
30
20
10
B0
C8
88
88
88
08
88
ENDCHAR
STARTCHAR char8082
ENCODING 8082
SWIDTH 540 0
DWIDTH 6 0
BBX 6 12 0 -2
BITMAP
00
00
70
28
40
B0
C8
88
88
88
08
88
ENDCHAR
STARTCHAR char8083
ENCODING 8083
SWIDTH 540 0
DWIDTH 6 0
BBX 6 12 0 -2
BITMAP
00
00
70
48
20
B0
C8
88
88
88
08
88
ENDCHAR
STARTCHAR char8084
ENCODING 8084
SWIDTH 540 0
DWIDTH 6 0
BBX 6 12 0 -2
BITMAP
00
00
68
30
40
B0
C8
88
88
88
08
88
ENDCHAR
STARTCHAR char8085
ENCODING 8085
SWIDTH 540 0
DWIDTH 6 0
BBX 6 12 0 -2
BITMAP
00
00
68
50
20
B0
C8
88
88
88
08
88
ENDCHAR
STARTCHAR char8086
ENCODING 8086
SWIDTH 540 0
DWIDTH 6 0
BBX 6 12 0 -2
BITMAP
00
00
78
10
20
B0
C8
88
88
88
08
88
ENDCHAR
STARTCHAR char8087
ENCODING 8087
SWIDTH 540 0
DWIDTH 6 0
BBX 6 12 0 -2
BITMAP
00
00
78
20
10
B0
C8
88
88
88
08
88
ENDCHAR
STARTCHAR char8088
ENCODING 8088
SWIDTH 540 0
DWIDTH 6 0
BBX 6 12 0 -2
BITMAP
00
00
00
E4
64
A4
3C
24
24
24
00
10
ENDCHAR
STARTCHAR char8089
ENCODING 8089
SWIDTH 540 0
DWIDTH 6 0
BBX 6 12 0 -2
BITMAP
00
00
00
E4
A4
64
3C
24
24
24
00
10
ENDCHAR
STARTCHAR char8090
ENCODING 8090
SWIDTH 540 0
DWIDTH 6 0
BBX 6 12 0 -2
BITMAP
00
00
00
E4
64
A4
BC
64
24
24
00
10
ENDCHAR
STARTCHAR char8091
ENCODING 8091
SWIDTH 540 0
DWIDTH 6 0
BBX 6 12 0 -2
BITMAP
00
00
00
E4
A4
64
BC
64
24
24
00
10
ENDCHAR
STARTCHAR char8092
ENCODING 8092
SWIDTH 540 0
DWIDTH 6 0
BBX 6 12 0 -2
BITMAP
00
00
00
E4
64
A4
7C
A4
24
24
00
10
ENDCHAR
STARTCHAR char8093
ENCODING 8093
SWIDTH 540 0
DWIDTH 6 0
BBX 6 12 0 -2
BITMAP
00
00
00
E4
A4
64
7C
A4
24
24
00
10
ENDCHAR
STARTCHAR char8094
ENCODING 8094
SWIDTH 540 0
DWIDTH 6 0
BBX 6 12 0 -2
BITMAP
00
00
00
E4
24
E4
7C
A4
24
24
00
10
ENDCHAR
STARTCHAR char8095
ENCODING 8095
SWIDTH 540 0
DWIDTH 6 0
BBX 6 12 0 -2
BITMAP
00
00
00
E4
24
E4
BC
64
24
24
00
10
ENDCHAR
STARTCHAR char8096
ENCODING 8096
SWIDTH 540 0
DWIDTH 6 0
BBX 6 12 0 -2
BITMAP
00
00
30
10
20
88
A8
A8
A8
50
00
20
ENDCHAR
STARTCHAR char8097
ENCODING 8097
SWIDTH 540 0
DWIDTH 6 0
BBX 6 12 0 -2
BITMAP
00
00
30
20
10
88
A8
A8
A8
50
00
20
ENDCHAR
STARTCHAR char8098
ENCODING 8098
SWIDTH 540 0
DWIDTH 6 0
BBX 6 12 0 -2
BITMAP
00
00
70
28
40
88
A8
A8
A8
50
00
20
ENDCHAR
STARTCHAR char8099
ENCODING 8099
SWIDTH 540 0
DWIDTH 6 0
BBX 6 12 0 -2
BITMAP
00
00
70
48
20
88
A8
A8
A8
50
00
20
ENDCHAR
STARTCHAR char8100
ENCODING 8100
SWIDTH 540 0
DWIDTH 6 0
BBX 6 12 0 -2
BITMAP
00
00
68
30
40
88
A8
A8
A8
50
00
20
ENDCHAR
STARTCHAR char8101
ENCODING 8101
SWIDTH 540 0
DWIDTH 6 0
BBX 6 12 0 -2
BITMAP
00
00
68
50
20
88
A8
A8
A8
50
00
20
ENDCHAR
STARTCHAR char8102
ENCODING 8102
SWIDTH 540 0
DWIDTH 6 0
BBX 6 12 0 -2
BITMAP
00
00
78
10
20
88
A8
A8
A8
50
00
20
ENDCHAR
STARTCHAR char8103
ENCODING 8103
SWIDTH 540 0
DWIDTH 6 0
BBX 6 12 0 -2
BITMAP
00
00
78
20
10
88
A8
A8
A8
50
00
20
ENDCHAR
STARTCHAR char8104
ENCODING 8104
SWIDTH 540 0
DWIDTH 6 0
BBX 6 12 0 -2
BITMAP
00
00
00
D8
64
A4
24
24
18
3C
00
10
ENDCHAR
STARTCHAR char8105
ENCODING 8105
SWIDTH 540 0
DWIDTH 6 0
BBX 6 12 0 -2
BITMAP
00
00
00
D8
A4
64
24
24
18
3C
00
10
ENDCHAR
STARTCHAR char8106
ENCODING 8106
SWIDTH 540 0
DWIDTH 6 0
BBX 6 12 0 -2
BITMAP
00
00
00
D8
64
A4
A4
64
18
3C
00
10
ENDCHAR
STARTCHAR char8107
ENCODING 8107
SWIDTH 540 0
DWIDTH 6 0
BBX 6 12 0 -2
BITMAP
00
00
00
D8
A4
64
A4
64
18
3C
00
10
ENDCHAR
STARTCHAR char8108
ENCODING 8108
SWIDTH 540 0
DWIDTH 6 0
BBX 6 12 0 -2
BITMAP
00
00
00
D8
64
A4
64
A4
18
3C
00
10
ENDCHAR
STARTCHAR char8109
ENCODING 8109
SWIDTH 540 0
DWIDTH 6 0
BBX 6 12 0 -2
BITMAP
00
00
00
D8
A4
64
64
A4
18
3C
00
10
ENDCHAR
STARTCHAR char8110
ENCODING 8110
SWIDTH 540 0
DWIDTH 6 0
BBX 6 12 0 -2
BITMAP
00
00
00
D8
24
E4
64
A4
18
3C
00
10
ENDCHAR
STARTCHAR char8111
ENCODING 8111
SWIDTH 540 0
DWIDTH 6 0
BBX 6 12 0 -2
BITMAP
00
00
00
D8
24
E4
A4
64
18
3C
00
10
ENDCHAR
STARTCHAR char8112
ENCODING 8112
SWIDTH 540 0
DWIDTH 6 0
BBX 6 12 0 -2
BITMAP
00
00
88
70
00
70
88
88
98
68
00
00
ENDCHAR
STARTCHAR char8113
ENCODING 8113
SWIDTH 540 0
DWIDTH 6 0
BBX 6 12 0 -2
BITMAP
00
00
00
F8
00
70
88
88
98
68
00
00
ENDCHAR
STARTCHAR char8114
ENCODING 8114
SWIDTH 540 0
DWIDTH 6 0
BBX 6 12 0 -2
BITMAP
00
00
40
20
00
70
88
88
98
68
00
20
ENDCHAR
STARTCHAR char8115
ENCODING 8115
SWIDTH 540 0
DWIDTH 6 0
BBX 6 12 0 -2
BITMAP
00
00
00
00
00
70
88
88
98
68
00
20
ENDCHAR
STARTCHAR char8116
ENCODING 8116
SWIDTH 540 0
DWIDTH 6 0
BBX 6 12 0 -2
BITMAP
00
00
10
20
00
70
88
88
98
68
00
20
ENDCHAR
STARTCHAR char8118
ENCODING 8118
SWIDTH 540 0
DWIDTH 6 0
BBX 6 12 0 -2
BITMAP
00
00
00
78
00
70
88
88
98
68
00
00
ENDCHAR
STARTCHAR char8119
ENCODING 8119
SWIDTH 540 0
DWIDTH 6 0
BBX 6 12 0 -2
BITMAP
00
00
00
78
00
70
88
88
98
68
00
20
ENDCHAR
STARTCHAR char8120
ENCODING 8120
SWIDTH 540 0
DWIDTH 6 0
BBX 6 12 0 -2
BITMAP
00
00
88
70
70
88
88
F8
88
88
00
00
ENDCHAR
STARTCHAR char8121
ENCODING 8121
SWIDTH 540 0
DWIDTH 6 0
BBX 6 12 0 -2
BITMAP
00
00
F8
00
70
88
88
F8
88
88
00
00
ENDCHAR
STARTCHAR char8122
ENCODING 8122
SWIDTH 540 0
DWIDTH 6 0
BBX 6 12 0 -2
BITMAP
00
00
00
98
64
24
24
3C
24
24
00
00
ENDCHAR
STARTCHAR char8123
ENCODING 8123
SWIDTH 540 0
DWIDTH 6 0
BBX 6 12 0 -2
BITMAP
00
00
00
58
A4
24
24
3C
24
24
00
00
ENDCHAR
STARTCHAR char8124
ENCODING 8124
SWIDTH 540 0
DWIDTH 6 0
BBX 6 12 0 -2
BITMAP
00
00
00
20
50
88
88
F8
88
88
20
30
ENDCHAR
STARTCHAR char8125
ENCODING 8125
SWIDTH 540 0
DWIDTH 6 0
BBX 6 12 0 -2
BITMAP
00
00
00
30
10
20
00
00
00
00
00
00
ENDCHAR
STARTCHAR char8126
ENCODING 8126
SWIDTH 540 0
DWIDTH 6 0
BBX 6 12 0 -2
BITMAP
00
00
00
00
00
00
00
20
20
10
00
00
ENDCHAR
STARTCHAR char8127
ENCODING 8127
SWIDTH 540 0
DWIDTH 6 0
BBX 6 12 0 -2
BITMAP
00
00
00
30
10
20
00
00
00
00
00
00
ENDCHAR
STARTCHAR char8128
ENCODING 8128
SWIDTH 540 0
DWIDTH 6 0
BBX 6 12 0 -2
BITMAP
00
00
00
78
00
00
00
00
00
00
00
00
ENDCHAR
STARTCHAR char8129
ENCODING 8129
SWIDTH 540 0
DWIDTH 6 0
BBX 6 12 0 -2
BITMAP
00
00
00
F8
00
88
00
00
00
00
00
00
ENDCHAR
STARTCHAR char8130
ENCODING 8130
SWIDTH 540 0
DWIDTH 6 0
BBX 6 12 0 -2
BITMAP
00
00
40
20
00
B0
C8
88
88
88
08
88
ENDCHAR
STARTCHAR char8131
ENCODING 8131
SWIDTH 540 0
DWIDTH 6 0
BBX 6 12 0 -2
BITMAP
00
00
00
00
00
B0
C8
88
88
88
08
88
ENDCHAR
STARTCHAR char8132
ENCODING 8132
SWIDTH 540 0
DWIDTH 6 0
BBX 6 12 0 -2
BITMAP
00
00
10
20
00
B0
C8
88
88
88
08
88
ENDCHAR
STARTCHAR char8134
ENCODING 8134
SWIDTH 540 0
DWIDTH 6 0
BBX 6 12 0 -2
BITMAP
00
00
00
78
00
B0
C8
88
88
88
08
08
ENDCHAR
STARTCHAR char8135
ENCODING 8135
SWIDTH 540 0
DWIDTH 6 0
BBX 6 12 0 -2
BITMAP
00
00
00
78
00
B0
C8
88
88
88
08
88
ENDCHAR
STARTCHAR char8136
ENCODING 8136
SWIDTH 540 0
DWIDTH 6 0
BBX 6 12 0 -2
BITMAP
00
00
00
BC
60
20
38
20
20
3C
00
00
ENDCHAR
STARTCHAR char8137
ENCODING 8137
SWIDTH 540 0
DWIDTH 6 0
BBX 6 12 0 -2
BITMAP
00
00
00
7C
A0
20
38
20
20
3C
00
00
ENDCHAR
STARTCHAR char8138
ENCODING 8138
SWIDTH 540 0
DWIDTH 6 0
BBX 6 12 0 -2
BITMAP
00
00
00
A4
64
24
3C
24
24
24
00
00
ENDCHAR
STARTCHAR char8139
ENCODING 8139
SWIDTH 540 0
DWIDTH 6 0
BBX 6 12 0 -2
BITMAP
00
00
00
64
A4
24
3C
24
24
24
00
00
ENDCHAR
STARTCHAR char8140
ENCODING 8140
SWIDTH 540 0
DWIDTH 6 0
BBX 6 12 0 -2
BITMAP
00
00
00
88
88
88
F8
88
88
88
20
30
ENDCHAR
STARTCHAR char8141
ENCODING 8141
SWIDTH 540 0
DWIDTH 6 0
BBX 6 12 0 -2
BITMAP
00
00
00
70
28
40
00
00
00
00
00
00
ENDCHAR
STARTCHAR char8142
ENCODING 8142
SWIDTH 540 0
DWIDTH 6 0
BBX 6 12 0 -2
BITMAP
00
00
00
68
30
40
00
00
00
00
00
00
ENDCHAR
STARTCHAR char8143
ENCODING 8143
SWIDTH 540 0
DWIDTH 6 0
BBX 6 12 0 -2
BITMAP
00
00
00
78
10
20
00
00
00
00
00
00
ENDCHAR
STARTCHAR char8144
ENCODING 8144
SWIDTH 540 0
DWIDTH 6 0
BBX 6 12 0 -2
BITMAP
00
00
88
70
00
20
20
20
28
10
00
00
ENDCHAR
STARTCHAR char8145
ENCODING 8145
SWIDTH 540 0
DWIDTH 6 0
BBX 6 12 0 -2
BITMAP
00
00
00
F8
00
20
20
20
28
10
00
00
ENDCHAR
STARTCHAR char8146
ENCODING 8146
SWIDTH 540 0
DWIDTH 6 0
BBX 6 12 0 -2
BITMAP
00
00
40
A8
00
20
20
20
28
10
00
00
ENDCHAR
STARTCHAR char8147
ENCODING 8147
SWIDTH 540 0
DWIDTH 6 0
BBX 6 12 0 -2
BITMAP
00
00
10
A8
00
20
20
20
28
10
00
00
ENDCHAR
STARTCHAR char8150
ENCODING 8150
SWIDTH 540 0
DWIDTH 6 0
BBX 6 12 0 -2
BITMAP
00
00
00
78
00
20
20
20
28
10
00
00
ENDCHAR
STARTCHAR char8151
ENCODING 8151
SWIDTH 540 0
DWIDTH 6 0
BBX 6 12 0 -2
BITMAP
00
00
F8
00
88
20
20
20
28
10
00
00
ENDCHAR
STARTCHAR char8152
ENCODING 8152
SWIDTH 540 0
DWIDTH 6 0
BBX 6 12 0 -2
BITMAP
00
00
88
70
70
20
20
20
20
70
00
00
ENDCHAR
STARTCHAR char8153
ENCODING 8153
SWIDTH 540 0
DWIDTH 6 0
BBX 6 12 0 -2
BITMAP
00
00
F8
00
70
20
20
20
20
70
00
00
ENDCHAR
STARTCHAR char8154
ENCODING 8154
SWIDTH 540 0
DWIDTH 6 0
BBX 6 12 0 -2
BITMAP
00
00
00
9C
48
08
08
08
08
1C
00
00
ENDCHAR
STARTCHAR char8155
ENCODING 8155
SWIDTH 540 0
DWIDTH 6 0
BBX 6 12 0 -2
BITMAP
00
00
00
5C
88
08
08
08
08
1C
00
00
ENDCHAR
STARTCHAR char8157
ENCODING 8157
SWIDTH 540 0
DWIDTH 6 0
BBX 6 12 0 -2
BITMAP
00
00
00
68
30
40
00
00
00
00
00
00
ENDCHAR
STARTCHAR char8158
ENCODING 8158
SWIDTH 540 0
DWIDTH 6 0
BBX 6 12 0 -2
BITMAP
00
00
00
68
50
20
00
00
00
00
00
00
ENDCHAR
STARTCHAR char8159
ENCODING 8159
SWIDTH 540 0
DWIDTH 6 0
BBX 6 12 0 -2
BITMAP
00
00
00
78
20
10
00
00
00
00
00
00
ENDCHAR
STARTCHAR char8160
ENCODING 8160
SWIDTH 540 0
DWIDTH 6 0
BBX 6 12 0 -2
BITMAP
00
00
88
70
00
88
88
88
88
70
00
00
ENDCHAR
STARTCHAR char8161
ENCODING 8161
SWIDTH 540 0
DWIDTH 6 0
BBX 6 12 0 -2
BITMAP
00
00
00
F8
00
88
88
88
88
70
00
00
ENDCHAR
STARTCHAR char8162
ENCODING 8162
SWIDTH 540 0
DWIDTH 6 0
BBX 6 12 0 -2
BITMAP
00
00
40
A8
00
88
88
88
88
70
00
00
ENDCHAR
STARTCHAR char8163
ENCODING 8163
SWIDTH 540 0
DWIDTH 6 0
BBX 6 12 0 -2
BITMAP
00
00
10
A8
00
88
88
88
88
70
00
00
ENDCHAR
STARTCHAR char8164
ENCODING 8164
SWIDTH 540 0
DWIDTH 6 0
BBX 6 12 0 -2
BITMAP
00
00
30
10
20
70
88
88
88
F0
80
80
ENDCHAR
STARTCHAR char8165
ENCODING 8165
SWIDTH 540 0
DWIDTH 6 0
BBX 6 12 0 -2
BITMAP
00
00
30
20
10
70
88
88
88
F0
80
80
ENDCHAR
STARTCHAR char8166
ENCODING 8166
SWIDTH 540 0
DWIDTH 6 0
BBX 6 12 0 -2
BITMAP
00
00
00
78
00
88
88
88
88
70
00
00
ENDCHAR
STARTCHAR char8167
ENCODING 8167
SWIDTH 540 0
DWIDTH 6 0
BBX 6 12 0 -2
BITMAP
00
00
F8
00
88
00
88
88
88
70
00
00
ENDCHAR
STARTCHAR char8168
ENCODING 8168
SWIDTH 540 0
DWIDTH 6 0
BBX 6 12 0 -2
BITMAP
00
00
88
70
88
88
50
20
20
20
00
00
ENDCHAR
STARTCHAR char8169
ENCODING 8169
SWIDTH 540 0
DWIDTH 6 0
BBX 6 12 0 -2
BITMAP
00
00
F8
00
88
88
50
20
20
20
00
00
ENDCHAR
STARTCHAR char8170
ENCODING 8170
SWIDTH 540 0
DWIDTH 6 0
BBX 6 12 0 -2
BITMAP
00
00
00
94
54
14
08
08
08
08
00
00
ENDCHAR
STARTCHAR char8171
ENCODING 8171
SWIDTH 540 0
DWIDTH 6 0
BBX 6 12 0 -2
BITMAP
00
00
00
54
94
14
08
08
08
08
00
00
ENDCHAR
STARTCHAR char8172
ENCODING 8172
SWIDTH 540 0
DWIDTH 6 0
BBX 6 12 0 -2
BITMAP
00
00
00
F8
A4
64
38
20
20
20
00
00
ENDCHAR
STARTCHAR char8173
ENCODING 8173
SWIDTH 540 0
DWIDTH 6 0
BBX 6 12 0 -2
BITMAP
00
00
00
40
A8
00
00
00
00
00
00
00
ENDCHAR
STARTCHAR char8174
ENCODING 8174
SWIDTH 540 0
DWIDTH 6 0
BBX 6 12 0 -2
BITMAP
00
00
00
10
A8
00
00
00
00
00
00
00
ENDCHAR
STARTCHAR char8175
ENCODING 8175
SWIDTH 540 0
DWIDTH 6 0
BBX 6 12 0 -2
BITMAP
00
00
00
20
10
00
00
00
00
00
00
00
ENDCHAR
STARTCHAR char8178
ENCODING 8178
SWIDTH 540 0
DWIDTH 6 0
BBX 6 12 0 -2
BITMAP
00
00
40
20
00
88
A8
A8
A8
50
00
20
ENDCHAR
STARTCHAR char8179
ENCODING 8179
SWIDTH 540 0
DWIDTH 6 0
BBX 6 12 0 -2
BITMAP
00
00
00
00
00
88
A8
A8
A8
50
00
20
ENDCHAR
STARTCHAR char8180
ENCODING 8180
SWIDTH 540 0
DWIDTH 6 0
BBX 6 12 0 -2
BITMAP
00
00
10
20
00
88
A8
A8
A8
50
00
20
ENDCHAR
STARTCHAR char8182
ENCODING 8182
SWIDTH 540 0
DWIDTH 6 0
BBX 6 12 0 -2
BITMAP
00
00
00
78
00
88
A8
A8
A8
50
00
00
ENDCHAR
STARTCHAR char8183
ENCODING 8183
SWIDTH 540 0
DWIDTH 6 0
BBX 6 12 0 -2
BITMAP
00
00
00
78
00
88
A8
A8
A8
50
00
20
ENDCHAR
STARTCHAR char8184
ENCODING 8184
SWIDTH 540 0
DWIDTH 6 0
BBX 6 12 0 -2
BITMAP
00
00
00
98
64
24
24
24
24
18
00
00
ENDCHAR
STARTCHAR char8185
ENCODING 8185
SWIDTH 540 0
DWIDTH 6 0
BBX 6 12 0 -2
BITMAP
00
00
00
58
A4
24
24
24
24
18
00
00
ENDCHAR
STARTCHAR char8186
ENCODING 8186
SWIDTH 540 0
DWIDTH 6 0
BBX 6 12 0 -2
BITMAP
00
00
00
98
64
24
24
24
18
3C
00
00
ENDCHAR
STARTCHAR char8187
ENCODING 8187
SWIDTH 540 0
DWIDTH 6 0
BBX 6 12 0 -2
BITMAP
00
00
00
58
A4
24
24
24
18
3C
00
00
ENDCHAR
STARTCHAR char8188
ENCODING 8188
SWIDTH 540 0
DWIDTH 6 0
BBX 6 12 0 -2
BITMAP
00
00
00
70
88
88
88
88
50
D8
20
30
ENDCHAR
STARTCHAR char8189
ENCODING 8189
SWIDTH 540 0
DWIDTH 6 0
BBX 6 12 0 -2
BITMAP
00
00
00
10
20
00
00
00
00
00
00
00
ENDCHAR
STARTCHAR char8190
ENCODING 8190
SWIDTH 540 0
DWIDTH 6 0
BBX 6 12 0 -2
BITMAP
00
00
00
30
20
10
00
00
00
00
00
00
ENDCHAR
STARTCHAR char8208
ENCODING 8208
SWIDTH 540 0
DWIDTH 6 0
BBX 6 12 0 -2
BITMAP
00
00
00
00
00
00
78
00
00
00
00
00
ENDCHAR
STARTCHAR char8209
ENCODING 8209
SWIDTH 540 0
DWIDTH 6 0
BBX 6 12 0 -2
BITMAP
00
00
00
00
00
00
78
00
00
00
00
00
ENDCHAR
STARTCHAR char8210
ENCODING 8210
SWIDTH 540 0
DWIDTH 6 0
BBX 6 12 0 -2
BITMAP
00
00
00
00
00
00
F8
00
00
00
00
00
ENDCHAR
STARTCHAR char8211
ENCODING 8211
SWIDTH 540 0
DWIDTH 6 0
BBX 6 12 0 -2
BITMAP
00
00
00
00
00
00
F8
00
00
00
00
00
ENDCHAR
STARTCHAR char8212
ENCODING 8212
SWIDTH 540 0
DWIDTH 6 0
BBX 6 12 0 -2
BITMAP
00
00
00
00
00
00
FC
00
00
00
00
00
ENDCHAR
STARTCHAR char8213
ENCODING 8213
SWIDTH 540 0
DWIDTH 6 0
BBX 6 12 0 -2
BITMAP
00
00
00
00
00
00
FC
00
00
00
00
00
ENDCHAR
STARTCHAR char8214
ENCODING 8214
SWIDTH 540 0
DWIDTH 6 0
BBX 6 12 0 -2
BITMAP
00
00
50
50
50
50
50
50
50
50
00
00
ENDCHAR
STARTCHAR char8215
ENCODING 8215
SWIDTH 540 0
DWIDTH 6 0
BBX 6 12 0 -2
BITMAP
00
00
00
00
00
00
00
00
00
FC
00
FC
ENDCHAR
STARTCHAR char8216
ENCODING 8216
SWIDTH 540 0
DWIDTH 6 0
BBX 6 12 0 -2
BITMAP
00
00
00
10
20
30
00
00
00
00
00
00
ENDCHAR
STARTCHAR char8217
ENCODING 8217
SWIDTH 540 0
DWIDTH 6 0
BBX 6 12 0 -2
BITMAP
00
00
00
30
10
20
00
00
00
00
00
00
ENDCHAR
STARTCHAR char8218
ENCODING 8218
SWIDTH 540 0
DWIDTH 6 0
BBX 6 12 0 -2
BITMAP
00
00
00
00
00
00
00
00
30
10
20
00
ENDCHAR
STARTCHAR char8219
ENCODING 8219
SWIDTH 540 0
DWIDTH 6 0
BBX 6 12 0 -2
BITMAP
00
00
00
30
20
10
00
00
00
00
00
00
ENDCHAR
STARTCHAR char8220
ENCODING 8220
SWIDTH 540 0
DWIDTH 6 0
BBX 6 12 0 -2
BITMAP
00
00
00
48
90
D8
00
00
00
00
00
00
ENDCHAR
STARTCHAR char8221
ENCODING 8221
SWIDTH 540 0
DWIDTH 6 0
BBX 6 12 0 -2
BITMAP
00
00
00
D8
48
90
00
00
00
00
00
00
ENDCHAR
STARTCHAR char8222
ENCODING 8222
SWIDTH 540 0
DWIDTH 6 0
BBX 6 12 0 -2
BITMAP
00
00
00
00
00
00
00
00
D8
48
90
00
ENDCHAR
STARTCHAR char8223
ENCODING 8223
SWIDTH 540 0
DWIDTH 6 0
BBX 6 12 0 -2
BITMAP
00
00
00
D8
90
48
00
00
00
00
00
00
ENDCHAR
STARTCHAR char8224
ENCODING 8224
SWIDTH 540 0
DWIDTH 6 0
BBX 6 12 0 -2
BITMAP
00
00
00
20
20
F8
20
20
20
20
00
00
ENDCHAR
STARTCHAR char8225
ENCODING 8225
SWIDTH 540 0
DWIDTH 6 0
BBX 6 12 0 -2
BITMAP
00
00
00
20
20
F8
20
F8
20
20
00
00
ENDCHAR
STARTCHAR char8226
ENCODING 8226
SWIDTH 540 0
DWIDTH 6 0
BBX 6 12 0 -2
BITMAP
00
00
00
00
00
30
78
78
30
00
00
00
ENDCHAR
STARTCHAR char8227
ENCODING 8227
SWIDTH 540 0
DWIDTH 6 0
BBX 6 12 0 -2
BITMAP
00
00
00
00
00
20
70
F8
00
00
00
00
ENDCHAR
STARTCHAR char8228
ENCODING 8228
SWIDTH 540 0
DWIDTH 6 0
BBX 6 12 0 -2
BITMAP
00
00
00
00
00
00
00
00
00
20
00
00
ENDCHAR
STARTCHAR char8229
ENCODING 8229
SWIDTH 540 0
DWIDTH 6 0
BBX 6 12 0 -2
BITMAP
00
00
00
00
00
00
00
00
00
88
00
00
ENDCHAR
STARTCHAR char8230
ENCODING 8230
SWIDTH 540 0
DWIDTH 6 0
BBX 6 12 0 -2
BITMAP
00
00
00
00
00
00
00
00
00
A8
00
00
ENDCHAR
STARTCHAR char8231
ENCODING 8231
SWIDTH 540 0
DWIDTH 6 0
BBX 6 12 0 -2
BITMAP
00
00
00
00
00
00
30
00
00
00
00
00
ENDCHAR
STARTCHAR char8240
ENCODING 8240
SWIDTH 540 0
DWIDTH 6 0
BBX 6 12 0 -2
BITMAP
00
00
00
48
A8
50
20
68
D4
A8
00
00
ENDCHAR
STARTCHAR char8242
ENCODING 8242
SWIDTH 540 0
DWIDTH 6 0
BBX 6 12 0 -2
BITMAP
00
00
10
10
20
00
00
00
00
00
00
00
ENDCHAR
STARTCHAR char8243
ENCODING 8243
SWIDTH 540 0
DWIDTH 6 0
BBX 6 12 0 -2
BITMAP
00
00
28
28
50
00
00
00
00
00
00
00
ENDCHAR
STARTCHAR char8244
ENCODING 8244
SWIDTH 540 0
DWIDTH 6 0
BBX 6 12 0 -2
BITMAP
00
00
54
54
A8
00
00
00
00
00
00
00
ENDCHAR
STARTCHAR char8245
ENCODING 8245
SWIDTH 540 0
DWIDTH 6 0
BBX 6 12 0 -2
BITMAP
00
00
20
20
10
00
00
00
00
00
00
00
ENDCHAR
STARTCHAR char8246
ENCODING 8246
SWIDTH 540 0
DWIDTH 6 0
BBX 6 12 0 -2
BITMAP
00
00
50
50
28
00
00
00
00
00
00
00
ENDCHAR
STARTCHAR char8247
ENCODING 8247
SWIDTH 540 0
DWIDTH 6 0
BBX 6 12 0 -2
BITMAP
00
00
A8
A8
54
00
00
00
00
00
00
00
ENDCHAR
STARTCHAR char8249
ENCODING 8249
SWIDTH 540 0
DWIDTH 6 0
BBX 6 12 0 -2
BITMAP
00
00
00
00
00
10
20
40
20
10
00
00
ENDCHAR
STARTCHAR char8250
ENCODING 8250
SWIDTH 540 0
DWIDTH 6 0
BBX 6 12 0 -2
BITMAP
00
00
00
00
00
40
20
10
20
40
00
00
ENDCHAR
STARTCHAR char8252
ENCODING 8252
SWIDTH 540 0
DWIDTH 6 0
BBX 6 12 0 -2
BITMAP
00
00
00
50
50
50
50
50
00
50
00
00
ENDCHAR
STARTCHAR char8254
ENCODING 8254
SWIDTH 540 0
DWIDTH 6 0
BBX 6 12 0 -2
BITMAP
00
00
FC
00
00
00
00
00
00
00
00
00
ENDCHAR
STARTCHAR char8260
ENCODING 8260
SWIDTH 540 0
DWIDTH 6 0
BBX 6 12 0 -2
BITMAP
00
00
00
08
08
10
20
40
80
80
00
00
ENDCHAR
STARTCHAR char8304
ENCODING 8304
SWIDTH 540 0
DWIDTH 6 0
BBX 6 12 0 -2
BITMAP
00
00
30
48
48
48
30
00
00
00
00
00
ENDCHAR
STARTCHAR char8305
ENCODING 8305
SWIDTH 540 0
DWIDTH 6 0
BBX 6 12 0 -2
BITMAP
00
00
20
00
60
20
70
00
00
00
00
00
ENDCHAR
STARTCHAR char8308
ENCODING 8308
SWIDTH 540 0
DWIDTH 6 0
BBX 6 12 0 -2
BITMAP
00
00
10
30
50
78
10
00
00
00
00
00
ENDCHAR
STARTCHAR char8309
ENCODING 8309
SWIDTH 540 0
DWIDTH 6 0
BBX 6 12 0 -2
BITMAP
00
00
78
40
70
08
70
00
00
00
00
00
ENDCHAR
STARTCHAR char8310
ENCODING 8310
SWIDTH 540 0
DWIDTH 6 0
BBX 6 12 0 -2
BITMAP
00
00
38
40
70
48
30
00
00
00
00
00
ENDCHAR
STARTCHAR char8311
ENCODING 8311
SWIDTH 540 0
DWIDTH 6 0
BBX 6 12 0 -2
BITMAP
00
00
78
08
10
20
20
00
00
00
00
00
ENDCHAR
STARTCHAR char8312
ENCODING 8312
SWIDTH 540 0
DWIDTH 6 0
BBX 6 12 0 -2
BITMAP
00
00
30
48
30
48
30
00
00
00
00
00
ENDCHAR
STARTCHAR char8313
ENCODING 8313
SWIDTH 540 0
DWIDTH 6 0
BBX 6 12 0 -2
BITMAP
00
00
30
48
38
08
30
00
00
00
00
00
ENDCHAR
STARTCHAR char8314
ENCODING 8314
SWIDTH 540 0
DWIDTH 6 0
BBX 6 12 0 -2
BITMAP
00
00
00
20
70
20
00
00
00
00
00
00
ENDCHAR
STARTCHAR char8315
ENCODING 8315
SWIDTH 540 0
DWIDTH 6 0
BBX 6 12 0 -2
BITMAP
00
00
00
00
70
00
00
00
00
00
00
00
ENDCHAR
STARTCHAR char8316
ENCODING 8316
SWIDTH 540 0
DWIDTH 6 0
BBX 6 12 0 -2
BITMAP
00
00
00
78
00
78
00
00
00
00
00
00
ENDCHAR
STARTCHAR char8317
ENCODING 8317
SWIDTH 540 0
DWIDTH 6 0
BBX 6 12 0 -2
BITMAP
00
00
10
20
20
20
10
00
00
00
00
00
ENDCHAR
STARTCHAR char8318
ENCODING 8318
SWIDTH 540 0
DWIDTH 6 0
BBX 6 12 0 -2
BITMAP
00
00
20
10
10
10
20
00
00
00
00
00
ENDCHAR
STARTCHAR char8319
ENCODING 8319
SWIDTH 540 0
DWIDTH 6 0
BBX 6 12 0 -2
BITMAP
00
00
00
50
68
48
48
00
00
00
00
00
ENDCHAR
STARTCHAR char8320
ENCODING 8320
SWIDTH 540 0
DWIDTH 6 0
BBX 6 12 0 -2
BITMAP
00
00
00
00
00
00
00
30
48
48
48
30
ENDCHAR
STARTCHAR char8321
ENCODING 8321
SWIDTH 540 0
DWIDTH 6 0
BBX 6 12 0 -2
BITMAP
00
00
00
00
00
00
00
20
60
20
20
70
ENDCHAR
STARTCHAR char8322
ENCODING 8322
SWIDTH 540 0
DWIDTH 6 0
BBX 6 12 0 -2
BITMAP
00
00
00
00
00
00
00
30
48
10
20
78
ENDCHAR
STARTCHAR char8323
ENCODING 8323
SWIDTH 540 0
DWIDTH 6 0
BBX 6 12 0 -2
BITMAP
00
00
00
00
00
00
00
70
08
30
08
70
ENDCHAR
STARTCHAR char8324
ENCODING 8324
SWIDTH 540 0
DWIDTH 6 0
BBX 6 12 0 -2
BITMAP
00
00
00
00
00
00
00
10
30
50
78
10
ENDCHAR
STARTCHAR char8325
ENCODING 8325
SWIDTH 540 0
DWIDTH 6 0
BBX 6 12 0 -2
BITMAP
00
00
00
00
00
00
00
78
40
70
08
70
ENDCHAR
STARTCHAR char8326
ENCODING 8326
SWIDTH 540 0
DWIDTH 6 0
BBX 6 12 0 -2
BITMAP
00
00
00
00
00
00
00
38
40
70
48
30
ENDCHAR
STARTCHAR char8327
ENCODING 8327
SWIDTH 540 0
DWIDTH 6 0
BBX 6 12 0 -2
BITMAP
00
00
00
00
00
00
00
78
08
10
20
20
ENDCHAR
STARTCHAR char8328
ENCODING 8328
SWIDTH 540 0
DWIDTH 6 0
BBX 6 12 0 -2
BITMAP
00
00
00
00
00
00
00
30
48
30
48
30
ENDCHAR
STARTCHAR char8329
ENCODING 8329
SWIDTH 540 0
DWIDTH 6 0
BBX 6 12 0 -2
BITMAP
00
00
00
00
00
00
00
30
48
38
08
30
ENDCHAR
STARTCHAR char8330
ENCODING 8330
SWIDTH 540 0
DWIDTH 6 0
BBX 6 12 0 -2
BITMAP
00
00
00
00
00
00
00
00
20
70
20
00
ENDCHAR
STARTCHAR char8331
ENCODING 8331
SWIDTH 540 0
DWIDTH 6 0
BBX 6 12 0 -2
BITMAP
00
00
00
00
00
00
00
00
00
70
00
00
ENDCHAR
STARTCHAR char8332
ENCODING 8332
SWIDTH 540 0
DWIDTH 6 0
BBX 6 12 0 -2
BITMAP
00
00
00
00
00
00
00
00
78
00
78
00
ENDCHAR
STARTCHAR char8333
ENCODING 8333
SWIDTH 540 0
DWIDTH 6 0
BBX 6 12 0 -2
BITMAP
00
00
00
00
00
00
00
10
20
20
20
10
ENDCHAR
STARTCHAR char8334
ENCODING 8334
SWIDTH 540 0
DWIDTH 6 0
BBX 6 12 0 -2
BITMAP
00
00
00
00
00
00
00
20
10
10
10
20
ENDCHAR
STARTCHAR char8355
ENCODING 8355
SWIDTH 540 0
DWIDTH 6 0
BBX 6 12 0 -2
BITMAP
00
00
00
F8
80
80
E8
B0
A0
A0
00
00
ENDCHAR
STARTCHAR char8356
ENCODING 8356
SWIDTH 540 0
DWIDTH 6 0
BBX 6 12 0 -2
BITMAP
00
00
00
30
48
E0
40
E0
48
B0
00
00
ENDCHAR
STARTCHAR char8359
ENCODING 8359
SWIDTH 540 0
DWIDTH 6 0
BBX 6 12 0 -2
BITMAP
00
00
00
70
48
FC
48
70
40
40
00
00
ENDCHAR
STARTCHAR char8363
ENCODING 8363
SWIDTH 540 0
DWIDTH 6 0
BBX 6 12 0 -2
BITMAP
00
00
00
08
3C
68
98
88
98
68
00
F8
ENDCHAR
STARTCHAR char8364
ENCODING 8364
SWIDTH 540 0
DWIDTH 6 0
BBX 6 12 0 -2
BITMAP
00
30
48
40
E0
40
E0
40
48
30
00
00
ENDCHAR
STARTCHAR char8367
ENCODING 8367
SWIDTH 540 0
DWIDTH 6 0
BBX 6 12 0 -2
BITMAP
00
00
00
40
70
C8
48
48
E8
D0
00
00
ENDCHAR
STARTCHAR char8400
ENCODING 8400
SWIDTH 540 0
DWIDTH 6 0
BBX 6 12 0 -2
BITMAP
00
00
40
F8
00
00
00
00
00
00
00
00
ENDCHAR
STARTCHAR char8401
ENCODING 8401
SWIDTH 540 0
DWIDTH 6 0
BBX 6 12 0 -2
BITMAP
00
00
10
F8
00
00
00
00
00
00
00
00
ENDCHAR
STARTCHAR char8402
ENCODING 8402
SWIDTH 540 0
DWIDTH 6 0
BBX 6 12 0 -2
BITMAP
00
20
20
20
20
20
20
20
20
20
20
20
ENDCHAR
STARTCHAR char8403
ENCODING 8403
SWIDTH 540 0
DWIDTH 6 0
BBX 6 12 0 -2
BITMAP
00
00
00
00
20
20
20
20
20
20
00
00
ENDCHAR
STARTCHAR char8404
ENCODING 8404
SWIDTH 540 0
DWIDTH 6 0
BBX 6 12 0 -2
BITMAP
00
00
B0
C8
E0
00
00
00
00
00
00
00
ENDCHAR
STARTCHAR char8405
ENCODING 8405
SWIDTH 540 0
DWIDTH 6 0
BBX 6 12 0 -2
BITMAP
00
00
68
98
38
00
00
00
00
00
00
00
ENDCHAR
STARTCHAR char8406
ENCODING 8406
SWIDTH 540 0
DWIDTH 6 0
BBX 6 12 0 -2
BITMAP
00
00
40
F8
40
00
00
00
00
00
00
00
ENDCHAR
STARTCHAR char8407
ENCODING 8407
SWIDTH 540 0
DWIDTH 6 0
BBX 6 12 0 -2
BITMAP
00
00
10
F8
10
00
00
00
00
00
00
00
ENDCHAR
STARTCHAR char8450
ENCODING 8450
SWIDTH 540 0
DWIDTH 6 0
BBX 6 12 0 -2
BITMAP
00
00
00
70
A8
A0
A0
A0
A8
70
00
00
ENDCHAR
STARTCHAR char8453
ENCODING 8453
SWIDTH 540 0
DWIDTH 6 0
BBX 6 12 0 -2
BITMAP
00
00
60
80
80
60
00
30
48
48
30
00
ENDCHAR
STARTCHAR char8467
ENCODING 8467
SWIDTH 540 0
DWIDTH 6 0
BBX 6 12 0 -2
BITMAP
00
00
00
10
28
28
28
30
20
58
00
00
ENDCHAR
STARTCHAR char8469
ENCODING 8469
SWIDTH 540 0
DWIDTH 6 0
BBX 6 12 0 -2
BITMAP
00
00
00
88
C8
C8
E8
D8
D8
C8
00
00
ENDCHAR
STARTCHAR char8470
ENCODING 8470
SWIDTH 540 0
DWIDTH 6 0
BBX 6 12 0 -2
BITMAP
00
00
00
90
90
D8
B4
94
98
9C
00
00
ENDCHAR
STARTCHAR char8474
ENCODING 8474
SWIDTH 540 0
DWIDTH 6 0
BBX 6 12 0 -2
BITMAP
00
00
00
70
A8
A8
A8
A8
A8
70
18
00
ENDCHAR
STARTCHAR char8477
ENCODING 8477
SWIDTH 540 0
DWIDTH 6 0
BBX 6 12 0 -2
BITMAP
00
00
00
F0
A8
A8
B0
A8
A8
A8
00
00
ENDCHAR
STARTCHAR char8482
ENCODING 8482
SWIDTH 540 0
DWIDTH 6 0
BBX 6 12 0 -2
BITMAP
00
00
FC
5C
54
54
00
00
00
00
00
00
ENDCHAR
STARTCHAR char8484
ENCODING 8484
SWIDTH 540 0
DWIDTH 6 0
BBX 6 12 0 -2
BITMAP
00
00
00
F8
28
28
50
A0
A0
F8
00
00
ENDCHAR
STARTCHAR char8486
ENCODING 8486
SWIDTH 540 0
DWIDTH 6 0
BBX 6 12 0 -2
BITMAP
00
00
00
70
88
88
88
88
50
D8
00
00
ENDCHAR
STARTCHAR char8487
ENCODING 8487
SWIDTH 540 0
DWIDTH 6 0
BBX 6 12 0 -2
BITMAP
00
00
00
D8
50
88
88
88
88
70
00
00
ENDCHAR
STARTCHAR char8494
ENCODING 8494
SWIDTH 540 0
DWIDTH 6 0
BBX 6 12 0 -2
BITMAP
00
00
00
00
00
70
D8
F8
C0
70
00
00
ENDCHAR
STARTCHAR char8539
ENCODING 8539
SWIDTH 540 0
DWIDTH 6 0
BBX 6 12 0 -2
BITMAP
00
00
40
C0
40
40
E0
08
14
08
14
08
ENDCHAR
STARTCHAR char8540
ENCODING 8540
SWIDTH 540 0
DWIDTH 6 0
BBX 6 12 0 -2
BITMAP
00
00
C0
20
40
20
C0
10
28
10
28
10
ENDCHAR
STARTCHAR char8541
ENCODING 8541
SWIDTH 540 0
DWIDTH 6 0
BBX 6 12 0 -2
BITMAP
00
00
E0
80
C0
20
C0
10
28
10
28
10
ENDCHAR
STARTCHAR char8542
ENCODING 8542
SWIDTH 540 0
DWIDTH 6 0
BBX 6 12 0 -2
BITMAP
00
00
E0
20
20
40
40
10
28
10
28
10
ENDCHAR
STARTCHAR char8592
ENCODING 8592
SWIDTH 540 0
DWIDTH 6 0
BBX 6 12 0 -2
BITMAP
00
00
00
00
00
20
40
FC
40
20
00
00
ENDCHAR
STARTCHAR char8593
ENCODING 8593
SWIDTH 540 0
DWIDTH 6 0
BBX 6 12 0 -2
BITMAP
00
00
00
20
70
A8
20
20
20
20
00
00
ENDCHAR
STARTCHAR char8594
ENCODING 8594
SWIDTH 540 0
DWIDTH 6 0
BBX 6 12 0 -2
BITMAP
00
00
00
00
00
10
08
FC
08
10
00
00
ENDCHAR
STARTCHAR char8595
ENCODING 8595
SWIDTH 540 0
DWIDTH 6 0
BBX 6 12 0 -2
BITMAP
00
00
00
20
20
20
20
A8
70
20
00
00
ENDCHAR
STARTCHAR char8596
ENCODING 8596
SWIDTH 540 0
DWIDTH 6 0
BBX 6 12 0 -2
BITMAP
00
00
00
00
00
00
48
FC
48
00
00
00
ENDCHAR
STARTCHAR char8597
ENCODING 8597
SWIDTH 540 0
DWIDTH 6 0
BBX 6 12 0 -2
BITMAP
00
00
00
20
70
A8
20
20
A8
70
20
00
ENDCHAR
STARTCHAR char8598
ENCODING 8598
SWIDTH 540 0
DWIDTH 6 0
BBX 6 12 0 -2
BITMAP
00
00
00
00
F0
C0
A0
90
08
00
00
00
ENDCHAR
STARTCHAR char8599
ENCODING 8599
SWIDTH 540 0
DWIDTH 6 0
BBX 6 12 0 -2
BITMAP
00
00
00
00
78
18
28
48
80
00
00
00
ENDCHAR
STARTCHAR char8600
ENCODING 8600
SWIDTH 540 0
DWIDTH 6 0
BBX 6 12 0 -2
BITMAP
00
00
00
00
80
48
28
18
78
00
00
00
ENDCHAR
STARTCHAR char8601
ENCODING 8601
SWIDTH 540 0
DWIDTH 6 0
BBX 6 12 0 -2
BITMAP
00
00
00
00
08
90
A0
C0
F0
00
00
00
ENDCHAR
STARTCHAR char8612
ENCODING 8612
SWIDTH 540 0
DWIDTH 6 0
BBX 6 12 0 -2
BITMAP
00
00
00
00
00
24
44
FC
44
24
00
00
ENDCHAR
STARTCHAR char8613
ENCODING 8613
SWIDTH 540 0
DWIDTH 6 0
BBX 6 12 0 -2
BITMAP
00
00
00
20
70
A8
20
20
20
70
00
00
ENDCHAR
STARTCHAR char8614
ENCODING 8614
SWIDTH 540 0
DWIDTH 6 0
BBX 6 12 0 -2
BITMAP
00
00
00
00
00
10
88
FC
88
10
00
00
ENDCHAR
STARTCHAR char8615
ENCODING 8615
SWIDTH 540 0
DWIDTH 6 0
BBX 6 12 0 -2
BITMAP
00
00
00
70
20
20
20
A8
70
20
00
00
ENDCHAR
STARTCHAR char8616
ENCODING 8616
SWIDTH 540 0
DWIDTH 6 0
BBX 6 12 0 -2
BITMAP
00
00
20
70
A8
20
20
A8
70
20
F8
00
ENDCHAR
STARTCHAR char8644
ENCODING 8644
SWIDTH 540 0
DWIDTH 6 0
BBX 6 12 0 -2
BITMAP
00
00
00
10
08
FC
08
30
40
FC
40
20
ENDCHAR
STARTCHAR char8646
ENCODING 8646
SWIDTH 540 0
DWIDTH 6 0
BBX 6 12 0 -2
BITMAP
00
00
00
20
40
FC
40
30
08
FC
08
10
ENDCHAR
STARTCHAR char8651
ENCODING 8651
SWIDTH 540 0
DWIDTH 6 0
BBX 6 12 0 -2
BITMAP
00
00
00
00
20
40
FC
00
FC
08
10
00
ENDCHAR
STARTCHAR char8652
ENCODING 8652
SWIDTH 540 0
DWIDTH 6 0
BBX 6 12 0 -2
BITMAP
00
00
00
00
10
08
FC
00
FC
40
20
00
ENDCHAR
STARTCHAR char8656
ENCODING 8656
SWIDTH 540 0
DWIDTH 6 0
BBX 6 12 0 -2
BITMAP
00
00
00
10
20
7C
80
7C
20
10
00
00
ENDCHAR
STARTCHAR char8657
ENCODING 8657
SWIDTH 540 0
DWIDTH 6 0
BBX 6 12 0 -2
BITMAP
00
00
00
20
70
D8
50
50
50
50
00
00
ENDCHAR
STARTCHAR char8658
ENCODING 8658
SWIDTH 540 0
DWIDTH 6 0
BBX 6 12 0 -2
BITMAP
00
00
00
20
10
F8
04
F8
10
20
00
00
ENDCHAR
STARTCHAR char8659
ENCODING 8659
SWIDTH 540 0
DWIDTH 6 0
BBX 6 12 0 -2
BITMAP
00
00
00
50
50
50
50
D8
70
20
00
00
ENDCHAR
STARTCHAR char8660
ENCODING 8660
SWIDTH 540 0
DWIDTH 6 0
BBX 6 12 0 -2
BITMAP
00
00
00
00
00
78
84
78
00
00
00
00
ENDCHAR
STARTCHAR char8661
ENCODING 8661
SWIDTH 540 0
DWIDTH 6 0
BBX 6 12 0 -2
BITMAP
00
00
00
20
50
D8
50
50
D8
50
20
00
ENDCHAR
STARTCHAR char8704
ENCODING 8704
SWIDTH 540 0
DWIDTH 6 0
BBX 6 12 0 -2
BITMAP
00
00
00
88
88
70
50
50
20
20
00
00
ENDCHAR
STARTCHAR char8705
ENCODING 8705
SWIDTH 540 0
DWIDTH 6 0
BBX 6 12 0 -2
BITMAP
00
00
00
20
50
40
40
40
50
20
00
00
ENDCHAR
STARTCHAR char8706
ENCODING 8706
SWIDTH 540 0
DWIDTH 6 0
BBX 6 12 0 -2
BITMAP
00
00
00
30
08
68
98
88
88
70
00
00
ENDCHAR
STARTCHAR char8707
ENCODING 8707
SWIDTH 540 0
DWIDTH 6 0
BBX 6 12 0 -2
BITMAP
00
00
00
F8
08
08
78
08
08
F8
00
00
ENDCHAR
STARTCHAR char8708
ENCODING 8708
SWIDTH 540 0
DWIDTH 6 0
BBX 6 12 0 -2
BITMAP
00
00
20
F8
28
28
78
28
28
F8
20
00
ENDCHAR
STARTCHAR char8709
ENCODING 8709
SWIDTH 540 0
DWIDTH 6 0
BBX 6 12 0 -2
BITMAP
00
00
00
00
34
48
94
A4
48
B0
00
00
ENDCHAR
STARTCHAR char8710
ENCODING 8710
SWIDTH 540 0
DWIDTH 6 0
BBX 6 12 0 -2
BITMAP
00
00
00
00
20
20
50
50
88
F8
00
00
ENDCHAR
STARTCHAR char8711
ENCODING 8711
SWIDTH 540 0
DWIDTH 6 0
BBX 6 12 0 -2
BITMAP
00
00
00
00
F8
88
50
50
20
20
00
00
ENDCHAR
STARTCHAR char8712
ENCODING 8712
SWIDTH 540 0
DWIDTH 6 0
BBX 6 12 0 -2
BITMAP
00
00
00
78
80
80
F0
80
80
78
00
00
ENDCHAR
STARTCHAR char8713
ENCODING 8713
SWIDTH 540 0
DWIDTH 6 0
BBX 6 12 0 -2
BITMAP
00
00
20
78
A0
A0
F0
A0
A0
78
20
00
ENDCHAR
STARTCHAR char8715
ENCODING 8715
SWIDTH 540 0
DWIDTH 6 0
BBX 6 12 0 -2
BITMAP
00
00
00
F0
08
08
78
08
08
F0
00
00
ENDCHAR
STARTCHAR char8716
ENCODING 8716
SWIDTH 540 0
DWIDTH 6 0
BBX 6 12 0 -2
BITMAP
00
00
20
F0
28
28
78
28
28
F0
20
00
ENDCHAR
STARTCHAR char8719
ENCODING 8719
SWIDTH 540 0
DWIDTH 6 0
BBX 6 12 0 -2
BITMAP
00
00
F8
50
50
50
50
50
50
50
50
00
ENDCHAR
STARTCHAR char8721
ENCODING 8721
SWIDTH 540 0
DWIDTH 6 0
BBX 6 12 0 -2
BITMAP
00
00
F8
80
40
20
10
20
40
80
F8
00
ENDCHAR
STARTCHAR char8722
ENCODING 8722
SWIDTH 540 0
DWIDTH 6 0
BBX 6 12 0 -2
BITMAP
00
00
00
00
00
00
F8
00
00
00
00
00
ENDCHAR
STARTCHAR char8723
ENCODING 8723
SWIDTH 540 0
DWIDTH 6 0
BBX 6 12 0 -2
BITMAP
00
00
00
00
F8
20
20
F8
20
20
00
00
ENDCHAR
STARTCHAR char8725
ENCODING 8725
SWIDTH 540 0
DWIDTH 6 0
BBX 6 12 0 -2
BITMAP
00
00
00
08
08
10
20
40
80
80
00
00
ENDCHAR
STARTCHAR char8728
ENCODING 8728
SWIDTH 540 0
DWIDTH 6 0
BBX 6 12 0 -2
BITMAP
00
00
00
00
00
30
48
48
30
00
00
00
ENDCHAR
STARTCHAR char8729
ENCODING 8729
SWIDTH 540 0
DWIDTH 6 0
BBX 6 12 0 -2
BITMAP
00
00
00
00
00
30
78
78
30
00
00
00
ENDCHAR
STARTCHAR char8730
ENCODING 8730
SWIDTH 540 0
DWIDTH 6 0
BBX 6 12 0 -2
BITMAP
00
00
00
00
0C
10
10
20
A0
40
00
00
ENDCHAR
STARTCHAR char8733
ENCODING 8733
SWIDTH 540 0
DWIDTH 6 0
BBX 6 12 0 -2
BITMAP
00
00
00
00
00
28
50
50
28
00
00
00
ENDCHAR
STARTCHAR char8734
ENCODING 8734
SWIDTH 540 0
DWIDTH 6 0
BBX 6 12 0 -2
BITMAP
00
00
00
00
00
50
A8
A8
50
00
00
00
ENDCHAR
STARTCHAR char8735
ENCODING 8735
SWIDTH 540 0
DWIDTH 6 0
BBX 6 12 0 -2
BITMAP
00
00
00
00
80
80
80
80
F8
00
00
00
ENDCHAR
STARTCHAR char8737
ENCODING 8737
SWIDTH 540 0
DWIDTH 6 0
BBX 6 12 0 -2
BITMAP
00
00
00
00
00
50
20
50
90
F8
10
00
ENDCHAR
STARTCHAR char8740
ENCODING 8740
SWIDTH 540 0
DWIDTH 6 0
BBX 6 12 0 -2
BITMAP
00
00
00
20
20
30
20
60
20
20
00
00
ENDCHAR
STARTCHAR char8741
ENCODING 8741
SWIDTH 540 0
DWIDTH 6 0
BBX 6 12 0 -2
BITMAP
00
00
00
50
50
50
50
50
50
50
00
00
ENDCHAR
STARTCHAR char8742
ENCODING 8742
SWIDTH 540 0
DWIDTH 6 0
BBX 6 12 0 -2
BITMAP
00
00
00
50
50
58
70
D0
50
50
00
00
ENDCHAR
STARTCHAR char8743
ENCODING 8743
SWIDTH 540 0
DWIDTH 6 0
BBX 6 12 0 -2
BITMAP
00
00
00
00
20
20
50
50
88
88
00
00
ENDCHAR
STARTCHAR char8744
ENCODING 8744
SWIDTH 540 0
DWIDTH 6 0
BBX 6 12 0 -2
BITMAP
00
00
00
00
88
88
50
50
20
20
00
00
ENDCHAR
STARTCHAR char8745
ENCODING 8745
SWIDTH 540 0
DWIDTH 6 0
BBX 6 12 0 -2
BITMAP
00
00
00
00
70
88
88
88
88
88
00
00
ENDCHAR
STARTCHAR char8746
ENCODING 8746
SWIDTH 540 0
DWIDTH 6 0
BBX 6 12 0 -2
BITMAP
00
00
00
00
88
88
88
88
88
70
00
00
ENDCHAR
STARTCHAR char8747
ENCODING 8747
SWIDTH 540 0
DWIDTH 6 0
BBX 6 12 0 -2
BITMAP
00
00
10
28
20
20
20
20
20
20
A0
40
ENDCHAR
STARTCHAR char8750
ENCODING 8750
SWIDTH 540 0
DWIDTH 6 0
BBX 6 12 0 -2
BITMAP
00
00
10
28
20
70
A8
A8
70
20
A0
40
ENDCHAR
STARTCHAR char8764
ENCODING 8764
SWIDTH 540 0
DWIDTH 6 0
BBX 6 12 0 -2
BITMAP
00
00
00
00
00
48
A8
90
00
00
00
00
ENDCHAR
STARTCHAR char8771
ENCODING 8771
SWIDTH 540 0
DWIDTH 6 0
BBX 6 12 0 -2
BITMAP
00
00
00
00
00
40
A8
10
00
F8
00
00
ENDCHAR
STARTCHAR char8773
ENCODING 8773
SWIDTH 540 0
DWIDTH 6 0
BBX 6 12 0 -2
BITMAP
00
00
00
40
A8
10
00
F8
00
F8
00
00
ENDCHAR
STARTCHAR char8776
ENCODING 8776
SWIDTH 540 0
DWIDTH 6 0
BBX 6 12 0 -2
BITMAP
00
00
00
00
00
40
A8
50
A8
10
00
00
ENDCHAR
STARTCHAR char8777
ENCODING 8777
SWIDTH 540 0
DWIDTH 6 0
BBX 6 12 0 -2
BITMAP
00
00
00
00
20
60
A8
70
A8
30
20
00
ENDCHAR
STARTCHAR char8793
ENCODING 8793
SWIDTH 540 0
DWIDTH 6 0
BBX 6 12 0 -2
BITMAP
00
00
00
00
20
50
00
F8
00
F8
00
00
ENDCHAR
STARTCHAR char8799
ENCODING 8799
SWIDTH 540 0
DWIDTH 6 0
BBX 6 12 0 -2
BITMAP
00
00
60
10
20
00
20
00
F8
00
F8
00
ENDCHAR
STARTCHAR char8800
ENCODING 8800
SWIDTH 540 0
DWIDTH 6 0
BBX 6 12 0 -2
BITMAP
00
00
00
08
10
F8
20
F8
40
80
00
00
ENDCHAR
STARTCHAR char8801
ENCODING 8801
SWIDTH 540 0
DWIDTH 6 0
BBX 6 12 0 -2
BITMAP
00
00
00
00
00
F8
00
F8
00
F8
00
00
ENDCHAR
STARTCHAR char8802
ENCODING 8802
SWIDTH 540 0
DWIDTH 6 0
BBX 6 12 0 -2
BITMAP
00
00
00
00
08
F8
10
F8
20
F8
40
00
ENDCHAR
STARTCHAR char8804
ENCODING 8804
SWIDTH 540 0
DWIDTH 6 0
BBX 6 12 0 -2
BITMAP
00
00
00
18
60
80
60
18
00
F8
00
00
ENDCHAR
STARTCHAR char8805
ENCODING 8805
SWIDTH 540 0
DWIDTH 6 0
BBX 6 12 0 -2
BITMAP
00
00
00
C0
30
08
30
C0
00
F8
00
00
ENDCHAR
STARTCHAR char8810
ENCODING 8810
SWIDTH 540 0
DWIDTH 6 0
BBX 6 12 0 -2
BITMAP
00
00
00
00
00
24
48
90
48
24
00
00
ENDCHAR
STARTCHAR char8811
ENCODING 8811
SWIDTH 540 0
DWIDTH 6 0
BBX 6 12 0 -2
BITMAP
00
00
00
00
00
90
48
24
48
90
00
00
ENDCHAR
STARTCHAR char8834
ENCODING 8834
SWIDTH 540 0
DWIDTH 6 0
BBX 6 12 0 -2
BITMAP
00
00
00
00
00
78
80
80
80
78
00
00
ENDCHAR
STARTCHAR char8835
ENCODING 8835
SWIDTH 540 0
DWIDTH 6 0
BBX 6 12 0 -2
BITMAP
00
00
00
00
00
F0
08
08
08
F0
00
00
ENDCHAR
STARTCHAR char8836
ENCODING 8836
SWIDTH 540 0
DWIDTH 6 0
BBX 6 12 0 -2
BITMAP
00
00
00
00
20
78
A0
A0
A0
78
20
00
ENDCHAR
STARTCHAR char8837
ENCODING 8837
SWIDTH 540 0
DWIDTH 6 0
BBX 6 12 0 -2
BITMAP
00
00
00
00
20
F0
28
28
28
F0
20
00
ENDCHAR
STARTCHAR char8838
ENCODING 8838
SWIDTH 540 0
DWIDTH 6 0
BBX 6 12 0 -2
BITMAP
00
00
00
78
80
80
80
78
00
F8
00
00
ENDCHAR
STARTCHAR char8839
ENCODING 8839
SWIDTH 540 0
DWIDTH 6 0
BBX 6 12 0 -2
BITMAP
00
00
00
F0
08
08
08
F0
00
F8
00
00
ENDCHAR
STARTCHAR char8840
ENCODING 8840
SWIDTH 540 0
DWIDTH 6 0
BBX 6 12 0 -2
BITMAP
00
00
20
78
A0
A0
A0
78
20
F8
20
00
ENDCHAR
STARTCHAR char8841
ENCODING 8841
SWIDTH 540 0
DWIDTH 6 0
BBX 6 12 0 -2
BITMAP
00
00
20
F0
28
28
28
F0
20
F8
20
00
ENDCHAR
STARTCHAR char8842
ENCODING 8842
SWIDTH 540 0
DWIDTH 6 0
BBX 6 12 0 -2
BITMAP
00
00
00
78
80
80
80
78
20
F8
20
00
ENDCHAR
STARTCHAR char8843
ENCODING 8843
SWIDTH 540 0
DWIDTH 6 0
BBX 6 12 0 -2
BITMAP
00
00
00
F0
08
08
08
F0
20
F8
20
00
ENDCHAR
STARTCHAR char8853
ENCODING 8853
SWIDTH 540 0
DWIDTH 6 0
BBX 6 12 0 -2
BITMAP
00
00
00
00
70
A8
F8
A8
70
00
00
00
ENDCHAR
STARTCHAR char8855
ENCODING 8855
SWIDTH 540 0
DWIDTH 6 0
BBX 6 12 0 -2
BITMAP
00
00
00
00
70
D8
A8
D8
70
00
00
00
ENDCHAR
STARTCHAR char8868
ENCODING 8868
SWIDTH 540 0
DWIDTH 6 0
BBX 6 12 0 -2
BITMAP
00
00
00
F8
20
20
20
20
20
20
00
00
ENDCHAR
STARTCHAR char8869
ENCODING 8869
SWIDTH 540 0
DWIDTH 6 0
BBX 6 12 0 -2
BITMAP
00
00
00
20
20
20
20
20
20
F8
00
00
ENDCHAR
STARTCHAR char8870
ENCODING 8870
SWIDTH 540 0
DWIDTH 6 0
BBX 6 12 0 -2
BITMAP
00
00
00
40
40
40
70
40
40
40
00
00
ENDCHAR
STARTCHAR char8871
ENCODING 8871
SWIDTH 540 0
DWIDTH 6 0
BBX 6 12 0 -2
BITMAP
00
00
00
40
40
70
40
70
40
40
00
00
ENDCHAR
STARTCHAR char8896
ENCODING 8896
SWIDTH 540 0
DWIDTH 6 0
BBX 6 12 0 -2
BITMAP
00
00
20
20
20
50
50
50
88
88
88
00
ENDCHAR
STARTCHAR char8897
ENCODING 8897
SWIDTH 540 0
DWIDTH 6 0
BBX 6 12 0 -2
BITMAP
00
00
88
88
88
50
50
50
20
20
20
00
ENDCHAR
STARTCHAR char8898
ENCODING 8898
SWIDTH 540 0
DWIDTH 6 0
BBX 6 12 0 -2
BITMAP
00
00
70
88
88
88
88
88
88
88
88
00
ENDCHAR
STARTCHAR char8899
ENCODING 8899
SWIDTH 540 0
DWIDTH 6 0
BBX 6 12 0 -2
BITMAP
00
00
88
88
88
88
88
88
88
88
70
00
ENDCHAR
STARTCHAR char8901
ENCODING 8901
SWIDTH 540 0
DWIDTH 6 0
BBX 6 12 0 -2
BITMAP
00
00
00
00
00
00
20
00
00
00
00
00
ENDCHAR
STARTCHAR char8942
ENCODING 8942
SWIDTH 540 0
DWIDTH 6 0
BBX 6 12 0 -2
BITMAP
00
00
00
20
00
00
20
00
00
20
00
00
ENDCHAR
STARTCHAR char8943
ENCODING 8943
SWIDTH 540 0
DWIDTH 6 0
BBX 6 12 0 -2
BITMAP
00
00
00
00
00
00
A8
00
00
00
00
00
ENDCHAR
STARTCHAR char8944
ENCODING 8944
SWIDTH 540 0
DWIDTH 6 0
BBX 6 12 0 -2
BITMAP
00
00
00
08
00
00
20
00
00
80
00
00
ENDCHAR
STARTCHAR char8945
ENCODING 8945
SWIDTH 540 0
DWIDTH 6 0
BBX 6 12 0 -2
BITMAP
00
00
00
80
00
00
20
00
00
08
00
00
ENDCHAR
STARTCHAR char8960
ENCODING 8960
SWIDTH 540 0
DWIDTH 6 0
BBX 6 12 0 -2
BITMAP
00
00
00
00
00
78
98
A8
C8
F0
00
00
ENDCHAR
STARTCHAR char8962
ENCODING 8962
SWIDTH 540 0
DWIDTH 6 0
BBX 6 12 0 -2
BITMAP
00
00
00
00
20
50
88
88
88
F8
00
00
ENDCHAR
STARTCHAR char8968
ENCODING 8968
SWIDTH 540 0
DWIDTH 6 0
BBX 6 12 0 -2
BITMAP
00
00
00
70
40
40
40
40
40
40
00
00
ENDCHAR
STARTCHAR char8969
ENCODING 8969
SWIDTH 540 0
DWIDTH 6 0
BBX 6 12 0 -2
BITMAP
00
00
00
70
10
10
10
10
10
10
00
00
ENDCHAR
STARTCHAR char8970
ENCODING 8970
SWIDTH 540 0
DWIDTH 6 0
BBX 6 12 0 -2
BITMAP
00
00
00
40
40
40
40
40
40
70
00
00
ENDCHAR
STARTCHAR char8971
ENCODING 8971
SWIDTH 540 0
DWIDTH 6 0
BBX 6 12 0 -2
BITMAP
00
00
00
10
10
10
10
10
10
70
00
00
ENDCHAR
STARTCHAR char8976
ENCODING 8976
SWIDTH 540 0
DWIDTH 6 0
BBX 6 12 0 -2
BITMAP
00
00
00
00
00
00
78
40
00
00
00
00
ENDCHAR
STARTCHAR char8992
ENCODING 8992
SWIDTH 540 0
DWIDTH 6 0
BBX 6 12 0 -2
BITMAP
00
00
00
00
10
28
20
20
20
20
20
20
ENDCHAR
STARTCHAR char8993
ENCODING 8993
SWIDTH 540 0
DWIDTH 6 0
BBX 6 12 0 -2
BITMAP
00
20
20
20
20
20
20
20
A0
40
00
00
ENDCHAR
STARTCHAR char9146
ENCODING 9146
SWIDTH 540 0
DWIDTH 6 0
BBX 6 12 0 -2
BITMAP
00
00
FC
00
00
00
00
00
00
00
00
00
ENDCHAR
STARTCHAR char9147
ENCODING 9147
SWIDTH 540 0
DWIDTH 6 0
BBX 6 12 0 -2
BITMAP
00
00
00
00
FC
00
00
00
00
00
00
00
ENDCHAR
STARTCHAR char9148
ENCODING 9148
SWIDTH 540 0
DWIDTH 6 0
BBX 6 12 0 -2
BITMAP
00
00
00
00
00
00
00
00
00
FC
00
00
ENDCHAR
STARTCHAR char9149
ENCODING 9149
SWIDTH 540 0
DWIDTH 6 0
BBX 6 12 0 -2
BITMAP
00
00
00
00
00
00
00
00
00
00
00
FC
ENDCHAR
STARTCHAR char9225
ENCODING 9225
SWIDTH 540 0
DWIDTH 6 0
BBX 6 12 0 -2
BITMAP
00
00
00
90
90
F0
90
90
78
10
10
10
ENDCHAR
STARTCHAR char9226
ENCODING 9226
SWIDTH 540 0
DWIDTH 6 0
BBX 6 12 0 -2
BITMAP
00
00
00
80
80
80
F0
78
40
70
40
40
ENDCHAR
STARTCHAR char9227
ENCODING 9227
SWIDTH 540 0
DWIDTH 6 0
BBX 6 12 0 -2
BITMAP
00
00
00
90
90
60
40
78
10
10
10
10
ENDCHAR
STARTCHAR char9228
ENCODING 9228
SWIDTH 540 0
DWIDTH 6 0
BBX 6 12 0 -2
BITMAP
00
00
00
E0
80
C0
80
B8
20
30
20
20
ENDCHAR
STARTCHAR char9229
ENCODING 9229
SWIDTH 540 0
DWIDTH 6 0
BBX 6 12 0 -2
BITMAP
00
00
00
70
80
80
70
70
48
70
48
48
ENDCHAR
STARTCHAR char9252
ENCODING 9252
SWIDTH 540 0
DWIDTH 6 0
BBX 6 12 0 -2
BITMAP
00
00
00
90
D0
D0
B0
90
40
40
40
78
ENDCHAR
STARTCHAR char9472
ENCODING 9472
SWIDTH 540 0
DWIDTH 6 0
BBX 6 12 0 -2
BITMAP
00
00
00
00
00
00
00
FC
00
00
00
00
ENDCHAR
STARTCHAR char9473
ENCODING 9473
SWIDTH 540 0
DWIDTH 6 0
BBX 6 12 0 -2
BITMAP
00
00
00
00
00
00
FC
FC
00
00
00
00
ENDCHAR
STARTCHAR char9474
ENCODING 9474
SWIDTH 540 0
DWIDTH 6 0
BBX 6 12 0 -2
BITMAP
00
20
20
20
20
20
20
20
20
20
20
20
ENDCHAR
STARTCHAR char9475
ENCODING 9475
SWIDTH 540 0
DWIDTH 6 0
BBX 6 12 0 -2
BITMAP
00
30
30
30
30
30
30
30
30
30
30
30
ENDCHAR
STARTCHAR char9476
ENCODING 9476
SWIDTH 540 0
DWIDTH 6 0
BBX 6 12 0 -2
BITMAP
00
00
00
00
00
00
00
A8
00
00
00
00
ENDCHAR
STARTCHAR char9477
ENCODING 9477
SWIDTH 540 0
DWIDTH 6 0
BBX 6 12 0 -2
BITMAP
00
00
00
00
00
00
A8
A8
00
00
00
00
ENDCHAR
STARTCHAR char9478
ENCODING 9478
SWIDTH 540 0
DWIDTH 6 0
BBX 6 12 0 -2
BITMAP
00
20
20
20
00
20
20
20
00
20
20
00
ENDCHAR
STARTCHAR char9479
ENCODING 9479
SWIDTH 540 0
DWIDTH 6 0
BBX 6 12 0 -2
BITMAP
00
30
30
30
00
30
30
30
00
30
30
00
ENDCHAR
STARTCHAR char9480
ENCODING 9480
SWIDTH 540 0
DWIDTH 6 0
BBX 6 12 0 -2
BITMAP
00
00
00
00
00
00
00
A8
00
00
00
00
ENDCHAR
STARTCHAR char9481
ENCODING 9481
SWIDTH 540 0
DWIDTH 6 0
BBX 6 12 0 -2
BITMAP
00
00
00
00
00
00
A8
A8
00
00
00
00
ENDCHAR
STARTCHAR char9482
ENCODING 9482
SWIDTH 540 0
DWIDTH 6 0
BBX 6 12 0 -2
BITMAP
00
00
20
20
00
20
00
20
20
00
20
00
ENDCHAR
STARTCHAR char9483
ENCODING 9483
SWIDTH 540 0
DWIDTH 6 0
BBX 6 12 0 -2
BITMAP
00
00
30
30
00
30
00
30
30
00
30
00
ENDCHAR
STARTCHAR char9484
ENCODING 9484
SWIDTH 540 0
DWIDTH 6 0
BBX 6 12 0 -2
BITMAP
00
00
00
00
00
00
00
3C
20
20
20
20
ENDCHAR
STARTCHAR char9485
ENCODING 9485
SWIDTH 540 0
DWIDTH 6 0
BBX 6 12 0 -2
BITMAP
00
00
00
00
00
00
3C
3C
20
20
20
20
ENDCHAR
STARTCHAR char9486
ENCODING 9486
SWIDTH 540 0
DWIDTH 6 0
BBX 6 12 0 -2
BITMAP
00
00
00
00
00
00
00
3C
30
30
30
30
ENDCHAR
STARTCHAR char9487
ENCODING 9487
SWIDTH 540 0
DWIDTH 6 0
BBX 6 12 0 -2
BITMAP
00
00
00
00
00
00
3C
3C
30
30
30
30
ENDCHAR
STARTCHAR char9488
ENCODING 9488
SWIDTH 540 0
DWIDTH 6 0
BBX 6 12 0 -2
BITMAP
00
00
00
00
00
00
00
E0
20
20
20
20
ENDCHAR
STARTCHAR char9489
ENCODING 9489
SWIDTH 540 0
DWIDTH 6 0
BBX 6 12 0 -2
BITMAP
00
00
00
00
00
00
E0
E0
20
20
20
20
ENDCHAR
STARTCHAR char9490
ENCODING 9490
SWIDTH 540 0
DWIDTH 6 0
BBX 6 12 0 -2
BITMAP
00
00
00
00
00
00
00
F0
30
30
30
30
ENDCHAR
STARTCHAR char9491
ENCODING 9491
SWIDTH 540 0
DWIDTH 6 0
BBX 6 12 0 -2
BITMAP
00
00
00
00
00
00
F0
F0
30
30
30
30
ENDCHAR
STARTCHAR char9492
ENCODING 9492
SWIDTH 540 0
DWIDTH 6 0
BBX 6 12 0 -2
BITMAP
00
20
20
20
20
20
20
3C
00
00
00
00
ENDCHAR
STARTCHAR char9493
ENCODING 9493
SWIDTH 540 0
DWIDTH 6 0
BBX 6 12 0 -2
BITMAP
00
20
20
20
20
20
3C
3C
00
00
00
00
ENDCHAR
STARTCHAR char9494
ENCODING 9494
SWIDTH 540 0
DWIDTH 6 0
BBX 6 12 0 -2
BITMAP
00
30
30
30
30
30
30
3C
00
00
00
00
ENDCHAR
STARTCHAR char9495
ENCODING 9495
SWIDTH 540 0
DWIDTH 6 0
BBX 6 12 0 -2
BITMAP
00
30
30
30
30
30
3C
3C
00
00
00
00
ENDCHAR
STARTCHAR char9496
ENCODING 9496
SWIDTH 540 0
DWIDTH 6 0
BBX 6 12 0 -2
BITMAP
00
20
20
20
20
20
20
E0
00
00
00
00
ENDCHAR
STARTCHAR char9497
ENCODING 9497
SWIDTH 540 0
DWIDTH 6 0
BBX 6 12 0 -2
BITMAP
00
20
20
20
20
20
E0
E0
00
00
00
00
ENDCHAR
STARTCHAR char9498
ENCODING 9498
SWIDTH 540 0
DWIDTH 6 0
BBX 6 12 0 -2
BITMAP
00
30
30
30
30
30
30
F0
00
00
00
00
ENDCHAR
STARTCHAR char9499
ENCODING 9499
SWIDTH 540 0
DWIDTH 6 0
BBX 6 12 0 -2
BITMAP
00
30
30
30
30
30
F0
F0
00
00
00
00
ENDCHAR
STARTCHAR char9500
ENCODING 9500
SWIDTH 540 0
DWIDTH 6 0
BBX 6 12 0 -2
BITMAP
00
20
20
20
20
20
20
3C
20
20
20
20
ENDCHAR
STARTCHAR char9501
ENCODING 9501
SWIDTH 540 0
DWIDTH 6 0
BBX 6 12 0 -2
BITMAP
00
20
20
20
20
20
3C
3C
20
20
20
20
ENDCHAR
STARTCHAR char9502
ENCODING 9502
SWIDTH 540 0
DWIDTH 6 0
BBX 6 12 0 -2
BITMAP
00
30
30
30
30
30
30
3C
20
20
20
20
ENDCHAR
STARTCHAR char9503
ENCODING 9503
SWIDTH 540 0
DWIDTH 6 0
BBX 6 12 0 -2
BITMAP
00
20
20
20
20
20
20
3C
30
30
30
30
ENDCHAR
STARTCHAR char9504
ENCODING 9504
SWIDTH 540 0
DWIDTH 6 0
BBX 6 12 0 -2
BITMAP
00
30
30
30
30
30
30
3C
30
30
30
30
ENDCHAR
STARTCHAR char9505
ENCODING 9505
SWIDTH 540 0
DWIDTH 6 0
BBX 6 12 0 -2
BITMAP
00
30
30
30
30
30
3C
3C
20
20
20
20
ENDCHAR
STARTCHAR char9506
ENCODING 9506
SWIDTH 540 0
DWIDTH 6 0
BBX 6 12 0 -2
BITMAP
00
20
20
20
20
20
3C
3C
30
30
30
30
ENDCHAR
STARTCHAR char9507
ENCODING 9507
SWIDTH 540 0
DWIDTH 6 0
BBX 6 12 0 -2
BITMAP
00
30
30
30
30
30
3C
3C
30
30
30
30
ENDCHAR
STARTCHAR char9508
ENCODING 9508
SWIDTH 540 0
DWIDTH 6 0
BBX 6 12 0 -2
BITMAP
00
20
20
20
20
20
20
E0
20
20
20
20
ENDCHAR
STARTCHAR char9509
ENCODING 9509
SWIDTH 540 0
DWIDTH 6 0
BBX 6 12 0 -2
BITMAP
00
20
20
20
20
20
E0
E0
20
20
20
20
ENDCHAR
STARTCHAR char9510
ENCODING 9510
SWIDTH 540 0
DWIDTH 6 0
BBX 6 12 0 -2
BITMAP
00
30
30
30
30
30
30
E0
20
20
20
20
ENDCHAR
STARTCHAR char9511
ENCODING 9511
SWIDTH 540 0
DWIDTH 6 0
BBX 6 12 0 -2
BITMAP
00
20
20
20
20
20
20
F0
30
30
30
30
ENDCHAR
STARTCHAR char9512
ENCODING 9512
SWIDTH 540 0
DWIDTH 6 0
BBX 6 12 0 -2
BITMAP
00
30
30
30
30
30
30
F0
30
30
30
30
ENDCHAR
STARTCHAR char9513
ENCODING 9513
SWIDTH 540 0
DWIDTH 6 0
BBX 6 12 0 -2
BITMAP
00
30
30
30
30
30
F0
E0
20
20
20
20
ENDCHAR
STARTCHAR char9514
ENCODING 9514
SWIDTH 540 0
DWIDTH 6 0
BBX 6 12 0 -2
BITMAP
00
20
20
20
20
20
E0
F0
30
30
30
30
ENDCHAR
STARTCHAR char9515
ENCODING 9515
SWIDTH 540 0
DWIDTH 6 0
BBX 6 12 0 -2
BITMAP
00
30
30
30
30
30
F0
F0
30
30
30
30
ENDCHAR
STARTCHAR char9516
ENCODING 9516
SWIDTH 540 0
DWIDTH 6 0
BBX 6 12 0 -2
BITMAP
00
00
00
00
00
00
00
FC
20
20
20
20
ENDCHAR
STARTCHAR char9517
ENCODING 9517
SWIDTH 540 0
DWIDTH 6 0
BBX 6 12 0 -2
BITMAP
00
00
00
00
00
00
E0
FC
20
20
20
20
ENDCHAR
STARTCHAR char9518
ENCODING 9518
SWIDTH 540 0
DWIDTH 6 0
BBX 6 12 0 -2
BITMAP
00
00
00
00
00
00
1C
FC
20
20
20
20
ENDCHAR
STARTCHAR char9519
ENCODING 9519
SWIDTH 540 0
DWIDTH 6 0
BBX 6 12 0 -2
BITMAP
00
00
00
00
00
00
FC
FC
20
20
20
20
ENDCHAR
STARTCHAR char9520
ENCODING 9520
SWIDTH 540 0
DWIDTH 6 0
BBX 6 12 0 -2
BITMAP
00
00
00
00
00
00
00
FC
30
30
30
30
ENDCHAR
STARTCHAR char9521
ENCODING 9521
SWIDTH 540 0
DWIDTH 6 0
BBX 6 12 0 -2
BITMAP
00
00
00
00
00
00
E0
FC
30
30
30
30
ENDCHAR
STARTCHAR char9522
ENCODING 9522
SWIDTH 540 0
DWIDTH 6 0
BBX 6 12 0 -2
BITMAP
00
00
00
00
00
00
1C
FC
30
30
30
30
ENDCHAR
STARTCHAR char9523
ENCODING 9523
SWIDTH 540 0
DWIDTH 6 0
BBX 6 12 0 -2
BITMAP
00
00
00
00
00
00
FC
FC
30
30
30
30
ENDCHAR
STARTCHAR char9524
ENCODING 9524
SWIDTH 540 0
DWIDTH 6 0
BBX 6 12 0 -2
BITMAP
00
20
20
20
20
20
20
FC
00
00
00
00
ENDCHAR
STARTCHAR char9525
ENCODING 9525
SWIDTH 540 0
DWIDTH 6 0
BBX 6 12 0 -2
BITMAP
00
20
20
20
20
20
E0
FC
00
00
00
00
ENDCHAR
STARTCHAR char9526
ENCODING 9526
SWIDTH 540 0
DWIDTH 6 0
BBX 6 12 0 -2
BITMAP
00
20
20
20
20
20
3C
FC
00
00
00
00
ENDCHAR
STARTCHAR char9527
ENCODING 9527
SWIDTH 540 0
DWIDTH 6 0
BBX 6 12 0 -2
BITMAP
00
20
20
20
20
20
FC
FC
00
00
00
00
ENDCHAR
STARTCHAR char9528
ENCODING 9528
SWIDTH 540 0
DWIDTH 6 0
BBX 6 12 0 -2
BITMAP
00
30
30
30
30
30
30
FC
00
00
00
00
ENDCHAR
STARTCHAR char9529
ENCODING 9529
SWIDTH 540 0
DWIDTH 6 0
BBX 6 12 0 -2
BITMAP
00
30
30
30
30
30
F0
FC
00
00
00
00
ENDCHAR
STARTCHAR char9530
ENCODING 9530
SWIDTH 540 0
DWIDTH 6 0
BBX 6 12 0 -2
BITMAP
00
30
30
30
30
30
3C
FC
00
00
00
00
ENDCHAR
STARTCHAR char9531
ENCODING 9531
SWIDTH 540 0
DWIDTH 6 0
BBX 6 12 0 -2
BITMAP
00
30
30
30
30
30
FC
FC
00
00
00
00
ENDCHAR
STARTCHAR char9532
ENCODING 9532
SWIDTH 540 0
DWIDTH 6 0
BBX 6 12 0 -2
BITMAP
00
20
20
20
20
20
20
FC
20
20
20
20
ENDCHAR
STARTCHAR char9533
ENCODING 9533
SWIDTH 540 0
DWIDTH 6 0
BBX 6 12 0 -2
BITMAP
00
20
20
20
20
20
E0
FC
20
20
20
20
ENDCHAR
STARTCHAR char9534
ENCODING 9534
SWIDTH 540 0
DWIDTH 6 0
BBX 6 12 0 -2
BITMAP
00
20
20
20
20
20
3C
FC
20
20
20
20
ENDCHAR
STARTCHAR char9535
ENCODING 9535
SWIDTH 540 0
DWIDTH 6 0
BBX 6 12 0 -2
BITMAP
00
20
20
20
20
20
FC
FC
20
20
20
20
ENDCHAR
STARTCHAR char9536
ENCODING 9536
SWIDTH 540 0
DWIDTH 6 0
BBX 6 12 0 -2
BITMAP
00
30
30
30
30
30
30
FC
20
20
20
20
ENDCHAR
STARTCHAR char9537
ENCODING 9537
SWIDTH 540 0
DWIDTH 6 0
BBX 6 12 0 -2
BITMAP
00
20
20
20
20
20
20
FC
30
30
30
30
ENDCHAR
STARTCHAR char9538
ENCODING 9538
SWIDTH 540 0
DWIDTH 6 0
BBX 6 12 0 -2
BITMAP
00
30
30
30
30
30
30
FC
30
30
30
30
ENDCHAR
STARTCHAR char9539
ENCODING 9539
SWIDTH 540 0
DWIDTH 6 0
BBX 6 12 0 -2
BITMAP
00
30
30
30
30
30
F0
FC
20
20
20
20
ENDCHAR
STARTCHAR char9540
ENCODING 9540
SWIDTH 540 0
DWIDTH 6 0
BBX 6 12 0 -2
BITMAP
00
30
30
30
30
30
3C
FC
20
20
20
20
ENDCHAR
STARTCHAR char9541
ENCODING 9541
SWIDTH 540 0
DWIDTH 6 0
BBX 6 12 0 -2
BITMAP
00
20
20
20
20
20
E0
FC
30
30
30
30
ENDCHAR
STARTCHAR char9542
ENCODING 9542
SWIDTH 540 0
DWIDTH 6 0
BBX 6 12 0 -2
BITMAP
00
20
20
20
20
20
3C
FC
30
30
30
30
ENDCHAR
STARTCHAR char9543
ENCODING 9543
SWIDTH 540 0
DWIDTH 6 0
BBX 6 12 0 -2
BITMAP
00
30
30
30
30
30
FC
FC
20
20
20
20
ENDCHAR
STARTCHAR char9544
ENCODING 9544
SWIDTH 540 0
DWIDTH 6 0
BBX 6 12 0 -2
BITMAP
00
20
20
20
20
20
FC
FC
30
30
30
30
ENDCHAR
STARTCHAR char9545
ENCODING 9545
SWIDTH 540 0
DWIDTH 6 0
BBX 6 12 0 -2
BITMAP
00
30
30
30
30
30
F0
FC
30
30
30
30
ENDCHAR
STARTCHAR char9546
ENCODING 9546
SWIDTH 540 0
DWIDTH 6 0
BBX 6 12 0 -2
BITMAP
00
30
30
30
30
30
3C
FC
30
30
30
30
ENDCHAR
STARTCHAR char9547
ENCODING 9547
SWIDTH 540 0
DWIDTH 6 0
BBX 6 12 0 -2
BITMAP
00
30
30
30
30
30
FC
FC
30
30
30
30
ENDCHAR
STARTCHAR char9548
ENCODING 9548
SWIDTH 540 0
DWIDTH 6 0
BBX 6 12 0 -2
BITMAP
00
00
00
00
00
00
00
D8
00
00
00
00
ENDCHAR
STARTCHAR char9549
ENCODING 9549
SWIDTH 540 0
DWIDTH 6 0
BBX 6 12 0 -2
BITMAP
00
00
00
00
00
00
D8
D8
00
00
00
00
ENDCHAR
STARTCHAR char9550
ENCODING 9550
SWIDTH 540 0
DWIDTH 6 0
BBX 6 12 0 -2
BITMAP
00
00
20
20
20
20
00
20
20
20
20
00
ENDCHAR
STARTCHAR char9551
ENCODING 9551
SWIDTH 540 0
DWIDTH 6 0
BBX 6 12 0 -2
BITMAP
00
00
30
30
30
30
00
30
30
30
30
00
ENDCHAR
STARTCHAR char9552
ENCODING 9552
SWIDTH 540 0
DWIDTH 6 0
BBX 6 12 0 -2
BITMAP
00
00
00
00
00
00
FC
00
FC
00
00
00
ENDCHAR
STARTCHAR char9553
ENCODING 9553
SWIDTH 540 0
DWIDTH 6 0
BBX 6 12 0 -2
BITMAP
00
50
50
50
50
50
50
50
50
50
50
50
ENDCHAR
STARTCHAR char9554
ENCODING 9554
SWIDTH 540 0
DWIDTH 6 0
BBX 6 12 0 -2
BITMAP
00
00
00
00
00
00
3C
20
3C
20
20
20
ENDCHAR
STARTCHAR char9555
ENCODING 9555
SWIDTH 540 0
DWIDTH 6 0
BBX 6 12 0 -2
BITMAP
00
00
00
00
00
00
00
7C
50
50
50
50
ENDCHAR
STARTCHAR char9556
ENCODING 9556
SWIDTH 540 0
DWIDTH 6 0
BBX 6 12 0 -2
BITMAP
00
00
00
00
00
00
7C
40
5C
50
50
50
ENDCHAR
STARTCHAR char9557
ENCODING 9557
SWIDTH 540 0
DWIDTH 6 0
BBX 6 12 0 -2
BITMAP
00
00
00
00
00
00
E0
20
E0
20
20
20
ENDCHAR
STARTCHAR char9558
ENCODING 9558
SWIDTH 540 0
DWIDTH 6 0
BBX 6 12 0 -2
BITMAP
00
00
00
00
00
00
00
F0
50
50
50
50
ENDCHAR
STARTCHAR char9559
ENCODING 9559
SWIDTH 540 0
DWIDTH 6 0
BBX 6 12 0 -2
BITMAP
00
00
00
00
00
00
F0
10
D0
50
50
50
ENDCHAR
STARTCHAR char9560
ENCODING 9560
SWIDTH 540 0
DWIDTH 6 0
BBX 6 12 0 -2
BITMAP
00
20
20
20
20
20
3C
20
3C
00
00
00
ENDCHAR
STARTCHAR char9561
ENCODING 9561
SWIDTH 540 0
DWIDTH 6 0
BBX 6 12 0 -2
BITMAP
00
50
50
50
50
50
50
7C
00
00
00
00
ENDCHAR
STARTCHAR char9562
ENCODING 9562
SWIDTH 540 0
DWIDTH 6 0
BBX 6 12 0 -2
BITMAP
00
50
50
50
50
50
5C
40
7C
00
00
00
ENDCHAR
STARTCHAR char9563
ENCODING 9563
SWIDTH 540 0
DWIDTH 6 0
BBX 6 12 0 -2
BITMAP
00
20
20
20
20
20
E0
20
E0
00
00
00
ENDCHAR
STARTCHAR char9564
ENCODING 9564
SWIDTH 540 0
DWIDTH 6 0
BBX 6 12 0 -2
BITMAP
00
50
50
50
50
50
50
F0
00
00
00
00
ENDCHAR
STARTCHAR char9565
ENCODING 9565
SWIDTH 540 0
DWIDTH 6 0
BBX 6 12 0 -2
BITMAP
00
50
50
50
50
50
D0
10
F0
00
00
00
ENDCHAR
STARTCHAR char9566
ENCODING 9566
SWIDTH 540 0
DWIDTH 6 0
BBX 6 12 0 -2
BITMAP
00
20
20
20
20
20
3C
20
3C
20
20
20
ENDCHAR
STARTCHAR char9567
ENCODING 9567
SWIDTH 540 0
DWIDTH 6 0
BBX 6 12 0 -2
BITMAP
00
50
50
50
50
50
50
5C
50
50
50
50
ENDCHAR
STARTCHAR char9568
ENCODING 9568
SWIDTH 540 0
DWIDTH 6 0
BBX 6 12 0 -2
BITMAP
00
50
50
50
50
50
5C
40
5C
50
50
50
ENDCHAR
STARTCHAR char9569
ENCODING 9569
SWIDTH 540 0
DWIDTH 6 0
BBX 6 12 0 -2
BITMAP
00
20
20
20
20
20
E0
20
E0
20
20
20
ENDCHAR
STARTCHAR char9570
ENCODING 9570
SWIDTH 540 0
DWIDTH 6 0
BBX 6 12 0 -2
BITMAP
00
50
50
50
50
50
50
D0
50
50
50
50
ENDCHAR
STARTCHAR char9571
ENCODING 9571
SWIDTH 540 0
DWIDTH 6 0
BBX 6 12 0 -2
BITMAP
00
50
50
50
50
50
D0
10
D0
50
50
50
ENDCHAR
STARTCHAR char9572
ENCODING 9572
SWIDTH 540 0
DWIDTH 6 0
BBX 6 12 0 -2
BITMAP
00
00
00
00
00
00
FC
00
FC
20
20
20
ENDCHAR
STARTCHAR char9573
ENCODING 9573
SWIDTH 540 0
DWIDTH 6 0
BBX 6 12 0 -2
BITMAP
00
00
00
00
00
00
00
FC
50
50
50
50
ENDCHAR
STARTCHAR char9574
ENCODING 9574
SWIDTH 540 0
DWIDTH 6 0
BBX 6 12 0 -2
BITMAP
00
00
00
00
00
00
FC
00
DC
50
50
50
ENDCHAR
STARTCHAR char9575
ENCODING 9575
SWIDTH 540 0
DWIDTH 6 0
BBX 6 12 0 -2
BITMAP
00
20
20
20
20
20
FC
00
FC
00
00
00
ENDCHAR
STARTCHAR char9576
ENCODING 9576
SWIDTH 540 0
DWIDTH 6 0
BBX 6 12 0 -2
BITMAP
00
50
50
50
50
50
50
FC
00
00
00
00
ENDCHAR
STARTCHAR char9577
ENCODING 9577
SWIDTH 540 0
DWIDTH 6 0
BBX 6 12 0 -2
BITMAP
00
50
50
50
50
50
DC
00
FC
00
00
00
ENDCHAR
STARTCHAR char9578
ENCODING 9578
SWIDTH 540 0
DWIDTH 6 0
BBX 6 12 0 -2
BITMAP
00
20
20
20
20
20
FC
20
FC
20
20
20
ENDCHAR
STARTCHAR char9579
ENCODING 9579
SWIDTH 540 0
DWIDTH 6 0
BBX 6 12 0 -2
BITMAP
00
50
50
50
50
50
50
FC
50
50
50
50
ENDCHAR
STARTCHAR char9580
ENCODING 9580
SWIDTH 540 0
DWIDTH 6 0
BBX 6 12 0 -2
BITMAP
00
50
50
50
50
50
DC
00
DC
50
50
50
ENDCHAR
STARTCHAR char9581
ENCODING 9581
SWIDTH 540 0
DWIDTH 6 0
BBX 6 12 0 -2
BITMAP
00
00
00
00
00
00
00
0C
10
20
20
20
ENDCHAR
STARTCHAR char9582
ENCODING 9582
SWIDTH 540 0
DWIDTH 6 0
BBX 6 12 0 -2
BITMAP
00
00
00
00
00
00
00
80
40
20
20
20
ENDCHAR
STARTCHAR char9583
ENCODING 9583
SWIDTH 540 0
DWIDTH 6 0
BBX 6 12 0 -2
BITMAP
00
20
20
20
20
20
40
80
00
00
00
00
ENDCHAR
STARTCHAR char9584
ENCODING 9584
SWIDTH 540 0
DWIDTH 6 0
BBX 6 12 0 -2
BITMAP
00
20
20
20
20
20
10
0C
00
00
00
00
ENDCHAR
STARTCHAR char9585
ENCODING 9585
SWIDTH 540 0
DWIDTH 6 0
BBX 6 12 0 -2
BITMAP
00
04
04
08
08
10
30
20
40
40
80
80
ENDCHAR
STARTCHAR char9586
ENCODING 9586
SWIDTH 540 0
DWIDTH 6 0
BBX 6 12 0 -2
BITMAP
00
80
80
40
40
20
30
10
08
08
04
04
ENDCHAR
STARTCHAR char9587
ENCODING 9587
SWIDTH 540 0
DWIDTH 6 0
BBX 6 12 0 -2
BITMAP
00
84
84
48
48
30
30
30
48
48
84
84
ENDCHAR
STARTCHAR char9588
ENCODING 9588
SWIDTH 540 0
DWIDTH 6 0
BBX 6 12 0 -2
BITMAP
00
00
00
00
00
00
00
E0
00
00
00
00
ENDCHAR
STARTCHAR char9589
ENCODING 9589
SWIDTH 540 0
DWIDTH 6 0
BBX 6 12 0 -2
BITMAP
00
20
20
20
20
20
20
00
00
00
00
00
ENDCHAR
STARTCHAR char9590
ENCODING 9590
SWIDTH 540 0
DWIDTH 6 0
BBX 6 12 0 -2
BITMAP
00
00
00
00
00
00
00
1C
00
00
00
00
ENDCHAR
STARTCHAR char9591
ENCODING 9591
SWIDTH 540 0
DWIDTH 6 0
BBX 6 12 0 -2
BITMAP
00
00
00
00
00
00
00
20
20
20
20
20
ENDCHAR
STARTCHAR char9592
ENCODING 9592
SWIDTH 540 0
DWIDTH 6 0
BBX 6 12 0 -2
BITMAP
00
00
00
00
00
00
E0
E0
00
00
00
00
ENDCHAR
STARTCHAR char9593
ENCODING 9593
SWIDTH 540 0
DWIDTH 6 0
BBX 6 12 0 -2
BITMAP
00
30
30
30
30
30
30
00
00
00
00
00
ENDCHAR
STARTCHAR char9594
ENCODING 9594
SWIDTH 540 0
DWIDTH 6 0
BBX 6 12 0 -2
BITMAP
00
00
00
00
00
00
1C
1C
00
00
00
00
ENDCHAR
STARTCHAR char9595
ENCODING 9595
SWIDTH 540 0
DWIDTH 6 0
BBX 6 12 0 -2
BITMAP
00
00
00
00
00
00
00
30
30
30
30
30
ENDCHAR
STARTCHAR char9596
ENCODING 9596
SWIDTH 540 0
DWIDTH 6 0
BBX 6 12 0 -2
BITMAP
00
00
00
00
00
00
1C
FC
00
00
00
00
ENDCHAR
STARTCHAR char9597
ENCODING 9597
SWIDTH 540 0
DWIDTH 6 0
BBX 6 12 0 -2
BITMAP
00
20
20
20
20
20
20
30
30
30
30
30
ENDCHAR
STARTCHAR char9598
ENCODING 9598
SWIDTH 540 0
DWIDTH 6 0
BBX 6 12 0 -2
BITMAP
00
00
00
00
00
00
E0
FC
00
00
00
00
ENDCHAR
STARTCHAR char9599
ENCODING 9599
SWIDTH 540 0
DWIDTH 6 0
BBX 6 12 0 -2
BITMAP
00
30
30
30
30
30
30
20
20
20
20
20
ENDCHAR
STARTCHAR char9600
ENCODING 9600
SWIDTH 540 0
DWIDTH 6 0
BBX 6 12 0 -2
BITMAP
00
FC
FC
FC
FC
FC
FC
00
00
00
00
00
ENDCHAR
STARTCHAR char9601
ENCODING 9601
SWIDTH 540 0
DWIDTH 6 0
BBX 6 12 0 -2
BITMAP
00
00
00
00
00
00
00
00
00
00
00
FC
ENDCHAR
STARTCHAR char9602
ENCODING 9602
SWIDTH 540 0
DWIDTH 6 0
BBX 6 12 0 -2
BITMAP
00
00
00
00
00
00
00
00
00
00
FC
FC
ENDCHAR
STARTCHAR char9603
ENCODING 9603
SWIDTH 540 0
DWIDTH 6 0
BBX 6 12 0 -2
BITMAP
00
00
00
00
00
00
00
00
FC
FC
FC
FC
ENDCHAR
STARTCHAR char9604
ENCODING 9604
SWIDTH 540 0
DWIDTH 6 0
BBX 6 12 0 -2
BITMAP
00
00
00
00
00
00
00
FC
FC
FC
FC
FC
ENDCHAR
STARTCHAR char9605
ENCODING 9605
SWIDTH 540 0
DWIDTH 6 0
BBX 6 12 0 -2
BITMAP
00
00
00
00
00
00
FC
FC
FC
FC
FC
FC
ENDCHAR
STARTCHAR char9606
ENCODING 9606
SWIDTH 540 0
DWIDTH 6 0
BBX 6 12 0 -2
BITMAP
00
00
00
00
FC
FC
FC
FC
FC
FC
FC
FC
ENDCHAR
STARTCHAR char9607
ENCODING 9607
SWIDTH 540 0
DWIDTH 6 0
BBX 6 12 0 -2
BITMAP
00
00
00
FC
FC
FC
FC
FC
FC
FC
FC
FC
ENDCHAR
STARTCHAR char9608
ENCODING 9608
SWIDTH 540 0
DWIDTH 6 0
BBX 6 12 0 -2
BITMAP
00
FC
FC
FC
FC
FC
FC
FC
FC
FC
FC
FC
ENDCHAR
STARTCHAR char9609
ENCODING 9609
SWIDTH 540 0
DWIDTH 6 0
BBX 6 12 0 -2
BITMAP
00
F8
F8
F8
F8
F8
F8
F8
F8
F8
F8
F8
ENDCHAR
STARTCHAR char9610
ENCODING 9610
SWIDTH 540 0
DWIDTH 6 0
BBX 6 12 0 -2
BITMAP
00
F0
F0
F0
F0
F0
F0
F0
F0
F0
F0
F0
ENDCHAR
STARTCHAR char9611
ENCODING 9611
SWIDTH 540 0
DWIDTH 6 0
BBX 6 12 0 -2
BITMAP
00
F0
F0
F0
F0
F0
F0
F0
F0
F0
F0
F0
ENDCHAR
STARTCHAR char9612
ENCODING 9612
SWIDTH 540 0
DWIDTH 6 0
BBX 6 12 0 -2
BITMAP
00
E0
E0
E0
E0
E0
E0
E0
E0
E0
E0
E0
ENDCHAR
STARTCHAR char9613
ENCODING 9613
SWIDTH 540 0
DWIDTH 6 0
BBX 6 12 0 -2
BITMAP
00
C0
C0
C0
C0
C0
C0
C0
C0
C0
C0
C0
ENDCHAR
STARTCHAR char9614
ENCODING 9614
SWIDTH 540 0
DWIDTH 6 0
BBX 6 12 0 -2
BITMAP
00
C0
C0
C0
C0
C0
C0
C0
C0
C0
C0
C0
ENDCHAR
STARTCHAR char9615
ENCODING 9615
SWIDTH 540 0
DWIDTH 6 0
BBX 6 12 0 -2
BITMAP
00
80
80
80
80
80
80
80
80
80
80
80
ENDCHAR
STARTCHAR char9616
ENCODING 9616
SWIDTH 540 0
DWIDTH 6 0
BBX 6 12 0 -2
BITMAP
00
1C
1C
1C
1C
1C
1C
1C
1C
1C
1C
1C
ENDCHAR
STARTCHAR char9617
ENCODING 9617
SWIDTH 540 0
DWIDTH 6 0
BBX 6 12 0 -2
BITMAP
00
00
A8
00
54
00
A8
00
54
00
A8
00
ENDCHAR
STARTCHAR char9618
ENCODING 9618
SWIDTH 540 0
DWIDTH 6 0
BBX 6 12 0 -2
BITMAP
00
54
A8
54
A8
54
A8
54
A8
54
A8
54
ENDCHAR
STARTCHAR char9619
ENCODING 9619
SWIDTH 540 0
DWIDTH 6 0
BBX 6 12 0 -2
BITMAP
00
FC
A8
FC
54
FC
A8
FC
54
FC
A8
FC
ENDCHAR
STARTCHAR char9620
ENCODING 9620
SWIDTH 540 0
DWIDTH 6 0
BBX 6 12 0 -2
BITMAP
00
FC
00
00
00
00
00
00
00
00
00
00
ENDCHAR
STARTCHAR char9621
ENCODING 9621
SWIDTH 540 0
DWIDTH 6 0
BBX 6 12 0 -2
BITMAP
00
04
04
04
04
04
04
04
04
04
04
04
ENDCHAR
STARTCHAR char9622
ENCODING 9622
SWIDTH 540 0
DWIDTH 6 0
BBX 6 12 0 -2
BITMAP
00
00
00
00
00
00
00
E0
E0
E0
E0
E0
ENDCHAR
STARTCHAR char9623
ENCODING 9623
SWIDTH 540 0
DWIDTH 6 0
BBX 6 12 0 -2
BITMAP
00
00
00
00
00
00
00
1C
1C
1C
1C
1C
ENDCHAR
STARTCHAR char9624
ENCODING 9624
SWIDTH 540 0
DWIDTH 6 0
BBX 6 12 0 -2
BITMAP
00
E0
E0
E0
E0
E0
E0
00
00
00
00
00
ENDCHAR
STARTCHAR char9625
ENCODING 9625
SWIDTH 540 0
DWIDTH 6 0
BBX 6 12 0 -2
BITMAP
00
E0
E0
E0
E0
E0
E0
FC
FC
FC
FC
FC
ENDCHAR
STARTCHAR char9626
ENCODING 9626
SWIDTH 540 0
DWIDTH 6 0
BBX 6 12 0 -2
BITMAP
00
E0
E0
E0
E0
E0
E0
1C
1C
1C
1C
1C
ENDCHAR
STARTCHAR char9627
ENCODING 9627
SWIDTH 540 0
DWIDTH 6 0
BBX 6 12 0 -2
BITMAP
00
FC
FC
FC
FC
FC
FC
E0
E0
E0
E0
E0
ENDCHAR
STARTCHAR char9628
ENCODING 9628
SWIDTH 540 0
DWIDTH 6 0
BBX 6 12 0 -2
BITMAP
00
FC
FC
FC
FC
FC
FC
1C
1C
1C
1C
1C
ENDCHAR
STARTCHAR char9629
ENCODING 9629
SWIDTH 540 0
DWIDTH 6 0
BBX 6 12 0 -2
BITMAP
00
1C
1C
1C
1C
1C
1C
00
00
00
00
00
ENDCHAR
STARTCHAR char9630
ENCODING 9630
SWIDTH 540 0
DWIDTH 6 0
BBX 6 12 0 -2
BITMAP
00
1C
1C
1C
1C
1C
1C
E0
E0
E0
E0
E0
ENDCHAR
STARTCHAR char9631
ENCODING 9631
SWIDTH 540 0
DWIDTH 6 0
BBX 6 12 0 -2
BITMAP
00
1C
1C
1C
1C
1C
1C
FC
FC
FC
FC
FC
ENDCHAR
STARTCHAR char9632
ENCODING 9632
SWIDTH 540 0
DWIDTH 6 0
BBX 6 12 0 -2
BITMAP
00
00
00
00
00
F8
F8
F8
F8
F8
00
00
ENDCHAR
STARTCHAR char9633
ENCODING 9633
SWIDTH 540 0
DWIDTH 6 0
BBX 6 12 0 -2
BITMAP
00
00
00
00
00
F8
88
88
88
F8
00
00
ENDCHAR
STARTCHAR char9642
ENCODING 9642
SWIDTH 540 0
DWIDTH 6 0
BBX 6 12 0 -2
BITMAP
00
00
00
00
00
00
78
78
78
78
00
00
ENDCHAR
STARTCHAR char9643
ENCODING 9643
SWIDTH 540 0
DWIDTH 6 0
BBX 6 12 0 -2
BITMAP
00
00
00
00
00
00
78
48
48
78
00
00
ENDCHAR
STARTCHAR char9644
ENCODING 9644
SWIDTH 540 0
DWIDTH 6 0
BBX 6 12 0 -2
BITMAP
00
00
00
00
00
00
FC
FC
FC
FC
00
00
ENDCHAR
STARTCHAR char9646
ENCODING 9646
SWIDTH 540 0
DWIDTH 6 0
BBX 6 12 0 -2
BITMAP
00
00
00
00
00
78
78
78
78
78
78
00
ENDCHAR
STARTCHAR char9650
ENCODING 9650
SWIDTH 540 0
DWIDTH 6 0
BBX 6 12 0 -2
BITMAP
00
00
00
00
20
20
70
70
F8
F8
00
00
ENDCHAR
STARTCHAR char9651
ENCODING 9651
SWIDTH 540 0
DWIDTH 6 0
BBX 6 12 0 -2
BITMAP
00
00
00
00
20
20
50
50
88
F8
00
00
ENDCHAR
STARTCHAR char9658
ENCODING 9658
SWIDTH 540 0
DWIDTH 6 0
BBX 6 12 0 -2
BITMAP
00
00
00
00
00
C0
F0
FC
F0
C0
00
00
ENDCHAR
STARTCHAR char9659
ENCODING 9659
SWIDTH 540 0
DWIDTH 6 0
BBX 6 12 0 -2
BITMAP
00
00
00
00
00
C0
B0
8C
B0
C0
00
00
ENDCHAR
STARTCHAR char9660
ENCODING 9660
SWIDTH 540 0
DWIDTH 6 0
BBX 6 12 0 -2
BITMAP
00
00
00
00
F8
F8
70
70
20
20
00
00
ENDCHAR
STARTCHAR char9661
ENCODING 9661
SWIDTH 540 0
DWIDTH 6 0
BBX 6 12 0 -2
BITMAP
00
00
00
00
F8
88
50
50
20
20
00
00
ENDCHAR
STARTCHAR char9668
ENCODING 9668
SWIDTH 540 0
DWIDTH 6 0
BBX 6 12 0 -2
BITMAP
00
00
00
00
00
0C
3C
FC
3C
0C
00
00
ENDCHAR
STARTCHAR char9669
ENCODING 9669
SWIDTH 540 0
DWIDTH 6 0
BBX 6 12 0 -2
BITMAP
00
00
00
00
00
0C
34
C4
34
0C
00
00
ENDCHAR
STARTCHAR char9670
ENCODING 9670
SWIDTH 540 0
DWIDTH 6 0
BBX 6 12 0 -2
BITMAP
00
00
00
00
20
70
F8
70
20
00
00
00
ENDCHAR
STARTCHAR char9674
ENCODING 9674
SWIDTH 540 0
DWIDTH 6 0
BBX 6 12 0 -2
BITMAP
00
00
00
20
50
50
88
50
50
20
00
00
ENDCHAR
STARTCHAR char9675
ENCODING 9675
SWIDTH 540 0
DWIDTH 6 0
BBX 6 12 0 -2
BITMAP
00
00
00
00
00
70
88
88
88
70
00
00
ENDCHAR
STARTCHAR char9676
ENCODING 9676
SWIDTH 540 0
DWIDTH 6 0
BBX 6 12 0 -2
BITMAP
00
00
00
00
00
70
F8
F8
F8
70
00
00
ENDCHAR
STARTCHAR char9679
ENCODING 9679
SWIDTH 540 0
DWIDTH 6 0
BBX 6 12 0 -2
BITMAP
00
00
00
00
00
70
F8
F8
F8
70
00
00
ENDCHAR
STARTCHAR char9688
ENCODING 9688
SWIDTH 540 0
DWIDTH 6 0
BBX 6 12 0 -2
BITMAP
00
FC
FC
FC
FC
CC
84
84
CC
FC
FC
FC
ENDCHAR
STARTCHAR char9689
ENCODING 9689
SWIDTH 540 0
DWIDTH 6 0
BBX 6 12 0 -2
BITMAP
00
FC
FC
FC
FC
CC
B4
B4
CC
FC
FC
FC
ENDCHAR
STARTCHAR char9702
ENCODING 9702
SWIDTH 540 0
DWIDTH 6 0
BBX 6 12 0 -2
BITMAP
00
00
00
00
00
30
48
48
30
00
00
00
ENDCHAR
STARTCHAR char9728
ENCODING 9728
SWIDTH 540 0
DWIDTH 6 0
BBX 6 12 0 -2
BITMAP
00
00
00
10
54
00
B0
34
00
A8
20
00
ENDCHAR
STARTCHAR char9786
ENCODING 9786
SWIDTH 540 0
DWIDTH 6 0
BBX 6 12 0 -2
BITMAP
00
00
00
00
78
84
CC
84
B4
84
78
00
ENDCHAR
STARTCHAR char9787
ENCODING 9787
SWIDTH 540 0
DWIDTH 6 0
BBX 6 12 0 -2
BITMAP
00
00
00
70
F8
A8
F8
A8
D8
70
00
00
ENDCHAR
STARTCHAR char9788
ENCODING 9788
SWIDTH 540 0
DWIDTH 6 0
BBX 6 12 0 -2
BITMAP
00
00
00
10
54
00
B0
34
00
A8
20
00
ENDCHAR
STARTCHAR char9791
ENCODING 9791
SWIDTH 540 0
DWIDTH 6 0
BBX 6 12 0 -2
BITMAP
00
00
00
88
70
88
88
88
70
20
70
20
ENDCHAR
STARTCHAR char9792
ENCODING 9792
SWIDTH 540 0
DWIDTH 6 0
BBX 6 12 0 -2
BITMAP
00
00
00
00
70
88
88
88
70
20
70
20
ENDCHAR
STARTCHAR char9793
ENCODING 9793
SWIDTH 540 0
DWIDTH 6 0
BBX 6 12 0 -2
BITMAP
00
00
20
70
20
70
88
88
88
70
00
00
ENDCHAR
STARTCHAR char9794
ENCODING 9794
SWIDTH 540 0
DWIDTH 6 0
BBX 6 12 0 -2
BITMAP
00
00
00
1C
0C
74
88
88
88
70
00
00
ENDCHAR
STARTCHAR char9824
ENCODING 9824
SWIDTH 540 0
DWIDTH 6 0
BBX 6 12 0 -2
BITMAP
00
00
00
20
20
70
F8
F8
20
70
00
00
ENDCHAR
STARTCHAR char9825
ENCODING 9825
SWIDTH 540 0
DWIDTH 6 0
BBX 6 12 0 -2
BITMAP
00
00
00
00
50
A8
A8
88
50
20
00
00
ENDCHAR
STARTCHAR char9826
ENCODING 9826
SWIDTH 540 0
DWIDTH 6 0
BBX 6 12 0 -2
BITMAP
00
00
20
50
50
88
88
50
50
20
00
00
ENDCHAR
STARTCHAR char9827
ENCODING 9827
SWIDTH 540 0
DWIDTH 6 0
BBX 6 12 0 -2
BITMAP
00
00
00
70
20
A8
F8
A8
20
70
00
00
ENDCHAR
STARTCHAR char9828
ENCODING 9828
SWIDTH 540 0
DWIDTH 6 0
BBX 6 12 0 -2
BITMAP
00
00
00
20
20
50
88
D8
20
70
00
00
ENDCHAR
STARTCHAR char9829
ENCODING 9829
SWIDTH 540 0
DWIDTH 6 0
BBX 6 12 0 -2
BITMAP
00
00
00
00
50
F8
F8
F8
70
20
00
00
ENDCHAR
STARTCHAR char9830
ENCODING 9830
SWIDTH 540 0
DWIDTH 6 0
BBX 6 12 0 -2
BITMAP
00
00
20
70
70
F8
F8
70
70
20
00
00
ENDCHAR
STARTCHAR char9834
ENCODING 9834
SWIDTH 540 0
DWIDTH 6 0
BBX 6 12 0 -2
BITMAP
00
00
00
00
30
28
20
60
E0
60
00
00
ENDCHAR
STARTCHAR char9835
ENCODING 9835
SWIDTH 540 0
DWIDTH 6 0
BBX 6 12 0 -2
BITMAP
00
00
00
60
50
48
48
C8
D8
18
00
00
ENDCHAR
STARTCHAR char9836
ENCODING 9836
SWIDTH 540 0
DWIDTH 6 0
BBX 6 12 0 -2
BITMAP
00
00
00
60
50
68
58
C8
D8
18
00
00
ENDCHAR
STARTCHAR char9837
ENCODING 9837
SWIDTH 540 0
DWIDTH 6 0
BBX 6 12 0 -2
BITMAP
00
00
00
40
40
50
68
48
50
60
00
00
ENDCHAR
STARTCHAR char9838
ENCODING 9838
SWIDTH 540 0
DWIDTH 6 0
BBX 6 12 0 -2
BITMAP
00
00
00
40
48
58
68
58
68
48
08
00
ENDCHAR
STARTCHAR char9839
ENCODING 9839
SWIDTH 540 0
DWIDTH 6 0
BBX 6 12 0 -2
BITMAP
00
00
00
10
58
70
D0
58
70
D0
40
00
ENDCHAR
STARTCHAR char10216
ENCODING 10216
SWIDTH 540 0
DWIDTH 6 0
BBX 6 12 0 -2
BITMAP
00
00
00
10
20
20
40
20
20
10
00
00
ENDCHAR
STARTCHAR char10217
ENCODING 10217
SWIDTH 540 0
DWIDTH 6 0
BBX 6 12 0 -2
BITMAP
00
00
00
40
20
20
10
20
20
40
00
00
ENDCHAR
STARTCHAR char10240
ENCODING 10240
SWIDTH 540 0
DWIDTH 6 0
BBX 6 12 0 -2
BITMAP
00
00
00
00
00
00
00
00
00
00
00
00
ENDCHAR
STARTCHAR char10241
ENCODING 10241
SWIDTH 540 0
DWIDTH 6 0
BBX 6 12 0 -2
BITMAP
00
00
00
40
00
00
00
00
00
00
00
00
ENDCHAR
STARTCHAR char10242
ENCODING 10242
SWIDTH 540 0
DWIDTH 6 0
BBX 6 12 0 -2
BITMAP
00
00
00
00
00
40
00
00
00
00
00
00
ENDCHAR
STARTCHAR char10243
ENCODING 10243
SWIDTH 540 0
DWIDTH 6 0
BBX 6 12 0 -2
BITMAP
00
00
00
40
00
40
00
00
00
00
00
00
ENDCHAR
STARTCHAR char10244
ENCODING 10244
SWIDTH 540 0
DWIDTH 6 0
BBX 6 12 0 -2
BITMAP
00
00
00
00
00
00
00
40
00
00
00
00
ENDCHAR
STARTCHAR char10245
ENCODING 10245
SWIDTH 540 0
DWIDTH 6 0
BBX 6 12 0 -2
BITMAP
00
00
00
40
00
00
00
40
00
00
00
00
ENDCHAR
STARTCHAR char10246
ENCODING 10246
SWIDTH 540 0
DWIDTH 6 0
BBX 6 12 0 -2
BITMAP
00
00
00
00
00
40
00
40
00
00
00
00
ENDCHAR
STARTCHAR char10247
ENCODING 10247
SWIDTH 540 0
DWIDTH 6 0
BBX 6 12 0 -2
BITMAP
00
00
00
40
00
40
00
40
00
00
00
00
ENDCHAR
STARTCHAR char10248
ENCODING 10248
SWIDTH 540 0
DWIDTH 6 0
BBX 6 12 0 -2
BITMAP
00
00
00
10
00
00
00
00
00
00
00
00
ENDCHAR
STARTCHAR char10249
ENCODING 10249
SWIDTH 540 0
DWIDTH 6 0
BBX 6 12 0 -2
BITMAP
00
00
00
50
00
00
00
00
00
00
00
00
ENDCHAR
STARTCHAR char10250
ENCODING 10250
SWIDTH 540 0
DWIDTH 6 0
BBX 6 12 0 -2
BITMAP
00
00
00
10
00
40
00
00
00
00
00
00
ENDCHAR
STARTCHAR char10251
ENCODING 10251
SWIDTH 540 0
DWIDTH 6 0
BBX 6 12 0 -2
BITMAP
00
00
00
50
00
40
00
00
00
00
00
00
ENDCHAR
STARTCHAR char10252
ENCODING 10252
SWIDTH 540 0
DWIDTH 6 0
BBX 6 12 0 -2
BITMAP
00
00
00
10
00
00
00
40
00
00
00
00
ENDCHAR
STARTCHAR char10253
ENCODING 10253
SWIDTH 540 0
DWIDTH 6 0
BBX 6 12 0 -2
BITMAP
00
00
00
50
00
00
00
40
00
00
00
00
ENDCHAR
STARTCHAR char10254
ENCODING 10254
SWIDTH 540 0
DWIDTH 6 0
BBX 6 12 0 -2
BITMAP
00
00
00
10
00
40
00
40
00
00
00
00
ENDCHAR
STARTCHAR char10255
ENCODING 10255
SWIDTH 540 0
DWIDTH 6 0
BBX 6 12 0 -2
BITMAP
00
00
00
50
00
40
00
40
00
00
00
00
ENDCHAR
STARTCHAR char10256
ENCODING 10256
SWIDTH 540 0
DWIDTH 6 0
BBX 6 12 0 -2
BITMAP
00
00
00
00
00
10
00
00
00
00
00
00
ENDCHAR
STARTCHAR char10257
ENCODING 10257
SWIDTH 540 0
DWIDTH 6 0
BBX 6 12 0 -2
BITMAP
00
00
00
40
00
10
00
00
00
00
00
00
ENDCHAR
STARTCHAR char10258
ENCODING 10258
SWIDTH 540 0
DWIDTH 6 0
BBX 6 12 0 -2
BITMAP
00
00
00
00
00
50
00
00
00
00
00
00
ENDCHAR
STARTCHAR char10259
ENCODING 10259
SWIDTH 540 0
DWIDTH 6 0
BBX 6 12 0 -2
BITMAP
00
00
00
40
00
50
00
00
00
00
00
00
ENDCHAR
STARTCHAR char10260
ENCODING 10260
SWIDTH 540 0
DWIDTH 6 0
BBX 6 12 0 -2
BITMAP
00
00
00
00
00
10
00
40
00
00
00
00
ENDCHAR
STARTCHAR char10261
ENCODING 10261
SWIDTH 540 0
DWIDTH 6 0
BBX 6 12 0 -2
BITMAP
00
00
00
40
00
10
00
40
00
00
00
00
ENDCHAR
STARTCHAR char10262
ENCODING 10262
SWIDTH 540 0
DWIDTH 6 0
BBX 6 12 0 -2
BITMAP
00
00
00
00
00
50
00
40
00
00
00
00
ENDCHAR
STARTCHAR char10263
ENCODING 10263
SWIDTH 540 0
DWIDTH 6 0
BBX 6 12 0 -2
BITMAP
00
00
00
40
00
50
00
40
00
00
00
00
ENDCHAR
STARTCHAR char10264
ENCODING 10264
SWIDTH 540 0
DWIDTH 6 0
BBX 6 12 0 -2
BITMAP
00
00
00
10
00
10
00
00
00
00
00
00
ENDCHAR
STARTCHAR char10265
ENCODING 10265
SWIDTH 540 0
DWIDTH 6 0
BBX 6 12 0 -2
BITMAP
00
00
00
50
00
10
00
00
00
00
00
00
ENDCHAR
STARTCHAR char10266
ENCODING 10266
SWIDTH 540 0
DWIDTH 6 0
BBX 6 12 0 -2
BITMAP
00
00
00
10
00
50
00
00
00
00
00
00
ENDCHAR
STARTCHAR char10267
ENCODING 10267
SWIDTH 540 0
DWIDTH 6 0
BBX 6 12 0 -2
BITMAP
00
00
00
50
00
50
00
00
00
00
00
00
ENDCHAR
STARTCHAR char10268
ENCODING 10268
SWIDTH 540 0
DWIDTH 6 0
BBX 6 12 0 -2
BITMAP
00
00
00
10
00
10
00
40
00
00
00
00
ENDCHAR
STARTCHAR char10269
ENCODING 10269
SWIDTH 540 0
DWIDTH 6 0
BBX 6 12 0 -2
BITMAP
00
00
00
50
00
10
00
40
00
00
00
00
ENDCHAR
STARTCHAR char10270
ENCODING 10270
SWIDTH 540 0
DWIDTH 6 0
BBX 6 12 0 -2
BITMAP
00
00
00
10
00
50
00
40
00
00
00
00
ENDCHAR
STARTCHAR char10271
ENCODING 10271
SWIDTH 540 0
DWIDTH 6 0
BBX 6 12 0 -2
BITMAP
00
00
00
50
00
50
00
40
00
00
00
00
ENDCHAR
STARTCHAR char10272
ENCODING 10272
SWIDTH 540 0
DWIDTH 6 0
BBX 6 12 0 -2
BITMAP
00
00
00
00
00
00
00
10
00
00
00
00
ENDCHAR
STARTCHAR char10273
ENCODING 10273
SWIDTH 540 0
DWIDTH 6 0
BBX 6 12 0 -2
BITMAP
00
00
00
40
00
00
00
10
00
00
00
00
ENDCHAR
STARTCHAR char10274
ENCODING 10274
SWIDTH 540 0
DWIDTH 6 0
BBX 6 12 0 -2
BITMAP
00
00
00
00
00
40
00
10
00
00
00
00
ENDCHAR
STARTCHAR char10275
ENCODING 10275
SWIDTH 540 0
DWIDTH 6 0
BBX 6 12 0 -2
BITMAP
00
00
00
40
00
40
00
10
00
00
00
00
ENDCHAR
STARTCHAR char10276
ENCODING 10276
SWIDTH 540 0
DWIDTH 6 0
BBX 6 12 0 -2
BITMAP
00
00
00
00
00
00
00
50
00
00
00
00
ENDCHAR
STARTCHAR char10277
ENCODING 10277
SWIDTH 540 0
DWIDTH 6 0
BBX 6 12 0 -2
BITMAP
00
00
00
40
00
00
00
50
00
00
00
00
ENDCHAR
STARTCHAR char10278
ENCODING 10278
SWIDTH 540 0
DWIDTH 6 0
BBX 6 12 0 -2
BITMAP
00
00
00
00
00
40
00
50
00
00
00
00
ENDCHAR
STARTCHAR char10279
ENCODING 10279
SWIDTH 540 0
DWIDTH 6 0
BBX 6 12 0 -2
BITMAP
00
00
00
40
00
40
00
50
00
00
00
00
ENDCHAR
STARTCHAR char10280
ENCODING 10280
SWIDTH 540 0
DWIDTH 6 0
BBX 6 12 0 -2
BITMAP
00
00
00
10
00
00
00
10
00
00
00
00
ENDCHAR
STARTCHAR char10281
ENCODING 10281
SWIDTH 540 0
DWIDTH 6 0
BBX 6 12 0 -2
BITMAP
00
00
00
50
00
00
00
10
00
00
00
00
ENDCHAR
STARTCHAR char10282
ENCODING 10282
SWIDTH 540 0
DWIDTH 6 0
BBX 6 12 0 -2
BITMAP
00
00
00
10
00
40
00
10
00
00
00
00
ENDCHAR
STARTCHAR char10283
ENCODING 10283
SWIDTH 540 0
DWIDTH 6 0
BBX 6 12 0 -2
BITMAP
00
00
00
50
00
40
00
10
00
00
00
00
ENDCHAR
STARTCHAR char10284
ENCODING 10284
SWIDTH 540 0
DWIDTH 6 0
BBX 6 12 0 -2
BITMAP
00
00
00
10
00
00
00
50
00
00
00
00
ENDCHAR
STARTCHAR char10285
ENCODING 10285
SWIDTH 540 0
DWIDTH 6 0
BBX 6 12 0 -2
BITMAP
00
00
00
50
00
00
00
50
00
00
00
00
ENDCHAR
STARTCHAR char10286
ENCODING 10286
SWIDTH 540 0
DWIDTH 6 0
BBX 6 12 0 -2
BITMAP
00
00
00
10
00
40
00
50
00
00
00
00
ENDCHAR
STARTCHAR char10287
ENCODING 10287
SWIDTH 540 0
DWIDTH 6 0
BBX 6 12 0 -2
BITMAP
00
00
00
50
00
40
00
50
00
00
00
00
ENDCHAR
STARTCHAR char10288
ENCODING 10288
SWIDTH 540 0
DWIDTH 6 0
BBX 6 12 0 -2
BITMAP
00
00
00
00
00
10
00
10
00
00
00
00
ENDCHAR
STARTCHAR char10289
ENCODING 10289
SWIDTH 540 0
DWIDTH 6 0
BBX 6 12 0 -2
BITMAP
00
00
00
40
00
10
00
10
00
00
00
00
ENDCHAR
STARTCHAR char10290
ENCODING 10290
SWIDTH 540 0
DWIDTH 6 0
BBX 6 12 0 -2
BITMAP
00
00
00
00
00
50
00
10
00
00
00
00
ENDCHAR
STARTCHAR char10291
ENCODING 10291
SWIDTH 540 0
DWIDTH 6 0
BBX 6 12 0 -2
BITMAP
00
00
00
40
00
50
00
10
00
00
00
00
ENDCHAR
STARTCHAR char10292
ENCODING 10292
SWIDTH 540 0
DWIDTH 6 0
BBX 6 12 0 -2
BITMAP
00
00
00
00
00
10
00
50
00
00
00
00
ENDCHAR
STARTCHAR char10293
ENCODING 10293
SWIDTH 540 0
DWIDTH 6 0
BBX 6 12 0 -2
BITMAP
00
00
00
40
00
10
00
50
00
00
00
00
ENDCHAR
STARTCHAR char10294
ENCODING 10294
SWIDTH 540 0
DWIDTH 6 0
BBX 6 12 0 -2
BITMAP
00
00
00
00
00
50
00
50
00
00
00
00
ENDCHAR
STARTCHAR char10295
ENCODING 10295
SWIDTH 540 0
DWIDTH 6 0
BBX 6 12 0 -2
BITMAP
00
00
00
40
00
50
00
50
00
00
00
00
ENDCHAR
STARTCHAR char10296
ENCODING 10296
SWIDTH 540 0
DWIDTH 6 0
BBX 6 12 0 -2
BITMAP
00
00
00
10
00
10
00
10
00
00
00
00
ENDCHAR
STARTCHAR char10297
ENCODING 10297
SWIDTH 540 0
DWIDTH 6 0
BBX 6 12 0 -2
BITMAP
00
00
00
50
00
10
00
10
00
00
00
00
ENDCHAR
STARTCHAR char10298
ENCODING 10298
SWIDTH 540 0
DWIDTH 6 0
BBX 6 12 0 -2
BITMAP
00
00
00
10
00
50
00
10
00
00
00
00
ENDCHAR
STARTCHAR char10299
ENCODING 10299
SWIDTH 540 0
DWIDTH 6 0
BBX 6 12 0 -2
BITMAP
00
00
00
50
00
50
00
10
00
00
00
00
ENDCHAR
STARTCHAR char10300
ENCODING 10300
SWIDTH 540 0
DWIDTH 6 0
BBX 6 12 0 -2
BITMAP
00
00
00
10
00
10
00
50
00
00
00
00
ENDCHAR
STARTCHAR char10301
ENCODING 10301
SWIDTH 540 0
DWIDTH 6 0
BBX 6 12 0 -2
BITMAP
00
00
00
50
00
10
00
50
00
00
00
00
ENDCHAR
STARTCHAR char10302
ENCODING 10302
SWIDTH 540 0
DWIDTH 6 0
BBX 6 12 0 -2
BITMAP
00
00
00
10
00
50
00
50
00
00
00
00
ENDCHAR
STARTCHAR char10303
ENCODING 10303
SWIDTH 540 0
DWIDTH 6 0
BBX 6 12 0 -2
BITMAP
00
00
00
50
00
50
00
50
00
00
00
00
ENDCHAR
STARTCHAR char10304
ENCODING 10304
SWIDTH 540 0
DWIDTH 6 0
BBX 6 12 0 -2
BITMAP
00
00
00
00
00
00
00
00
00
40
00
00
ENDCHAR
STARTCHAR char10305
ENCODING 10305
SWIDTH 540 0
DWIDTH 6 0
BBX 6 12 0 -2
BITMAP
00
00
00
40
00
00
00
00
00
40
00
00
ENDCHAR
STARTCHAR char10306
ENCODING 10306
SWIDTH 540 0
DWIDTH 6 0
BBX 6 12 0 -2
BITMAP
00
00
00
00
00
40
00
00
00
40
00
00
ENDCHAR
STARTCHAR char10307
ENCODING 10307
SWIDTH 540 0
DWIDTH 6 0
BBX 6 12 0 -2
BITMAP
00
00
00
40
00
40
00
00
00
40
00
00
ENDCHAR
STARTCHAR char10308
ENCODING 10308
SWIDTH 540 0
DWIDTH 6 0
BBX 6 12 0 -2
BITMAP
00
00
00
00
00
00
00
40
00
40
00
00
ENDCHAR
STARTCHAR char10309
ENCODING 10309
SWIDTH 540 0
DWIDTH 6 0
BBX 6 12 0 -2
BITMAP
00
00
00
40
00
00
00
40
00
40
00
00
ENDCHAR
STARTCHAR char10310
ENCODING 10310
SWIDTH 540 0
DWIDTH 6 0
BBX 6 12 0 -2
BITMAP
00
00
00
00
00
40
00
40
00
40
00
00
ENDCHAR
STARTCHAR char10311
ENCODING 10311
SWIDTH 540 0
DWIDTH 6 0
BBX 6 12 0 -2
BITMAP
00
00
00
40
00
40
00
40
00
40
00
00
ENDCHAR
STARTCHAR char10312
ENCODING 10312
SWIDTH 540 0
DWIDTH 6 0
BBX 6 12 0 -2
BITMAP
00
00
00
10
00
00
00
00
00
40
00
00
ENDCHAR
STARTCHAR char10313
ENCODING 10313
SWIDTH 540 0
DWIDTH 6 0
BBX 6 12 0 -2
BITMAP
00
00
00
50
00
00
00
00
00
40
00
00
ENDCHAR
STARTCHAR char10314
ENCODING 10314
SWIDTH 540 0
DWIDTH 6 0
BBX 6 12 0 -2
BITMAP
00
00
00
10
00
40
00
00
00
40
00
00
ENDCHAR
STARTCHAR char10315
ENCODING 10315
SWIDTH 540 0
DWIDTH 6 0
BBX 6 12 0 -2
BITMAP
00
00
00
50
00
40
00
00
00
40
00
00
ENDCHAR
STARTCHAR char10316
ENCODING 10316
SWIDTH 540 0
DWIDTH 6 0
BBX 6 12 0 -2
BITMAP
00
00
00
10
00
00
00
40
00
40
00
00
ENDCHAR
STARTCHAR char10317
ENCODING 10317
SWIDTH 540 0
DWIDTH 6 0
BBX 6 12 0 -2
BITMAP
00
00
00
50
00
00
00
40
00
40
00
00
ENDCHAR
STARTCHAR char10318
ENCODING 10318
SWIDTH 540 0
DWIDTH 6 0
BBX 6 12 0 -2
BITMAP
00
00
00
10
00
40
00
40
00
40
00
00
ENDCHAR
STARTCHAR char10319
ENCODING 10319
SWIDTH 540 0
DWIDTH 6 0
BBX 6 12 0 -2
BITMAP
00
00
00
50
00
40
00
40
00
40
00
00
ENDCHAR
STARTCHAR char10320
ENCODING 10320
SWIDTH 540 0
DWIDTH 6 0
BBX 6 12 0 -2
BITMAP
00
00
00
00
00
10
00
00
00
40
00
00
ENDCHAR
STARTCHAR char10321
ENCODING 10321
SWIDTH 540 0
DWIDTH 6 0
BBX 6 12 0 -2
BITMAP
00
00
00
40
00
10
00
00
00
40
00
00
ENDCHAR
STARTCHAR char10322
ENCODING 10322
SWIDTH 540 0
DWIDTH 6 0
BBX 6 12 0 -2
BITMAP
00
00
00
00
00
50
00
00
00
40
00
00
ENDCHAR
STARTCHAR char10323
ENCODING 10323
SWIDTH 540 0
DWIDTH 6 0
BBX 6 12 0 -2
BITMAP
00
00
00
40
00
50
00
00
00
40
00
00
ENDCHAR
STARTCHAR char10324
ENCODING 10324
SWIDTH 540 0
DWIDTH 6 0
BBX 6 12 0 -2
BITMAP
00
00
00
00
00
10
00
40
00
40
00
00
ENDCHAR
STARTCHAR char10325
ENCODING 10325
SWIDTH 540 0
DWIDTH 6 0
BBX 6 12 0 -2
BITMAP
00
00
00
40
00
10
00
40
00
40
00
00
ENDCHAR
STARTCHAR char10326
ENCODING 10326
SWIDTH 540 0
DWIDTH 6 0
BBX 6 12 0 -2
BITMAP
00
00
00
00
00
50
00
40
00
40
00
00
ENDCHAR
STARTCHAR char10327
ENCODING 10327
SWIDTH 540 0
DWIDTH 6 0
BBX 6 12 0 -2
BITMAP
00
00
00
40
00
50
00
40
00
40
00
00
ENDCHAR
STARTCHAR char10328
ENCODING 10328
SWIDTH 540 0
DWIDTH 6 0
BBX 6 12 0 -2
BITMAP
00
00
00
10
00
10
00
00
00
40
00
00
ENDCHAR
STARTCHAR char10329
ENCODING 10329
SWIDTH 540 0
DWIDTH 6 0
BBX 6 12 0 -2
BITMAP
00
00
00
50
00
10
00
00
00
40
00
00
ENDCHAR
STARTCHAR char10330
ENCODING 10330
SWIDTH 540 0
DWIDTH 6 0
BBX 6 12 0 -2
BITMAP
00
00
00
10
00
50
00
00
00
40
00
00
ENDCHAR
STARTCHAR char10331
ENCODING 10331
SWIDTH 540 0
DWIDTH 6 0
BBX 6 12 0 -2
BITMAP
00
00
00
50
00
50
00
00
00
40
00
00
ENDCHAR
STARTCHAR char10332
ENCODING 10332
SWIDTH 540 0
DWIDTH 6 0
BBX 6 12 0 -2
BITMAP
00
00
00
10
00
10
00
40
00
40
00
00
ENDCHAR
STARTCHAR char10333
ENCODING 10333
SWIDTH 540 0
DWIDTH 6 0
BBX 6 12 0 -2
BITMAP
00
00
00
50
00
10
00
40
00
40
00
00
ENDCHAR
STARTCHAR char10334
ENCODING 10334
SWIDTH 540 0
DWIDTH 6 0
BBX 6 12 0 -2
BITMAP
00
00
00
10
00
50
00
40
00
40
00
00
ENDCHAR
STARTCHAR char10335
ENCODING 10335
SWIDTH 540 0
DWIDTH 6 0
BBX 6 12 0 -2
BITMAP
00
00
00
50
00
50
00
40
00
40
00
00
ENDCHAR
STARTCHAR char10336
ENCODING 10336
SWIDTH 540 0
DWIDTH 6 0
BBX 6 12 0 -2
BITMAP
00
00
00
00
00
00
00
10
00
40
00
00
ENDCHAR
STARTCHAR char10337
ENCODING 10337
SWIDTH 540 0
DWIDTH 6 0
BBX 6 12 0 -2
BITMAP
00
00
00
40
00
00
00
10
00
40
00
00
ENDCHAR
STARTCHAR char10338
ENCODING 10338
SWIDTH 540 0
DWIDTH 6 0
BBX 6 12 0 -2
BITMAP
00
00
00
00
00
40
00
10
00
40
00
00
ENDCHAR
STARTCHAR char10339
ENCODING 10339
SWIDTH 540 0
DWIDTH 6 0
BBX 6 12 0 -2
BITMAP
00
00
00
40
00
40
00
10
00
40
00
00
ENDCHAR
STARTCHAR char10340
ENCODING 10340
SWIDTH 540 0
DWIDTH 6 0
BBX 6 12 0 -2
BITMAP
00
00
00
00
00
00
00
50
00
40
00
00
ENDCHAR
STARTCHAR char10341
ENCODING 10341
SWIDTH 540 0
DWIDTH 6 0
BBX 6 12 0 -2
BITMAP
00
00
00
40
00
00
00
50
00
40
00
00
ENDCHAR
STARTCHAR char10342
ENCODING 10342
SWIDTH 540 0
DWIDTH 6 0
BBX 6 12 0 -2
BITMAP
00
00
00
00
00
40
00
50
00
40
00
00
ENDCHAR
STARTCHAR char10343
ENCODING 10343
SWIDTH 540 0
DWIDTH 6 0
BBX 6 12 0 -2
BITMAP
00
00
00
40
00
40
00
50
00
40
00
00
ENDCHAR
STARTCHAR char10344
ENCODING 10344
SWIDTH 540 0
DWIDTH 6 0
BBX 6 12 0 -2
BITMAP
00
00
00
10
00
00
00
10
00
40
00
00
ENDCHAR
STARTCHAR char10345
ENCODING 10345
SWIDTH 540 0
DWIDTH 6 0
BBX 6 12 0 -2
BITMAP
00
00
00
50
00
00
00
10
00
40
00
00
ENDCHAR
STARTCHAR char10346
ENCODING 10346
SWIDTH 540 0
DWIDTH 6 0
BBX 6 12 0 -2
BITMAP
00
00
00
10
00
40
00
10
00
40
00
00
ENDCHAR
STARTCHAR char10347
ENCODING 10347
SWIDTH 540 0
DWIDTH 6 0
BBX 6 12 0 -2
BITMAP
00
00
00
50
00
40
00
10
00
40
00
00
ENDCHAR
STARTCHAR char10348
ENCODING 10348
SWIDTH 540 0
DWIDTH 6 0
BBX 6 12 0 -2
BITMAP
00
00
00
10
00
00
00
50
00
40
00
00
ENDCHAR
STARTCHAR char10349
ENCODING 10349
SWIDTH 540 0
DWIDTH 6 0
BBX 6 12 0 -2
BITMAP
00
00
00
50
00
00
00
50
00
40
00
00
ENDCHAR
STARTCHAR char10350
ENCODING 10350
SWIDTH 540 0
DWIDTH 6 0
BBX 6 12 0 -2
BITMAP
00
00
00
10
00
40
00
50
00
40
00
00
ENDCHAR
STARTCHAR char10351
ENCODING 10351
SWIDTH 540 0
DWIDTH 6 0
BBX 6 12 0 -2
BITMAP
00
00
00
50
00
40
00
50
00
40
00
00
ENDCHAR
STARTCHAR char10352
ENCODING 10352
SWIDTH 540 0
DWIDTH 6 0
BBX 6 12 0 -2
BITMAP
00
00
00
00
00
10
00
10
00
40
00
00
ENDCHAR
STARTCHAR char10353
ENCODING 10353
SWIDTH 540 0
DWIDTH 6 0
BBX 6 12 0 -2
BITMAP
00
00
00
40
00
10
00
10
00
40
00
00
ENDCHAR
STARTCHAR char10354
ENCODING 10354
SWIDTH 540 0
DWIDTH 6 0
BBX 6 12 0 -2
BITMAP
00
00
00
00
00
50
00
10
00
40
00
00
ENDCHAR
STARTCHAR char10355
ENCODING 10355
SWIDTH 540 0
DWIDTH 6 0
BBX 6 12 0 -2
BITMAP
00
00
00
40
00
50
00
10
00
40
00
00
ENDCHAR
STARTCHAR char10356
ENCODING 10356
SWIDTH 540 0
DWIDTH 6 0
BBX 6 12 0 -2
BITMAP
00
00
00
00
00
10
00
50
00
40
00
00
ENDCHAR
STARTCHAR char10357
ENCODING 10357
SWIDTH 540 0
DWIDTH 6 0
BBX 6 12 0 -2
BITMAP
00
00
00
40
00
10
00
50
00
40
00
00
ENDCHAR
STARTCHAR char10358
ENCODING 10358
SWIDTH 540 0
DWIDTH 6 0
BBX 6 12 0 -2
BITMAP
00
00
00
00
00
50
00
50
00
40
00
00
ENDCHAR
STARTCHAR char10359
ENCODING 10359
SWIDTH 540 0
DWIDTH 6 0
BBX 6 12 0 -2
BITMAP
00
00
00
40
00
50
00
50
00
40
00
00
ENDCHAR
STARTCHAR char10360
ENCODING 10360
SWIDTH 540 0
DWIDTH 6 0
BBX 6 12 0 -2
BITMAP
00
00
00
10
00
10
00
10
00
40
00
00
ENDCHAR
STARTCHAR char10361
ENCODING 10361
SWIDTH 540 0
DWIDTH 6 0
BBX 6 12 0 -2
BITMAP
00
00
00
50
00
10
00
10
00
40
00
00
ENDCHAR
STARTCHAR char10362
ENCODING 10362
SWIDTH 540 0
DWIDTH 6 0
BBX 6 12 0 -2
BITMAP
00
00
00
10
00
50
00
10
00
40
00
00
ENDCHAR
STARTCHAR char10363
ENCODING 10363
SWIDTH 540 0
DWIDTH 6 0
BBX 6 12 0 -2
BITMAP
00
00
00
50
00
50
00
10
00
40
00
00
ENDCHAR
STARTCHAR char10364
ENCODING 10364
SWIDTH 540 0
DWIDTH 6 0
BBX 6 12 0 -2
BITMAP
00
00
00
10
00
10
00
50
00
40
00
00
ENDCHAR
STARTCHAR char10365
ENCODING 10365
SWIDTH 540 0
DWIDTH 6 0
BBX 6 12 0 -2
BITMAP
00
00
00
50
00
10
00
50
00
40
00
00
ENDCHAR
STARTCHAR char10366
ENCODING 10366
SWIDTH 540 0
DWIDTH 6 0
BBX 6 12 0 -2
BITMAP
00
00
00
10
00
50
00
50
00
40
00
00
ENDCHAR
STARTCHAR char10367
ENCODING 10367
SWIDTH 540 0
DWIDTH 6 0
BBX 6 12 0 -2
BITMAP
00
00
00
50
00
50
00
50
00
40
00
00
ENDCHAR
STARTCHAR char10368
ENCODING 10368
SWIDTH 540 0
DWIDTH 6 0
BBX 6 12 0 -2
BITMAP
00
00
00
00
00
00
00
00
00
10
00
00
ENDCHAR
STARTCHAR char10369
ENCODING 10369
SWIDTH 540 0
DWIDTH 6 0
BBX 6 12 0 -2
BITMAP
00
00
00
40
00
00
00
00
00
10
00
00
ENDCHAR
STARTCHAR char10370
ENCODING 10370
SWIDTH 540 0
DWIDTH 6 0
BBX 6 12 0 -2
BITMAP
00
00
00
00
00
40
00
00
00
10
00
00
ENDCHAR
STARTCHAR char10371
ENCODING 10371
SWIDTH 540 0
DWIDTH 6 0
BBX 6 12 0 -2
BITMAP
00
00
00
40
00
40
00
00
00
10
00
00
ENDCHAR
STARTCHAR char10372
ENCODING 10372
SWIDTH 540 0
DWIDTH 6 0
BBX 6 12 0 -2
BITMAP
00
00
00
00
00
00
00
40
00
10
00
00
ENDCHAR
STARTCHAR char10373
ENCODING 10373
SWIDTH 540 0
DWIDTH 6 0
BBX 6 12 0 -2
BITMAP
00
00
00
40
00
00
00
40
00
10
00
00
ENDCHAR
STARTCHAR char10374
ENCODING 10374
SWIDTH 540 0
DWIDTH 6 0
BBX 6 12 0 -2
BITMAP
00
00
00
00
00
40
00
40
00
10
00
00
ENDCHAR
STARTCHAR char10375
ENCODING 10375
SWIDTH 540 0
DWIDTH 6 0
BBX 6 12 0 -2
BITMAP
00
00
00
40
00
40
00
40
00
10
00
00
ENDCHAR
STARTCHAR char10376
ENCODING 10376
SWIDTH 540 0
DWIDTH 6 0
BBX 6 12 0 -2
BITMAP
00
00
00
10
00
00
00
00
00
10
00
00
ENDCHAR
STARTCHAR char10377
ENCODING 10377
SWIDTH 540 0
DWIDTH 6 0
BBX 6 12 0 -2
BITMAP
00
00
00
50
00
00
00
00
00
10
00
00
ENDCHAR
STARTCHAR char10378
ENCODING 10378
SWIDTH 540 0
DWIDTH 6 0
BBX 6 12 0 -2
BITMAP
00
00
00
10
00
40
00
00
00
10
00
00
ENDCHAR
STARTCHAR char10379
ENCODING 10379
SWIDTH 540 0
DWIDTH 6 0
BBX 6 12 0 -2
BITMAP
00
00
00
50
00
40
00
00
00
10
00
00
ENDCHAR
STARTCHAR char10380
ENCODING 10380
SWIDTH 540 0
DWIDTH 6 0
BBX 6 12 0 -2
BITMAP
00
00
00
10
00
00
00
40
00
10
00
00
ENDCHAR
STARTCHAR char10381
ENCODING 10381
SWIDTH 540 0
DWIDTH 6 0
BBX 6 12 0 -2
BITMAP
00
00
00
50
00
00
00
40
00
10
00
00
ENDCHAR
STARTCHAR char10382
ENCODING 10382
SWIDTH 540 0
DWIDTH 6 0
BBX 6 12 0 -2
BITMAP
00
00
00
10
00
40
00
40
00
10
00
00
ENDCHAR
STARTCHAR char10383
ENCODING 10383
SWIDTH 540 0
DWIDTH 6 0
BBX 6 12 0 -2
BITMAP
00
00
00
50
00
40
00
40
00
10
00
00
ENDCHAR
STARTCHAR char10384
ENCODING 10384
SWIDTH 540 0
DWIDTH 6 0
BBX 6 12 0 -2
BITMAP
00
00
00
00
00
10
00
00
00
10
00
00
ENDCHAR
STARTCHAR char10385
ENCODING 10385
SWIDTH 540 0
DWIDTH 6 0
BBX 6 12 0 -2
BITMAP
00
00
00
40
00
10
00
00
00
10
00
00
ENDCHAR
STARTCHAR char10386
ENCODING 10386
SWIDTH 540 0
DWIDTH 6 0
BBX 6 12 0 -2
BITMAP
00
00
00
00
00
50
00
00
00
10
00
00
ENDCHAR
STARTCHAR char10387
ENCODING 10387
SWIDTH 540 0
DWIDTH 6 0
BBX 6 12 0 -2
BITMAP
00
00
00
40
00
50
00
00
00
10
00
00
ENDCHAR
STARTCHAR char10388
ENCODING 10388
SWIDTH 540 0
DWIDTH 6 0
BBX 6 12 0 -2
BITMAP
00
00
00
00
00
10
00
40
00
10
00
00
ENDCHAR
STARTCHAR char10389
ENCODING 10389
SWIDTH 540 0
DWIDTH 6 0
BBX 6 12 0 -2
BITMAP
00
00
00
40
00
10
00
40
00
10
00
00
ENDCHAR
STARTCHAR char10390
ENCODING 10390
SWIDTH 540 0
DWIDTH 6 0
BBX 6 12 0 -2
BITMAP
00
00
00
00
00
50
00
40
00
10
00
00
ENDCHAR
STARTCHAR char10391
ENCODING 10391
SWIDTH 540 0
DWIDTH 6 0
BBX 6 12 0 -2
BITMAP
00
00
00
40
00
50
00
40
00
10
00
00
ENDCHAR
STARTCHAR char10392
ENCODING 10392
SWIDTH 540 0
DWIDTH 6 0
BBX 6 12 0 -2
BITMAP
00
00
00
10
00
10
00
00
00
10
00
00
ENDCHAR
STARTCHAR char10393
ENCODING 10393
SWIDTH 540 0
DWIDTH 6 0
BBX 6 12 0 -2
BITMAP
00
00
00
50
00
10
00
00
00
10
00
00
ENDCHAR
STARTCHAR char10394
ENCODING 10394
SWIDTH 540 0
DWIDTH 6 0
BBX 6 12 0 -2
BITMAP
00
00
00
10
00
50
00
00
00
10
00
00
ENDCHAR
STARTCHAR char10395
ENCODING 10395
SWIDTH 540 0
DWIDTH 6 0
BBX 6 12 0 -2
BITMAP
00
00
00
50
00
50
00
00
00
10
00
00
ENDCHAR
STARTCHAR char10396
ENCODING 10396
SWIDTH 540 0
DWIDTH 6 0
BBX 6 12 0 -2
BITMAP
00
00
00
10
00
10
00
40
00
10
00
00
ENDCHAR
STARTCHAR char10397
ENCODING 10397
SWIDTH 540 0
DWIDTH 6 0
BBX 6 12 0 -2
BITMAP
00
00
00
50
00
10
00
40
00
10
00
00
ENDCHAR
STARTCHAR char10398
ENCODING 10398
SWIDTH 540 0
DWIDTH 6 0
BBX 6 12 0 -2
BITMAP
00
00
00
10
00
50
00
40
00
10
00
00
ENDCHAR
STARTCHAR char10399
ENCODING 10399
SWIDTH 540 0
DWIDTH 6 0
BBX 6 12 0 -2
BITMAP
00
00
00
50
00
50
00
40
00
10
00
00
ENDCHAR
STARTCHAR char10400
ENCODING 10400
SWIDTH 540 0
DWIDTH 6 0
BBX 6 12 0 -2
BITMAP
00
00
00
00
00
00
00
10
00
10
00
00
ENDCHAR
STARTCHAR char10401
ENCODING 10401
SWIDTH 540 0
DWIDTH 6 0
BBX 6 12 0 -2
BITMAP
00
00
00
40
00
00
00
10
00
10
00
00
ENDCHAR
STARTCHAR char10402
ENCODING 10402
SWIDTH 540 0
DWIDTH 6 0
BBX 6 12 0 -2
BITMAP
00
00
00
00
00
40
00
10
00
10
00
00
ENDCHAR
STARTCHAR char10403
ENCODING 10403
SWIDTH 540 0
DWIDTH 6 0
BBX 6 12 0 -2
BITMAP
00
00
00
40
00
40
00
10
00
10
00
00
ENDCHAR
STARTCHAR char10404
ENCODING 10404
SWIDTH 540 0
DWIDTH 6 0
BBX 6 12 0 -2
BITMAP
00
00
00
00
00
00
00
50
00
10
00
00
ENDCHAR
STARTCHAR char10405
ENCODING 10405
SWIDTH 540 0
DWIDTH 6 0
BBX 6 12 0 -2
BITMAP
00
00
00
40
00
00
00
50
00
10
00
00
ENDCHAR
STARTCHAR char10406
ENCODING 10406
SWIDTH 540 0
DWIDTH 6 0
BBX 6 12 0 -2
BITMAP
00
00
00
00
00
40
00
50
00
10
00
00
ENDCHAR
STARTCHAR char10407
ENCODING 10407
SWIDTH 540 0
DWIDTH 6 0
BBX 6 12 0 -2
BITMAP
00
00
00
40
00
40
00
50
00
10
00
00
ENDCHAR
STARTCHAR char10408
ENCODING 10408
SWIDTH 540 0
DWIDTH 6 0
BBX 6 12 0 -2
BITMAP
00
00
00
10
00
00
00
10
00
10
00
00
ENDCHAR
STARTCHAR char10409
ENCODING 10409
SWIDTH 540 0
DWIDTH 6 0
BBX 6 12 0 -2
BITMAP
00
00
00
50
00
00
00
10
00
10
00
00
ENDCHAR
STARTCHAR char10410
ENCODING 10410
SWIDTH 540 0
DWIDTH 6 0
BBX 6 12 0 -2
BITMAP
00
00
00
10
00
40
00
10
00
10
00
00
ENDCHAR
STARTCHAR char10411
ENCODING 10411
SWIDTH 540 0
DWIDTH 6 0
BBX 6 12 0 -2
BITMAP
00
00
00
50
00
40
00
10
00
10
00
00
ENDCHAR
STARTCHAR char10412
ENCODING 10412
SWIDTH 540 0
DWIDTH 6 0
BBX 6 12 0 -2
BITMAP
00
00
00
10
00
00
00
50
00
10
00
00
ENDCHAR
STARTCHAR char10413
ENCODING 10413
SWIDTH 540 0
DWIDTH 6 0
BBX 6 12 0 -2
BITMAP
00
00
00
50
00
00
00
50
00
10
00
00
ENDCHAR
STARTCHAR char10414
ENCODING 10414
SWIDTH 540 0
DWIDTH 6 0
BBX 6 12 0 -2
BITMAP
00
00
00
10
00
40
00
50
00
10
00
00
ENDCHAR
STARTCHAR char10415
ENCODING 10415
SWIDTH 540 0
DWIDTH 6 0
BBX 6 12 0 -2
BITMAP
00
00
00
50
00
40
00
50
00
10
00
00
ENDCHAR
STARTCHAR char10416
ENCODING 10416
SWIDTH 540 0
DWIDTH 6 0
BBX 6 12 0 -2
BITMAP
00
00
00
00
00
10
00
10
00
10
00
00
ENDCHAR
STARTCHAR char10417
ENCODING 10417
SWIDTH 540 0
DWIDTH 6 0
BBX 6 12 0 -2
BITMAP
00
00
00
40
00
10
00
10
00
10
00
00
ENDCHAR
STARTCHAR char10418
ENCODING 10418
SWIDTH 540 0
DWIDTH 6 0
BBX 6 12 0 -2
BITMAP
00
00
00
00
00
50
00
10
00
10
00
00
ENDCHAR
STARTCHAR char10419
ENCODING 10419
SWIDTH 540 0
DWIDTH 6 0
BBX 6 12 0 -2
BITMAP
00
00
00
40
00
50
00
10
00
10
00
00
ENDCHAR
STARTCHAR char10420
ENCODING 10420
SWIDTH 540 0
DWIDTH 6 0
BBX 6 12 0 -2
BITMAP
00
00
00
00
00
10
00
50
00
10
00
00
ENDCHAR
STARTCHAR char10421
ENCODING 10421
SWIDTH 540 0
DWIDTH 6 0
BBX 6 12 0 -2
BITMAP
00
00
00
40
00
10
00
50
00
10
00
00
ENDCHAR
STARTCHAR char10422
ENCODING 10422
SWIDTH 540 0
DWIDTH 6 0
BBX 6 12 0 -2
BITMAP
00
00
00
00
00
50
00
50
00
10
00
00
ENDCHAR
STARTCHAR char10423
ENCODING 10423
SWIDTH 540 0
DWIDTH 6 0
BBX 6 12 0 -2
BITMAP
00
00
00
40
00
50
00
50
00
10
00
00
ENDCHAR
STARTCHAR char10424
ENCODING 10424
SWIDTH 540 0
DWIDTH 6 0
BBX 6 12 0 -2
BITMAP
00
00
00
10
00
10
00
10
00
10
00
00
ENDCHAR
STARTCHAR char10425
ENCODING 10425
SWIDTH 540 0
DWIDTH 6 0
BBX 6 12 0 -2
BITMAP
00
00
00
50
00
10
00
10
00
10
00
00
ENDCHAR
STARTCHAR char10426
ENCODING 10426
SWIDTH 540 0
DWIDTH 6 0
BBX 6 12 0 -2
BITMAP
00
00
00
10
00
50
00
10
00
10
00
00
ENDCHAR
STARTCHAR char10427
ENCODING 10427
SWIDTH 540 0
DWIDTH 6 0
BBX 6 12 0 -2
BITMAP
00
00
00
50
00
50
00
10
00
10
00
00
ENDCHAR
STARTCHAR char10428
ENCODING 10428
SWIDTH 540 0
DWIDTH 6 0
BBX 6 12 0 -2
BITMAP
00
00
00
10
00
10
00
50
00
10
00
00
ENDCHAR
STARTCHAR char10429
ENCODING 10429
SWIDTH 540 0
DWIDTH 6 0
BBX 6 12 0 -2
BITMAP
00
00
00
50
00
10
00
50
00
10
00
00
ENDCHAR
STARTCHAR char10430
ENCODING 10430
SWIDTH 540 0
DWIDTH 6 0
BBX 6 12 0 -2
BITMAP
00
00
00
10
00
50
00
50
00
10
00
00
ENDCHAR
STARTCHAR char10431
ENCODING 10431
SWIDTH 540 0
DWIDTH 6 0
BBX 6 12 0 -2
BITMAP
00
00
00
50
00
50
00
50
00
10
00
00
ENDCHAR
STARTCHAR char10432
ENCODING 10432
SWIDTH 540 0
DWIDTH 6 0
BBX 6 12 0 -2
BITMAP
00
00
00
00
00
00
00
00
00
50
00
00
ENDCHAR
STARTCHAR char10433
ENCODING 10433
SWIDTH 540 0
DWIDTH 6 0
BBX 6 12 0 -2
BITMAP
00
00
00
40
00
00
00
00
00
50
00
00
ENDCHAR
STARTCHAR char10434
ENCODING 10434
SWIDTH 540 0
DWIDTH 6 0
BBX 6 12 0 -2
BITMAP
00
00
00
00
00
40
00
00
00
50
00
00
ENDCHAR
STARTCHAR char10435
ENCODING 10435
SWIDTH 540 0
DWIDTH 6 0
BBX 6 12 0 -2
BITMAP
00
00
00
40
00
40
00
00
00
50
00
00
ENDCHAR
STARTCHAR char10436
ENCODING 10436
SWIDTH 540 0
DWIDTH 6 0
BBX 6 12 0 -2
BITMAP
00
00
00
00
00
00
00
40
00
50
00
00
ENDCHAR
STARTCHAR char10437
ENCODING 10437
SWIDTH 540 0
DWIDTH 6 0
BBX 6 12 0 -2
BITMAP
00
00
00
40
00
00
00
40
00
50
00
00
ENDCHAR
STARTCHAR char10438
ENCODING 10438
SWIDTH 540 0
DWIDTH 6 0
BBX 6 12 0 -2
BITMAP
00
00
00
00
00
40
00
40
00
50
00
00
ENDCHAR
STARTCHAR char10439
ENCODING 10439
SWIDTH 540 0
DWIDTH 6 0
BBX 6 12 0 -2
BITMAP
00
00
00
40
00
40
00
40
00
50
00
00
ENDCHAR
STARTCHAR char10440
ENCODING 10440
SWIDTH 540 0
DWIDTH 6 0
BBX 6 12 0 -2
BITMAP
00
00
00
10
00
00
00
00
00
50
00
00
ENDCHAR
STARTCHAR char10441
ENCODING 10441
SWIDTH 540 0
DWIDTH 6 0
BBX 6 12 0 -2
BITMAP
00
00
00
50
00
00
00
00
00
50
00
00
ENDCHAR
STARTCHAR char10442
ENCODING 10442
SWIDTH 540 0
DWIDTH 6 0
BBX 6 12 0 -2
BITMAP
00
00
00
10
00
40
00
00
00
50
00
00
ENDCHAR
STARTCHAR char10443
ENCODING 10443
SWIDTH 540 0
DWIDTH 6 0
BBX 6 12 0 -2
BITMAP
00
00
00
50
00
40
00
00
00
50
00
00
ENDCHAR
STARTCHAR char10444
ENCODING 10444
SWIDTH 540 0
DWIDTH 6 0
BBX 6 12 0 -2
BITMAP
00
00
00
10
00
00
00
40
00
50
00
00
ENDCHAR
STARTCHAR char10445
ENCODING 10445
SWIDTH 540 0
DWIDTH 6 0
BBX 6 12 0 -2
BITMAP
00
00
00
50
00
00
00
40
00
50
00
00
ENDCHAR
STARTCHAR char10446
ENCODING 10446
SWIDTH 540 0
DWIDTH 6 0
BBX 6 12 0 -2
BITMAP
00
00
00
10
00
40
00
40
00
50
00
00
ENDCHAR
STARTCHAR char10447
ENCODING 10447
SWIDTH 540 0
DWIDTH 6 0
BBX 6 12 0 -2
BITMAP
00
00
00
50
00
40
00
40
00
50
00
00
ENDCHAR
STARTCHAR char10448
ENCODING 10448
SWIDTH 540 0
DWIDTH 6 0
BBX 6 12 0 -2
BITMAP
00
00
00
00
00
10
00
00
00
50
00
00
ENDCHAR
STARTCHAR char10449
ENCODING 10449
SWIDTH 540 0
DWIDTH 6 0
BBX 6 12 0 -2
BITMAP
00
00
00
40
00
10
00
00
00
50
00
00
ENDCHAR
STARTCHAR char10450
ENCODING 10450
SWIDTH 540 0
DWIDTH 6 0
BBX 6 12 0 -2
BITMAP
00
00
00
00
00
50
00
00
00
50
00
00
ENDCHAR
STARTCHAR char10451
ENCODING 10451
SWIDTH 540 0
DWIDTH 6 0
BBX 6 12 0 -2
BITMAP
00
00
00
40
00
50
00
00
00
50
00
00
ENDCHAR
STARTCHAR char10452
ENCODING 10452
SWIDTH 540 0
DWIDTH 6 0
BBX 6 12 0 -2
BITMAP
00
00
00
00
00
10
00
40
00
50
00
00
ENDCHAR
STARTCHAR char10453
ENCODING 10453
SWIDTH 540 0
DWIDTH 6 0
BBX 6 12 0 -2
BITMAP
00
00
00
40
00
10
00
40
00
50
00
00
ENDCHAR
STARTCHAR char10454
ENCODING 10454
SWIDTH 540 0
DWIDTH 6 0
BBX 6 12 0 -2
BITMAP
00
00
00
00
00
50
00
40
00
50
00
00
ENDCHAR
STARTCHAR char10455
ENCODING 10455
SWIDTH 540 0
DWIDTH 6 0
BBX 6 12 0 -2
BITMAP
00
00
00
40
00
50
00
40
00
50
00
00
ENDCHAR
STARTCHAR char10456
ENCODING 10456
SWIDTH 540 0
DWIDTH 6 0
BBX 6 12 0 -2
BITMAP
00
00
00
10
00
10
00
00
00
50
00
00
ENDCHAR
STARTCHAR char10457
ENCODING 10457
SWIDTH 540 0
DWIDTH 6 0
BBX 6 12 0 -2
BITMAP
00
00
00
50
00
10
00
00
00
50
00
00
ENDCHAR
STARTCHAR char10458
ENCODING 10458
SWIDTH 540 0
DWIDTH 6 0
BBX 6 12 0 -2
BITMAP
00
00
00
10
00
50
00
00
00
50
00
00
ENDCHAR
STARTCHAR char10459
ENCODING 10459
SWIDTH 540 0
DWIDTH 6 0
BBX 6 12 0 -2
BITMAP
00
00
00
50
00
50
00
00
00
50
00
00
ENDCHAR
STARTCHAR char10460
ENCODING 10460
SWIDTH 540 0
DWIDTH 6 0
BBX 6 12 0 -2
BITMAP
00
00
00
10
00
10
00
40
00
50
00
00
ENDCHAR
STARTCHAR char10461
ENCODING 10461
SWIDTH 540 0
DWIDTH 6 0
BBX 6 12 0 -2
BITMAP
00
00
00
50
00
10
00
40
00
50
00
00
ENDCHAR
STARTCHAR char10462
ENCODING 10462
SWIDTH 540 0
DWIDTH 6 0
BBX 6 12 0 -2
BITMAP
00
00
00
10
00
50
00
40
00
50
00
00
ENDCHAR
STARTCHAR char10463
ENCODING 10463
SWIDTH 540 0
DWIDTH 6 0
BBX 6 12 0 -2
BITMAP
00
00
00
50
00
50
00
40
00
50
00
00
ENDCHAR
STARTCHAR char10464
ENCODING 10464
SWIDTH 540 0
DWIDTH 6 0
BBX 6 12 0 -2
BITMAP
00
00
00
00
00
00
00
10
00
50
00
00
ENDCHAR
STARTCHAR char10465
ENCODING 10465
SWIDTH 540 0
DWIDTH 6 0
BBX 6 12 0 -2
BITMAP
00
00
00
40
00
00
00
10
00
50
00
00
ENDCHAR
STARTCHAR char10466
ENCODING 10466
SWIDTH 540 0
DWIDTH 6 0
BBX 6 12 0 -2
BITMAP
00
00
00
00
00
40
00
10
00
50
00
00
ENDCHAR
STARTCHAR char10467
ENCODING 10467
SWIDTH 540 0
DWIDTH 6 0
BBX 6 12 0 -2
BITMAP
00
00
00
40
00
40
00
10
00
50
00
00
ENDCHAR
STARTCHAR char10468
ENCODING 10468
SWIDTH 540 0
DWIDTH 6 0
BBX 6 12 0 -2
BITMAP
00
00
00
00
00
00
00
50
00
50
00
00
ENDCHAR
STARTCHAR char10469
ENCODING 10469
SWIDTH 540 0
DWIDTH 6 0
BBX 6 12 0 -2
BITMAP
00
00
00
40
00
00
00
50
00
50
00
00
ENDCHAR
STARTCHAR char10470
ENCODING 10470
SWIDTH 540 0
DWIDTH 6 0
BBX 6 12 0 -2
BITMAP
00
00
00
00
00
40
00
50
00
50
00
00
ENDCHAR
STARTCHAR char10471
ENCODING 10471
SWIDTH 540 0
DWIDTH 6 0
BBX 6 12 0 -2
BITMAP
00
00
00
40
00
40
00
50
00
50
00
00
ENDCHAR
STARTCHAR char10472
ENCODING 10472
SWIDTH 540 0
DWIDTH 6 0
BBX 6 12 0 -2
BITMAP
00
00
00
10
00
00
00
10
00
50
00
00
ENDCHAR
STARTCHAR char10473
ENCODING 10473
SWIDTH 540 0
DWIDTH 6 0
BBX 6 12 0 -2
BITMAP
00
00
00
50
00
00
00
10
00
50
00
00
ENDCHAR
STARTCHAR char10474
ENCODING 10474
SWIDTH 540 0
DWIDTH 6 0
BBX 6 12 0 -2
BITMAP
00
00
00
10
00
40
00
10
00
50
00
00
ENDCHAR
STARTCHAR char10475
ENCODING 10475
SWIDTH 540 0
DWIDTH 6 0
BBX 6 12 0 -2
BITMAP
00
00
00
50
00
40
00
10
00
50
00
00
ENDCHAR
STARTCHAR char10476
ENCODING 10476
SWIDTH 540 0
DWIDTH 6 0
BBX 6 12 0 -2
BITMAP
00
00
00
10
00
00
00
50
00
50
00
00
ENDCHAR
STARTCHAR char10477
ENCODING 10477
SWIDTH 540 0
DWIDTH 6 0
BBX 6 12 0 -2
BITMAP
00
00
00
50
00
00
00
50
00
50
00
00
ENDCHAR
STARTCHAR char10478
ENCODING 10478
SWIDTH 540 0
DWIDTH 6 0
BBX 6 12 0 -2
BITMAP
00
00
00
10
00
40
00
50
00
50
00
00
ENDCHAR
STARTCHAR char10479
ENCODING 10479
SWIDTH 540 0
DWIDTH 6 0
BBX 6 12 0 -2
BITMAP
00
00
00
50
00
40
00
50
00
50
00
00
ENDCHAR
STARTCHAR char10480
ENCODING 10480
SWIDTH 540 0
DWIDTH 6 0
BBX 6 12 0 -2
BITMAP
00
00
00
00
00
10
00
10
00
50
00
00
ENDCHAR
STARTCHAR char10481
ENCODING 10481
SWIDTH 540 0
DWIDTH 6 0
BBX 6 12 0 -2
BITMAP
00
00
00
40
00
10
00
10
00
50
00
00
ENDCHAR
STARTCHAR char10482
ENCODING 10482
SWIDTH 540 0
DWIDTH 6 0
BBX 6 12 0 -2
BITMAP
00
00
00
00
00
50
00
10
00
50
00
00
ENDCHAR
STARTCHAR char10483
ENCODING 10483
SWIDTH 540 0
DWIDTH 6 0
BBX 6 12 0 -2
BITMAP
00
00
00
40
00
50
00
10
00
50
00
00
ENDCHAR
STARTCHAR char10484
ENCODING 10484
SWIDTH 540 0
DWIDTH 6 0
BBX 6 12 0 -2
BITMAP
00
00
00
00
00
10
00
50
00
50
00
00
ENDCHAR
STARTCHAR char10485
ENCODING 10485
SWIDTH 540 0
DWIDTH 6 0
BBX 6 12 0 -2
BITMAP
00
00
00
40
00
10
00
50
00
50
00
00
ENDCHAR
STARTCHAR char10486
ENCODING 10486
SWIDTH 540 0
DWIDTH 6 0
BBX 6 12 0 -2
BITMAP
00
00
00
00
00
50
00
50
00
50
00
00
ENDCHAR
STARTCHAR char10487
ENCODING 10487
SWIDTH 540 0
DWIDTH 6 0
BBX 6 12 0 -2
BITMAP
00
00
00
40
00
50
00
50
00
50
00
00
ENDCHAR
STARTCHAR char10488
ENCODING 10488
SWIDTH 540 0
DWIDTH 6 0
BBX 6 12 0 -2
BITMAP
00
00
00
10
00
10
00
10
00
50
00
00
ENDCHAR
STARTCHAR char10489
ENCODING 10489
SWIDTH 540 0
DWIDTH 6 0
BBX 6 12 0 -2
BITMAP
00
00
00
50
00
10
00
10
00
50
00
00
ENDCHAR
STARTCHAR char10490
ENCODING 10490
SWIDTH 540 0
DWIDTH 6 0
BBX 6 12 0 -2
BITMAP
00
00
00
10
00
50
00
10
00
50
00
00
ENDCHAR
STARTCHAR char10491
ENCODING 10491
SWIDTH 540 0
DWIDTH 6 0
BBX 6 12 0 -2
BITMAP
00
00
00
50
00
50
00
10
00
50
00
00
ENDCHAR
STARTCHAR char10492
ENCODING 10492
SWIDTH 540 0
DWIDTH 6 0
BBX 6 12 0 -2
BITMAP
00
00
00
10
00
10
00
50
00
50
00
00
ENDCHAR
STARTCHAR char10493
ENCODING 10493
SWIDTH 540 0
DWIDTH 6 0
BBX 6 12 0 -2
BITMAP
00
00
00
50
00
10
00
50
00
50
00
00
ENDCHAR
STARTCHAR char10494
ENCODING 10494
SWIDTH 540 0
DWIDTH 6 0
BBX 6 12 0 -2
BITMAP
00
00
00
10
00
50
00
50
00
50
00
00
ENDCHAR
STARTCHAR char10495
ENCODING 10495
SWIDTH 540 0
DWIDTH 6 0
BBX 6 12 0 -2
BITMAP
00
00
00
50
00
50
00
50
00
50
00
00
ENDCHAR
STARTCHAR char64257
ENCODING 64257
SWIDTH 540 0
DWIDTH 6 0
BBX 6 12 0 -2
BITMAP
00
00
00
30
48
40
E8
48
48
48
00
00
ENDCHAR
STARTCHAR char64258
ENCODING 64258
SWIDTH 540 0
DWIDTH 6 0
BBX 6 12 0 -2
BITMAP
00
00
00
38
48
48
F8
48
48
44
00
00
ENDCHAR
STARTCHAR char65533
ENCODING 65533
SWIDTH 540 0
DWIDTH 6 0
BBX 6 12 0 -2
BITMAP
00
00
00
70
D8
A8
E8
D8
F8
D8
70
00
ENDCHAR
ENDFONT
